#N canvas 245 56 1297 903 10;
#X obj 754 312 unpack f f f;
#X obj 741 677 tgl 15 0 empty empty empty 17 7 0 10 #ff2828 #404040
#14e814 0 1;
#X floatatom 754 345 5 0 0 0 - - - 0;
#X floatatom 823 346 5 0 0 0 - - - 0;
#X floatatom 788 345 5 0 0 0 - - - 0;
#X msg 741 642 color \$1 \$2 \$3;
#X obj 741 617 pack f f f;
#N canvas 471 134 1920 997 RGB_____________ 0;
#X obj 97 56 inlet;
#X obj 262 53 inlet;
#X obj 339 55 inlet;
#X obj 405 56 inlet;
#X obj 97 270 bang;
#X obj 146 268 bang;
#X obj 198 221 bang;
#X obj 265 313 spigot;
#X obj 312 313 spigot;
#X obj 359 313 spigot;
#X obj 249 385 outlet;
#X text 93 33 select;
#X text 267 28 red;
#X text 337 30 green;
#X text 409 30 blue;
#X obj 405 102 t b f;
#X obj 339 160 +;
#X obj 339 185 t b f;
#X obj 339 216 +;
#X obj 296 385 outlet;
#X obj 343 385 outlet;
#X obj 28 180 loadbang;
#X obj 97 135 route back front label bang;
#X obj 343 362 f;
#X obj 296 361 f;
#X obj 249 361 f;
#X obj 262 79 * -65536;
#X obj 339 80 * -256;
#X obj 405 80 * -1;
#X obj 339 247 - 1;
#X obj 235 168 t b b b b;
#X msg 160 295 2;
#X msg 132 295 2;
#X msg 104 295 2;
#X msg 77 295 2;
#X msg 184 248 2;
#X msg 211 248 2;
#X connect 0 0 22 0;
#X connect 1 0 26 0;
#X connect 2 0 27 0;
#X connect 3 0 28 0;
#X connect 4 0 34 0;
#X connect 4 0 33 0;
#X connect 5 0 32 0;
#X connect 5 0 31 0;
#X connect 6 0 35 0;
#X connect 6 0 36 0;
#X connect 7 0 25 1;
#X connect 8 0 24 1;
#X connect 9 0 23 1;
#X connect 15 0 16 0;
#X connect 15 1 16 1;
#X connect 16 0 17 0;
#X connect 17 0 18 0;
#X connect 17 1 18 1;
#X connect 18 0 29 0;
#X connect 21 0 33 0;
#X connect 22 0 4 0;
#X connect 22 1 5 0;
#X connect 22 2 6 0;
#X connect 22 3 30 0;
#X connect 23 0 20 0;
#X connect 24 0 19 0;
#X connect 25 0 10 0;
#X connect 26 0 18 0;
#X connect 27 0 16 0;
#X connect 28 0 15 0;
#X connect 29 0 9 0;
#X connect 29 0 8 0;
#X connect 29 0 7 0;
#X connect 30 0 25 0;
#X connect 30 1 24 0;
#X connect 30 2 23 0;
#X connect 30 3 29 0;
#X connect 31 0 8 1;
#X connect 32 0 7 1;
#X connect 32 0 9 1;
#X connect 33 0 7 1;
#X connect 34 0 8 1;
#X connect 34 0 9 1;
#X connect 35 0 7 1;
#X connect 35 0 8 1;
#X connect 36 0 9 1;
#X restore 741 552 pd RGB_____________;
#X obj 874 465 int;
#X obj 828 465 int;
#X obj 778 464 int;
#X text 190 203 RED;
#X obj 118 186 select 1;
#X obj 118 216 select 2;
#X obj 118 246 select 3;
#X obj 118 276 select 4;
#X obj 118 306 select 5;
#X obj 1059 81 vradio 15 1 1 12 empty empty empty 0 -8 0 10 #fcfcfc
#000000 #000000 10;
#X floatatom 1059 345 5 0 0 0 - - - 0;
#X obj 1059 320 * -1;
#X obj 1059 293 - 12;
#X obj 927 50 vradio 15 1 1 29 empty empty empty 0 -8 0 10 #fcfcfc
#000000 #000000 0;
#X floatatom 985 636 5 0 0 0 - - - 0;
#X obj 118 336 select 6;
#X obj 778 437 +;
#X obj 828 437 +;
#X obj 874 437 +;
#X obj 874 496 min 255;
#X obj 778 502 min 255;
#X obj 828 522 min 255;
#X obj 874 387 t b f;
#X obj 828 387 t b f;
#X obj 778 387 t b f;
#X obj 971 559 * 20;
#X obj 1059 30 inlet shade;
#X obj 955 27 inlet colour;
#X obj 985 658 s \$0_colour;
#X obj 778 675 s canvas_\$0;
#X obj 68 48 cnv 15 100 60 empty canvas_\$0 empty 20 12 0 14 #ff2828
#14e814 0;
#X obj 957 522 + 1;
#X obj 118 366 select 7;
#X floatatom 957 497 5 0 0 0 - - - 0;
#X floatatom 1059 272 5 0 0 0 - - - 0;
#X obj 693 514 bng 15 250 50 0 empty empty empty 17 7 0 10 #fcfcfc
#000000 #000000;
#X obj 30 146 r \$0_colour;
#X obj 30 370 t b f;
#X obj 715 716 outlet;
#X obj 704 437 f;
#X obj 957 596 t b f b;
#X obj 114 394 select 8;
#X obj 119 422 select 9;
#X msg 229 203 255 0 0;
#X msg 229 233 0 255 0;
#X text 189 233 GREEN;
#X text 182 287 YELLOW;
#X text 189 263 BLUE;
#X msg 229 263 0 0 255;
#X msg 229 293 255 255 0;
#X msg 229 323 255 0 255;
#X msg 229 353 0 255 255;
#X text 189 323 CYAN;
#X text 179 354 SKYBLUE;
#X text 189 383 MARRON;
#X msg 277 408 0 128 0;
#X text 190 411 DARK Green;
#X msg 252 440 0 0 128;
#X text 190 439 DARK BLUE;
#X obj 120 453 select 10;
#X text 191 528 PURPLE;
#X text 191 558 TEAL;
#X msg 231 528 128 0 128;
#X msg 231 558 0 128 128;
#X msg 231 588 153 153 255;
#X text 184 582 VIOLET;
#X text 191 618 gRAPE;
#X msg 231 618 153 51 102;
#X msg 259 648 255 255 204;
#X text 219 650 cREAM;
#X text 231 745 PEACH;
#X text 185 721 DARK PURPLE;
#X text 194 777 OCEAN BLUE;
#X text 444 165 LIGHT VIOLET;
#X text 449 196 NAVY bLUE;
#X text 449 245 DARK CYAN;
#X text 453 307 lIGHT YELLO;
#X text 191 684 LIGHT BLUE;
#X text 445 330 DARK SKY BLUE;
#X text 453 367 DARK GRAPE;
#X text 442 407 DARK MAROON;
#X msg 283 678 204 255 255;
#X msg 261 719 102 0 102;
#X msg 281 746 255 128 128;
#X msg 274 778 0 102 204;
#X msg 511 274 255 0 255;
#X msg 531 305 200 200 0;
#X msg 542 331 0 200 200;
#X msg 526 365 120 0 128;
#X msg 524 404 120 0 0;
#X text 191 470 MUSTARD;
#X msg 253 471 128 128 0;
#X obj 121 504 select 11;
#X obj 124 537 select 12;
#X obj 122 566 select 13;
#X obj 130 596 select 14;
#X obj 120 631 select 15;
#X obj 120 667 select 16;
#X obj 122 704 select 17;
#X obj 116 727 select 18;
#X obj 111 755 select 19;
#X obj 376 156 select 20;
#X obj 378 199 select 21;
#X obj 1058 52 - 1;
#X obj 377 244 select 22;
#X obj 379 286 select 23;
#X obj 378 317 select 24;
#X obj 378 345 select 25;
#X obj 379 386 select 26;
#X msg 529 178 204 204 255;
#X msg 527 205 0 0 128;
#X msg 229 383 0 128 128;
#X msg 409 723 \$1 \$2 \$3;
#X obj 383 832 outlet;
#X msg 555 619 \$1;
#X obj 955 51 - 1;
#X obj 555 645 pack f f f;
#X msg 779 582 2;
#X floatatom 555 699 5 0 255 0 - - - 0;
#X obj 555 725 / 28;
#X floatatom 555 776 5 0 0 0 - - - 0;
#X obj 555 749 int;
#X floatatom 598 700 5 0 255 0 - - - 0;
#X obj 598 726 / 28;
#X floatatom 598 777 5 0 0 0 - - - 0;
#X obj 598 750 int;
#X floatatom 640 700 5 0 255 0 - - - 0;
#X obj 640 726 / 28;
#X floatatom 640 777 5 0 0 0 - - - 0;
#X obj 640 750 int;
#X obj 625 876 +;
#X obj 555 890 +;
#X obj 555 808 * 100;
#X obj 598 809 * 10;
#X obj 598 844 t b f;
#X obj 640 819 t b b f;
#X obj 555 671 unpack f f f;
#X obj 556 915 outlet;
#X obj 378 428 select 27;
#X msg 522 445 180 90 65;
#X text 440 483 orange gold;
#X text 440 445 skin color1;
#X obj 378 466 select 28;
#X msg 521 483 180 100 90;
#X text 438 522 orange gold;
#X msg 520 524 180 110 100;
#X obj 376 505 select 29;
#X floatatom 683 596 5 0 0 0 - - - 0;
#X obj 556 598 f;
#X obj 658 446 t b f;
#X connect 0 0 2 0;
#X connect 0 1 4 0;
#X connect 0 2 3 0;
#X connect 2 0 24 0;
#X connect 2 0 157 0;
#X connect 3 0 26 0;
#X connect 3 0 124 2;
#X connect 4 0 25 0;
#X connect 4 0 124 1;
#X connect 5 0 1 0;
#X connect 5 0 46 0;
#X connect 5 0 37 0;
#X connect 6 0 5 0;
#X connect 7 0 6 0;
#X connect 7 0 155 0;
#X connect 7 1 125 0;
#X connect 8 0 27 0;
#X connect 9 0 29 0;
#X connect 10 0 28 0;
#X connect 12 0 51 0;
#X connect 13 0 52 0;
#X connect 14 0 56 0;
#X connect 15 0 57 0;
#X connect 16 0 58 0;
#X connect 17 0 42 0;
#X connect 18 0 33 0;
#X connect 19 0 18 0;
#X connect 20 0 19 0;
#X connect 21 0 41 0;
#X connect 22 0 36 0;
#X connect 23 0 59 0;
#X connect 24 0 10 0;
#X connect 25 0 9 0;
#X connect 26 0 8 0;
#X connect 27 0 7 3;
#X connect 28 0 7 1;
#X connect 29 0 7 2;
#X connect 30 0 26 0;
#X connect 30 1 26 1;
#X connect 31 0 25 0;
#X connect 31 1 25 1;
#X connect 32 0 24 0;
#X connect 32 1 24 1;
#X connect 33 0 47 1;
#X connect 34 0 111 0;
#X connect 35 0 123 0;
#X connect 39 0 48 0;
#X connect 40 0 119 0;
#X connect 41 0 39 0;
#X connect 42 0 20 0;
#X connect 43 0 7 0;
#X connect 44 0 45 0;
#X connect 45 0 43 0;
#X connect 45 1 12 0;
#X connect 45 1 67 0;
#X connect 45 1 50 0;
#X connect 45 1 49 0;
#X connect 45 1 40 0;
#X connect 45 1 23 0;
#X connect 45 1 16 0;
#X connect 45 1 15 0;
#X connect 45 1 14 0;
#X connect 45 1 13 0;
#X connect 45 1 100 0;
#X connect 45 1 101 0;
#X connect 45 1 102 0;
#X connect 45 1 103 0;
#X connect 45 1 104 0;
#X connect 45 1 105 0;
#X connect 45 1 106 0;
#X connect 45 1 107 0;
#X connect 45 1 108 0;
#X connect 45 1 109 0;
#X connect 45 1 110 0;
#X connect 45 1 112 0;
#X connect 45 1 113 0;
#X connect 45 1 114 0;
#X connect 45 1 115 0;
#X connect 45 1 116 0;
#X connect 45 1 146 0;
#X connect 45 1 150 0;
#X connect 45 1 154 0;
#X connect 47 0 30 0;
#X connect 47 0 31 0;
#X connect 47 0 32 0;
#X connect 47 0 43 0;
#X connect 48 0 43 0;
#X connect 48 1 22 0;
#X connect 48 2 47 0;
#X connect 49 0 63 0;
#X connect 50 0 65 0;
#X connect 51 0 0 0;
#X connect 52 0 0 0;
#X connect 56 0 0 0;
#X connect 57 0 0 0;
#X connect 58 0 0 0;
#X connect 59 0 0 0;
#X connect 63 0 0 0;
#X connect 65 0 0 0;
#X connect 67 0 99 0;
#X connect 70 0 0 0;
#X connect 71 0 0 0;
#X connect 72 0 0 0;
#X connect 75 0 0 0;
#X connect 76 0 0 0;
#X connect 89 0 0 0;
#X connect 90 0 0 0;
#X connect 91 0 0 0;
#X connect 92 0 0 0;
#X connect 93 0 0 0;
#X connect 94 0 0 0;
#X connect 95 0 0 0;
#X connect 96 0 0 0;
#X connect 97 0 0 0;
#X connect 99 0 0 0;
#X connect 100 0 70 0;
#X connect 101 0 71 0;
#X connect 102 0 72 0;
#X connect 103 0 75 0;
#X connect 104 0 76 0;
#X connect 105 0 89 0;
#X connect 106 0 90 0;
#X connect 107 0 92 0;
#X connect 108 0 92 0;
#X connect 109 0 117 0;
#X connect 110 0 118 0;
#X connect 111 0 17 0;
#X connect 112 0 93 0;
#X connect 113 0 94 0;
#X connect 114 0 95 0;
#X connect 115 0 96 0;
#X connect 116 0 97 0;
#X connect 117 0 0 0;
#X connect 118 0 0 0;
#X connect 119 0 0 0;
#X connect 120 0 121 0;
#X connect 122 0 124 0;
#X connect 123 0 21 0;
#X connect 124 0 120 0;
#X connect 124 0 144 0;
#X connect 125 0 6 1;
#X connect 125 0 6 2;
#X connect 126 0 127 0;
#X connect 127 0 129 0;
#X connect 128 0 140 0;
#X connect 129 0 128 0;
#X connect 130 0 131 0;
#X connect 131 0 133 0;
#X connect 132 0 141 0;
#X connect 133 0 132 0;
#X connect 134 0 135 0;
#X connect 135 0 137 0;
#X connect 136 0 143 0;
#X connect 137 0 136 0;
#X connect 138 0 139 1;
#X connect 139 0 145 0;
#X connect 140 0 139 0;
#X connect 141 0 142 0;
#X connect 142 0 139 0;
#X connect 142 1 138 0;
#X connect 143 0 142 0;
#X connect 143 1 138 0;
#X connect 143 2 138 1;
#X connect 144 0 126 0;
#X connect 144 1 130 0;
#X connect 144 2 134 0;
#X connect 146 0 147 0;
#X connect 147 0 0 0;
#X connect 150 0 151 0;
#X connect 151 0 0 0;
#X connect 153 0 0 0;
#X connect 154 0 153 0;
#X connect 156 0 122 0;
#X connect 157 0 156 0;
#X connect 157 1 156 1;
#X coords 0 -1 1 1 105 80 1 65 30;
