#N canvas 51 58 1920 997 12;
#X obj 17 23 inlet;
#X obj 123 43 r \$1-clonedpattern;
#X obj 123 117 bng 15 250 50 0 empty empty empty 17 7 0 10 #fcfcfc
#000000 #000000;
#X obj 204 113 bng 15 250 50 0 empty empty empty 17 7 0 10 #fcfcfc
#000000 #000000;
#X obj 367 115 bng 15 250 50 0 empty empty empty 17 7 0 10 #fcfcfc
#000000 #000000;
#X obj 435 110 bng 15 250 50 0 empty empty empty 17 7 0 10 #fcfcfc
#000000 #000000;
#X obj 530 111 bng 15 250 50 0 empty empty empty 17 7 0 10 #fcfcfc
#000000 #000000;
#X obj 612 115 bng 15 250 50 0 empty empty empty 17 7 0 10 #fcfcfc
#000000 #000000;
#X obj 687 114 bng 15 250 50 0 empty empty empty 17 7 0 10 #fcfcfc
#000000 #000000;
#X floatatom 18 154 5 0 0 0 - - - 0;
#X obj 18 131 \$1;
#X obj 18 107 loadbang;
#X obj 944 110 bng 15 250 50 0 empty empty empty 17 7 0 10 #fcfcfc
#000000 #000000;
#X obj 1020 113 bng 15 250 50 0 empty empty empty 17 7 0 10 #fcfcfc
#000000 #000000;
#X obj 1102 112 bng 15 250 50 0 empty empty empty 17 7 0 10 #fcfcfc
#000000 #000000;
#X obj 1181 112 bng 15 250 50 0 empty empty empty 17 7 0 10 #fcfcfc
#000000 #000000;
#X obj 854 142 bng 15 250 50 0 empty empty getmidisettings 17 7 0 10
#fcfcfc #000000 #000000;
#X obj 1352 117 bng 15 250 50 0 empty empty empty 17 7 0 10 #fcfcfc
#000000 #000000;
#X obj 1428 116 bng 15 250 50 0 empty empty empty 17 7 0 10 #fcfcfc
#000000 #000000;
#X obj 18 72 table s\$1;
#X obj 127 288 tabplay~ s\$1;
#X obj 124 654 outlet~;
#X obj 125 628 *~;
#X floatatom 140 600 5 0 0 0 - - - 0;
#X obj 139 571 r \$1-samVol;
#X msg 136 262 stop;
#X obj 136 236 r metronomeOff;
#X obj 1508 113 bng 15 250 50 0 empty empty empty 17 7 0 10 #fcfcfc
#000000 #000000;
#X obj 457 122 t b a;
#N canvas 255 118 1284 1041 \$0-loadsamtomixer 0;
#X msg 265 188 0;
#X obj 265 209 t f;
#X obj 298 211 pack f s f;
#X obj 354 191 t f;
#X obj 265 146 delay 10;
#X obj 265 167 t b;
#X obj 326 112 t s b b b s b;
#X symbolatom 313 254 150 0 0 0 - - - 0;
#X obj 313 273 t s;
#X msg 312 234 symbol \$2;
#X obj 286 406 soundfiler;
#X floatatom 286 432 20 0 0 0 - - - 0;
#X obj 286 505 s trksampleSize;
#X msg 286 379 read -resize \$2 s\$3;
#X obj 286 326 list \$1 \$2 \$3;
#X obj 286 351 list trim;
#X obj 353 170 \$1;
#X obj 363 28 r \$1-loadedpath;
#X obj 286 476 - 1;
#X obj 241 14 inlet;
#X symbolatom 329 88 20 0 0 0 - - - 0;
#X obj 677 559 symbol;
#X msg 677 533 bang;
#X obj 677 508 t b f;
#X listbox 677 583 20 0 0 0 - - - 0;
#X msg 717 533 symbol \$1-samVol;
#X obj 658 607 s;
#X obj 677 484 - 1;
#X msg 604 497 0.7;
#X obj 559 164 t b;
#X obj 313 300 s \$1-arg6-recv;
#X obj 677 460 r cntrlnumseq;
#X obj 495 327 outlet;
#X connect 0 0 1 0;
#X connect 1 0 2 0;
#X connect 2 0 9 0;
#X connect 2 0 14 0;
#X connect 3 0 2 2;
#X connect 4 0 5 0;
#X connect 5 0 0 0;
#X connect 6 0 2 1;
#X connect 6 1 16 0;
#X connect 6 3 4 0;
#X connect 7 0 8 0;
#X connect 8 0 30 0;
#X connect 8 0 32 0;
#X connect 9 0 7 0;
#X connect 10 0 11 0;
#X connect 11 0 18 0;
#X connect 13 0 10 0;
#X connect 14 0 15 0;
#X connect 15 0 13 0;
#X connect 16 0 3 0;
#X connect 17 0 20 0;
#X connect 17 0 29 0;
#X connect 18 0 12 0;
#X connect 19 0 20 0;
#X connect 20 0 6 0;
#X connect 21 0 24 0;
#X connect 22 0 21 0;
#X connect 23 0 22 0;
#X connect 23 1 25 0;
#X connect 24 0 26 1;
#X connect 25 0 21 1;
#X connect 27 0 23 0;
#X connect 28 0 26 0;
#X connect 29 0 28 0;
#X connect 31 0 27 0;
#X restore 458 243 pd \$0-loadsamtomixer \$1;
#N canvas 403 50 608 1041 \$1-updateloadedname 0;
#X listbox 74 136 150 0 0 0 - - - 0;
#X obj 271 517 loadbang;
#X obj 272 543 \$0;
#X floatatom 275 568 5 0 0 0 - - - 0;
#X obj 184 235 t b s;
#X listbox 185 211 20 0 0 0 - - - 0;
#N canvas 208 208 569 300 \$0-splitfinaltype 0;
#X obj 46 116 list fromsymbol;
#X obj 46 413 list split;
#X obj 108 453 list tosymbol;
#X obj 46 136 t a a;
#X obj 73 256 list store;
#X obj 73 176 until;
#X obj 73 196 f;
#X obj 103 196 + 1;
#X msg 73 236 get \$1 1;
#X obj 116 177 0;
#X obj 73 156 t b b a;
#X obj 73 216 t f f;
#X obj 73 333 sel 1;
#X obj 73 353 f;
#X obj 103 393 f;
#X obj 218 297 list fromsymbol;
#X obj 73 313 ==;
#X obj 218 216 symbol \$1;
#X obj 228 196 loadbang;
#X obj 108 473 outlet;
#X obj 166 36 inlet;
#X obj 218 236 list fromsymbol;
#X obj 218 257 route bang;
#X obj 46 513 outlet;
#X obj 46 493 list tosymbol;
#X obj 253 76 route symbol;
#X obj 166 56 route separator;
#X obj 74 433 list split 1;
#X obj 322 96 symbol;
#X msg 322 116 no method for '\$1';
#X obj 322 136 print ERROR;
#X obj 166 136 route float symbol;
#X obj 166 176 list fromsymbol;
#X msg 166 156 symbol \$1;
#X obj 218 277 symbol .;
#X connect 0 0 3 0;
#X connect 1 0 24 0;
#X connect 1 1 27 0;
#X connect 2 0 19 0;
#X connect 3 0 1 0;
#X connect 3 1 10 0;
#X connect 4 0 16 0;
#X connect 4 1 5 1;
#X connect 4 1 14 0;
#X connect 5 0 6 0;
#X connect 6 0 7 0;
#X connect 6 0 11 0;
#X connect 7 0 6 1;
#X connect 8 0 4 0;
#X connect 9 0 6 1;
#X connect 10 0 5 0;
#X connect 10 1 9 0;
#X connect 10 2 4 1;
#X connect 11 0 8 0;
#X connect 11 1 13 1;
#X connect 12 0 13 0;
#X connect 13 0 14 1;
#X connect 14 0 1 1;
#X connect 15 0 16 1;
#X connect 16 0 12 0;
#X connect 17 0 21 0;
#X connect 18 0 17 0;
#X connect 20 0 26 0;
#X connect 21 0 22 0;
#X connect 22 0 34 0;
#X connect 22 1 16 1;
#X connect 24 0 23 0;
#X connect 25 0 0 0;
#X connect 25 1 28 0;
#X connect 26 0 31 0;
#X connect 26 1 25 0;
#X connect 27 1 2 0;
#X connect 28 0 29 0;
#X connect 29 0 30 0;
#X connect 31 0 33 0;
#X connect 31 1 17 0;
#X connect 32 0 16 1;
#X connect 33 0 32 0;
#X connect 34 0 15 0;
#X restore 184 183 pd \$0-splitfinaltype;
#N canvas 208 208 603 300 \$0-splitfinal 0;
#X obj 46 116 list fromsymbol;
#X obj 46 413 list split;
#X obj 108 453 list tosymbol;
#X obj 46 136 t a a;
#X obj 73 256 list store;
#X obj 73 176 until;
#X obj 73 196 f;
#X obj 103 196 + 1;
#X msg 73 236 get \$1 1;
#X obj 116 177 0;
#X obj 73 156 t b b a;
#X obj 73 216 t f f;
#X obj 73 333 sel 1;
#X obj 73 353 f;
#X obj 103 393 f;
#X obj 218 297 list fromsymbol;
#X obj 73 313 ==;
#X obj 218 216 symbol \$1;
#X obj 228 196 loadbang;
#X obj 108 473 outlet;
#X obj 166 36 inlet;
#X obj 218 236 list fromsymbol;
#X obj 218 257 route bang;
#X obj 46 513 outlet;
#X obj 46 493 list tosymbol;
#X obj 253 76 route symbol;
#X obj 166 56 route separator;
#X obj 74 433 list split 1;
#X obj 322 96 symbol;
#X msg 322 116 no method for '\$1';
#X obj 322 136 print ERROR;
#X obj 166 136 route float symbol;
#X obj 166 176 list fromsymbol;
#X msg 166 156 symbol \$1;
#X obj 218 277 symbol /;
#X connect 0 0 3 0;
#X connect 1 0 24 0;
#X connect 1 1 27 0;
#X connect 2 0 19 0;
#X connect 3 0 1 0;
#X connect 3 1 10 0;
#X connect 4 0 16 0;
#X connect 4 1 5 1;
#X connect 4 1 14 0;
#X connect 5 0 6 0;
#X connect 6 0 7 0;
#X connect 6 0 11 0;
#X connect 7 0 6 1;
#X connect 8 0 4 0;
#X connect 9 0 6 1;
#X connect 10 0 5 0;
#X connect 10 1 9 0;
#X connect 10 2 4 1;
#X connect 11 0 8 0;
#X connect 11 1 13 1;
#X connect 12 0 13 0;
#X connect 13 0 14 1;
#X connect 14 0 1 1;
#X connect 15 0 16 1;
#X connect 16 0 12 0;
#X connect 17 0 21 0;
#X connect 18 0 17 0;
#X connect 20 0 26 0;
#X connect 21 0 22 0;
#X connect 22 0 34 0;
#X connect 22 1 16 1;
#X connect 24 0 23 0;
#X connect 25 0 0 0;
#X connect 25 1 28 0;
#X connect 26 0 31 0;
#X connect 26 1 25 0;
#X connect 27 1 2 0;
#X connect 28 0 29 0;
#X connect 29 0 30 0;
#X connect 31 0 33 0;
#X connect 31 1 17 0;
#X connect 32 0 16 1;
#X connect 33 0 32 0;
#X connect 34 0 15 0;
#X restore 75 157 pd \$0-splitfinal;
#X obj 186 305 t b s;
#X listbox 184 286 20 0 0 0 - - - 0;
#N canvas 208 208 586 300 \$0-splitfinal 0;
#X obj 46 116 list fromsymbol;
#X obj 46 413 list split;
#X obj 108 453 list tosymbol;
#X obj 46 136 t a a;
#X obj 73 256 list store;
#X obj 73 176 until;
#X obj 73 196 f;
#X obj 103 196 + 1;
#X msg 73 236 get \$1 1;
#X obj 116 177 0;
#X obj 73 156 t b b a;
#X obj 73 216 t f f;
#X obj 73 333 sel 1;
#X obj 73 353 f;
#X obj 103 393 f;
#X obj 218 297 list fromsymbol;
#X obj 73 313 ==;
#X obj 218 216 symbol \$1;
#X obj 228 196 loadbang;
#X obj 108 473 outlet;
#X obj 166 36 inlet;
#X obj 218 236 list fromsymbol;
#X obj 218 257 route bang;
#X obj 46 513 outlet;
#X obj 46 493 list tosymbol;
#X obj 253 76 route symbol;
#X obj 166 56 route separator;
#X obj 74 433 list split 1;
#X obj 322 96 symbol;
#X msg 322 116 no method for '\$1';
#X obj 322 136 print ERROR;
#X obj 166 136 route float symbol;
#X obj 166 176 list fromsymbol;
#X msg 166 156 symbol \$1;
#X obj 218 277 symbol /;
#X connect 0 0 3 0;
#X connect 1 0 24 0;
#X connect 1 1 27 0;
#X connect 2 0 19 0;
#X connect 3 0 1 0;
#X connect 3 1 10 0;
#X connect 4 0 16 0;
#X connect 4 1 5 1;
#X connect 4 1 14 0;
#X connect 5 0 6 0;
#X connect 6 0 7 0;
#X connect 6 0 11 0;
#X connect 7 0 6 1;
#X connect 8 0 4 0;
#X connect 9 0 6 1;
#X connect 10 0 5 0;
#X connect 10 1 9 0;
#X connect 10 2 4 1;
#X connect 11 0 8 0;
#X connect 11 1 13 1;
#X connect 12 0 13 0;
#X connect 13 0 14 1;
#X connect 14 0 1 1;
#X connect 15 0 16 1;
#X connect 16 0 12 0;
#X connect 17 0 21 0;
#X connect 18 0 17 0;
#X connect 20 0 26 0;
#X connect 21 0 22 0;
#X connect 22 0 34 0;
#X connect 22 1 16 1;
#X connect 24 0 23 0;
#X connect 25 0 0 0;
#X connect 25 1 28 0;
#X connect 26 0 31 0;
#X connect 26 1 25 0;
#X connect 27 1 2 0;
#X connect 28 0 29 0;
#X connect 29 0 30 0;
#X connect 31 0 33 0;
#X connect 31 1 17 0;
#X connect 32 0 16 1;
#X connect 33 0 32 0;
#X connect 34 0 15 0;
#X restore 75 257 pd \$0-splitfinal;
#N canvas 208 208 586 300 \$0-splitfinal 0;
#X obj 46 116 list fromsymbol;
#X obj 46 413 list split;
#X obj 108 453 list tosymbol;
#X obj 46 136 t a a;
#X obj 73 256 list store;
#X obj 73 176 until;
#X obj 73 196 f;
#X obj 103 196 + 1;
#X msg 73 236 get \$1 1;
#X obj 116 177 0;
#X obj 73 156 t b b a;
#X obj 73 216 t f f;
#X obj 73 333 sel 1;
#X obj 73 353 f;
#X obj 103 393 f;
#X obj 218 297 list fromsymbol;
#X obj 73 313 ==;
#X obj 218 216 symbol \$1;
#X obj 228 196 loadbang;
#X obj 108 473 outlet;
#X obj 166 36 inlet;
#X obj 218 236 list fromsymbol;
#X obj 218 257 route bang;
#X obj 46 513 outlet;
#X obj 46 493 list tosymbol;
#X obj 253 76 route symbol;
#X obj 166 56 route separator;
#X obj 74 433 list split 1;
#X obj 322 96 symbol;
#X msg 322 116 no method for '\$1';
#X obj 322 136 print ERROR;
#X obj 166 136 route float symbol;
#X obj 166 176 list fromsymbol;
#X msg 166 156 symbol \$1;
#X obj 218 277 symbol /;
#X connect 0 0 3 0;
#X connect 1 0 24 0;
#X connect 1 1 27 0;
#X connect 2 0 19 0;
#X connect 3 0 1 0;
#X connect 3 1 10 0;
#X connect 4 0 16 0;
#X connect 4 1 5 1;
#X connect 4 1 14 0;
#X connect 5 0 6 0;
#X connect 6 0 7 0;
#X connect 6 0 11 0;
#X connect 7 0 6 1;
#X connect 8 0 4 0;
#X connect 9 0 6 1;
#X connect 10 0 5 0;
#X connect 10 1 9 0;
#X connect 10 2 4 1;
#X connect 11 0 8 0;
#X connect 11 1 13 1;
#X connect 12 0 13 0;
#X connect 13 0 14 1;
#X connect 14 0 1 1;
#X connect 15 0 16 1;
#X connect 16 0 12 0;
#X connect 17 0 21 0;
#X connect 18 0 17 0;
#X connect 20 0 26 0;
#X connect 21 0 22 0;
#X connect 22 0 34 0;
#X connect 22 1 16 1;
#X connect 24 0 23 0;
#X connect 25 0 0 0;
#X connect 25 1 28 0;
#X connect 26 0 31 0;
#X connect 26 1 25 0;
#X connect 27 1 2 0;
#X connect 28 0 29 0;
#X connect 29 0 30 0;
#X connect 31 0 33 0;
#X connect 31 1 17 0;
#X connect 32 0 16 1;
#X connect 33 0 32 0;
#X connect 34 0 15 0;
#X restore 75 333 pd \$0-splitfinal;
#X listbox 190 371 20 0 0 0 - - - 0;
#X obj 210 520 symbol;
#X msg 253 436 0;
#X msg 210 491 bang;
#X obj 253 462 pack f s s s;
#X obj 210 602 pack f f s;
#X obj 190 407 t b b b s;
#X msg 210 573 0;
#X obj 210 547 t b s;
#X msg 253 490 symbol \$3/\$4;
#X obj 75 110 symbol;
#X msg 97 72 symbol \$1;
#X obj 63 45 t b s;
#X msg 54 85 bang;
#X obj 274 29 inlet;
#X obj 274 51 t b;
#X obj 61 19 r \$1-arg6-recv;
#X msg 210 630 \; wavelocation_recv label \$3 \;;
#X obj 256 93 del 10;
#X obj 417 442 loadbang;
#X msg 417 472 symbol ..;
#X obj 417 502 t b s;
#X obj 366 510 del 10;
#N canvas 208 208 1920 997 \$0-limitdirname2 0;
#X obj 368 273 s2l;
#X msg 369 221 symbol \$1;
#X msg 473 222 symbol;
#X obj 375 42 inlet;
#X obj 132 439 pack f s s s s s s s s s s s s s s s s;
#X msg 97 412 0;
#X obj 128 571 outlet;
#X msg 542 95 symbol;
#X msg 132 466 symbol \$2\$3\$4\$5\$6\$7\$8\$9\$10\$11\$12\$13\$14..
;
#X obj 139 529 spigot 0;
#X obj 183 503 tgl 15 0 empty empty empty 17 7 0 10 #fcfcfc #000000
#000000 0 1;
#X obj 542 69 loadbang;
#X msg 541 132 0;
#X obj 368 149 route symbol;
#X obj 369 197 symbol;
#X msg 369 175 bang;
#X obj 368 101 l2s;
#X obj 454 183 bng 15 250 50 0 empty empty empty 17 7 0 10 #fcfcfc
#000000 #000000;
#X msg 144 264 clear;
#X obj 369 73 t b s b b b b b b;
#X msg 83 271 bang;
#X msg 124 192 rewind;
#X obj 123 328 l2s;
#X obj 119 359 s2l;
#X obj 123 299 textfile;
#X msg 211 267 add2 \$1;
#N canvas 271 61 1920 1014 \$0-charlimiter 0;
#X obj 169 117 list append;
#X obj 169 467 spigot 0;
#X obj 221 447 tgl 15 0 empty empty empty 17 7 0 10 #fcfcfc #000000
#000000 0 1;
#X obj 189 420 t b f;
#X obj 1383 281 pack f s;
#X obj 203 267 else/count;
#X obj 205 246 bng 15 250 50 0 empty empty empty 17 7 0 10 #fcfcfc
#000000 #000000;
#X floatatom 206 292 5 0 0 0 - - - 0;
#X obj 134 196 l2s;
#X obj 189 368 unpack f s;
#X obj 171 501 t b s;
#X msg 303 190 0;
#X obj 318 464 spigot 0;
#X obj 370 444 tgl 15 0 empty empty empty 17 7 0 10 #fcfcfc #000000
#000000 0 1;
#X obj 338 417 t b f;
#X obj 338 365 unpack f s;
#X obj 317 494 t b s;
#X msg 136 222 symbol \$1;
#X obj 138 53 inlet;
#X obj 219 72 inlet;
#X obj 144 81 t l;
#X obj 174 587 outlet;
#X obj 214 543 outlet;
#X obj 346 534 outlet;
#X obj 419 463 spigot 0;
#X obj 471 443 tgl 15 0 empty empty empty 17 7 0 10 #fcfcfc #000000
#000000 0 1;
#X obj 439 416 t b f;
#X obj 439 364 unpack f s;
#X obj 421 497 t b s;
#X obj 568 460 spigot 0;
#X obj 620 440 tgl 15 0 empty empty empty 17 7 0 10 #fcfcfc #000000
#000000 0 1;
#X obj 588 413 t b f;
#X obj 588 361 unpack f s;
#X obj 567 490 t b s;
#X obj 601 519 outlet;
#X obj 459 530 outlet;
#X obj 674 459 spigot 0;
#X obj 726 439 tgl 15 0 empty empty empty 17 7 0 10 #fcfcfc #000000
#000000 0 1;
#X obj 694 412 t b f;
#X obj 694 360 unpack f s;
#X obj 676 493 t b s;
#X obj 823 456 spigot 0;
#X obj 875 436 tgl 15 0 empty empty empty 17 7 0 10 #fcfcfc #000000
#000000 0 1;
#X obj 843 409 t b f;
#X obj 843 357 unpack f s;
#X obj 822 486 t b s;
#X obj 713 526 outlet;
#X obj 853 518 outlet;
#X obj 924 455 spigot 0;
#X obj 976 435 tgl 15 0 empty empty empty 17 7 0 10 #fcfcfc #000000
#000000 0 1;
#X obj 944 408 t b f;
#X obj 944 356 unpack f s;
#X obj 926 489 t b s;
#X obj 1073 452 spigot 0;
#X obj 1125 432 tgl 15 0 empty empty empty 17 7 0 10 #fcfcfc #000000
#000000 0 1;
#X obj 1093 405 t b f;
#X obj 1093 353 unpack f s;
#X obj 1072 482 t b s;
#X obj 1093 381 == 7;
#X obj 1101 512 outlet;
#X obj 960 520 outlet;
#X obj 1211 452 spigot 0;
#X obj 1263 432 tgl 15 0 empty empty empty 17 7 0 10 #fcfcfc #000000
#000000 0 1;
#X obj 1231 405 t b f;
#X obj 1231 353 unpack f s;
#X obj 1210 482 t b s;
#X obj 1239 517 outlet;
#X obj 1317 451 spigot 0;
#X obj 1369 431 tgl 15 0 empty empty empty 17 7 0 10 #fcfcfc #000000
#000000 0 1;
#X obj 1337 404 t b f;
#X obj 1337 352 unpack f s;
#X obj 1319 485 t b s;
#X obj 1466 448 spigot 0;
#X obj 1518 428 tgl 15 0 empty empty empty 17 7 0 10 #fcfcfc #000000
#000000 0 1;
#X obj 1486 401 t b f;
#X obj 1486 349 unpack f s;
#X obj 1465 478 t b s;
#X obj 1354 520 outlet;
#X obj 1500 508 outlet;
#X obj 1567 447 spigot 0;
#X obj 1619 427 tgl 15 0 empty empty empty 17 7 0 10 #fcfcfc #000000
#000000 0 1;
#X obj 1587 400 t b f;
#X obj 1587 348 unpack f s;
#X obj 1569 481 t b s;
#X obj 1716 444 spigot 0;
#X obj 1768 424 tgl 15 0 empty empty empty 17 7 0 10 #fcfcfc #000000
#000000 0 1;
#X obj 1736 397 t b f;
#X obj 1736 345 unpack f s;
#X obj 1715 474 t b s;
#X obj 1740 503 outlet;
#X obj 1605 512 outlet;
#X obj 189 396 == 0;
#X obj 338 393 == 1;
#X obj 439 392 == 2;
#X obj 588 389 == 3;
#X obj 694 388 == 4;
#X obj 843 385 == 5;
#X obj 944 384 == 6;
#X obj 1231 381 == 8;
#X obj 1337 380 == 9;
#X obj 1486 377 == 10;
#X obj 1589 376 == 11;
#X obj 1736 373 == 12;
#X obj 1830 446 spigot 0;
#X obj 1882 426 tgl 15 0 empty empty empty 17 7 0 10 #fcfcfc #000000
#000000 0 1;
#X obj 1850 399 t b f;
#X obj 1850 347 unpack f s;
#X obj 1832 480 t b s;
#X obj 1979 443 spigot 0;
#X obj 2031 423 tgl 15 0 empty empty empty 17 7 0 10 #fcfcfc #000000
#000000 0 1;
#X obj 1999 396 t b f;
#X obj 1999 344 unpack f s;
#X obj 1978 473 t b s;
#X obj 1867 515 outlet;
#X obj 2013 503 outlet;
#X obj 2080 442 spigot 0;
#X obj 2132 422 tgl 15 0 empty empty empty 17 7 0 10 #fcfcfc #000000
#000000 0 1;
#X obj 2100 395 t b f;
#X obj 2100 343 unpack f s;
#X obj 2082 476 t b s;
#X obj 2229 439 spigot 0;
#X obj 2281 419 tgl 15 0 empty empty empty 17 7 0 10 #fcfcfc #000000
#000000 0 1;
#X obj 2249 392 t b f;
#X obj 2249 340 unpack f s;
#X obj 2228 469 t b s;
#X obj 2111 508 outlet;
#X obj 1850 375 == 13;
#X obj 1999 372 == 14;
#X obj 2102 371 == 15;
#X obj 2249 368 == 16;
#X obj 137 170 list-abs/list-drip;
#X connect 0 0 130 0;
#X connect 1 0 10 0;
#X connect 2 0 1 1;
#X connect 3 1 2 0;
#X connect 4 0 9 0;
#X connect 4 0 15 0;
#X connect 4 0 27 0;
#X connect 4 0 32 0;
#X connect 4 0 39 0;
#X connect 4 0 44 0;
#X connect 4 0 51 0;
#X connect 4 0 56 0;
#X connect 4 0 64 0;
#X connect 4 0 70 0;
#X connect 4 0 75 0;
#X connect 4 0 82 0;
#X connect 4 0 87 0;
#X connect 4 0 106 0;
#X connect 4 0 111 0;
#X connect 4 0 118 0;
#X connect 4 0 123 0;
#X connect 5 0 7 0;
#X connect 6 0 5 0;
#X connect 7 0 4 0;
#X connect 8 0 17 0;
#X connect 9 0 91 0;
#X connect 9 1 1 0;
#X connect 10 0 21 0;
#X connect 10 1 22 0;
#X connect 11 0 5 0;
#X connect 12 0 16 0;
#X connect 13 0 12 1;
#X connect 14 1 13 0;
#X connect 15 0 92 0;
#X connect 15 1 12 0;
#X connect 16 0 21 0;
#X connect 16 1 23 0;
#X connect 17 0 4 1;
#X connect 18 0 20 0;
#X connect 19 0 11 0;
#X connect 20 0 0 0;
#X connect 24 0 28 0;
#X connect 25 0 24 1;
#X connect 26 1 25 0;
#X connect 27 0 93 0;
#X connect 27 1 24 0;
#X connect 28 0 21 0;
#X connect 28 1 35 0;
#X connect 29 0 33 0;
#X connect 30 0 29 1;
#X connect 31 1 30 0;
#X connect 32 0 94 0;
#X connect 32 1 29 0;
#X connect 33 0 21 0;
#X connect 33 1 34 0;
#X connect 36 0 40 0;
#X connect 37 0 36 1;
#X connect 38 1 37 0;
#X connect 39 0 95 0;
#X connect 39 1 36 0;
#X connect 40 0 21 0;
#X connect 40 1 46 0;
#X connect 41 0 45 0;
#X connect 42 0 41 1;
#X connect 43 1 42 0;
#X connect 44 0 96 0;
#X connect 44 1 41 0;
#X connect 45 0 21 0;
#X connect 45 1 47 0;
#X connect 48 0 52 0;
#X connect 49 0 48 1;
#X connect 50 1 49 0;
#X connect 51 0 97 0;
#X connect 51 1 48 0;
#X connect 52 0 21 0;
#X connect 52 1 60 0;
#X connect 53 0 57 0;
#X connect 54 0 53 1;
#X connect 55 1 54 0;
#X connect 56 0 58 0;
#X connect 56 1 53 0;
#X connect 57 0 21 0;
#X connect 57 1 59 0;
#X connect 58 0 55 0;
#X connect 61 0 65 0;
#X connect 62 0 61 1;
#X connect 63 1 62 0;
#X connect 64 0 98 0;
#X connect 64 1 61 0;
#X connect 65 0 21 0;
#X connect 65 1 66 0;
#X connect 67 0 71 0;
#X connect 68 0 67 1;
#X connect 69 1 68 0;
#X connect 70 0 99 0;
#X connect 70 1 67 0;
#X connect 71 0 21 0;
#X connect 71 1 77 0;
#X connect 72 0 76 0;
#X connect 73 0 72 1;
#X connect 74 1 73 0;
#X connect 75 0 100 0;
#X connect 75 1 72 0;
#X connect 76 0 21 0;
#X connect 76 1 78 0;
#X connect 79 0 83 0;
#X connect 80 0 79 1;
#X connect 81 1 80 0;
#X connect 82 0 101 0;
#X connect 82 1 79 0;
#X connect 83 0 21 0;
#X connect 83 1 90 0;
#X connect 84 0 88 0;
#X connect 85 0 84 1;
#X connect 86 1 85 0;
#X connect 87 0 102 0;
#X connect 87 1 84 0;
#X connect 88 0 21 0;
#X connect 88 1 89 0;
#X connect 91 0 3 0;
#X connect 92 0 14 0;
#X connect 93 0 26 0;
#X connect 94 0 31 0;
#X connect 95 0 38 0;
#X connect 96 0 43 0;
#X connect 97 0 50 0;
#X connect 98 0 63 0;
#X connect 99 0 69 0;
#X connect 100 0 74 0;
#X connect 101 0 81 0;
#X connect 102 0 86 0;
#X connect 103 0 107 0;
#X connect 104 0 103 1;
#X connect 105 1 104 0;
#X connect 106 0 126 0;
#X connect 106 1 103 0;
#X connect 107 0 21 0;
#X connect 107 1 113 0;
#X connect 108 0 112 0;
#X connect 109 0 108 1;
#X connect 110 1 109 0;
#X connect 111 0 127 0;
#X connect 111 1 108 0;
#X connect 112 0 21 0;
#X connect 112 1 114 0;
#X connect 115 0 119 0;
#X connect 116 0 115 1;
#X connect 117 1 116 0;
#X connect 118 0 128 0;
#X connect 118 1 115 0;
#X connect 119 0 21 0;
#X connect 119 1 125 0;
#X connect 120 0 124 0;
#X connect 121 0 120 1;
#X connect 122 1 121 0;
#X connect 123 0 129 0;
#X connect 123 1 120 0;
#X connect 124 0 21 0;
#X connect 126 0 105 0;
#X connect 127 0 110 0;
#X connect 128 0 117 0;
#X connect 129 0 122 0;
#X connect 130 0 8 0;
#X connect 130 0 6 0;
#X restore 120 385 pd \$0-charlimiter;
#X f 42;
#X obj 369 300 list-abs/list-drip;
#X connect 0 0 27 0;
#X connect 1 0 0 0;
#X connect 2 0 4 16;
#X connect 2 0 4 15;
#X connect 2 0 4 14;
#X connect 2 0 4 13;
#X connect 2 0 4 12;
#X connect 2 0 4 11;
#X connect 2 0 4 10;
#X connect 2 0 4 9;
#X connect 2 0 4 8;
#X connect 2 0 4 7;
#X connect 2 0 4 6;
#X connect 2 0 4 5;
#X connect 2 0 4 4;
#X connect 2 0 4 3;
#X connect 2 0 4 2;
#X connect 2 0 4 1;
#X connect 2 0 0 1;
#X connect 3 0 19 0;
#X connect 4 0 8 0;
#X connect 5 0 4 0;
#X connect 7 0 12 0;
#X connect 8 0 6 0;
#X connect 9 0 6 0;
#X connect 10 0 9 1;
#X connect 11 0 7 0;
#X connect 12 0 10 0;
#X connect 13 0 15 0;
#X connect 13 1 17 0;
#X connect 14 0 1 0;
#X connect 15 0 14 0;
#X connect 16 0 14 1;
#X connect 16 0 13 0;
#X connect 18 0 24 0;
#X connect 19 0 21 0;
#X connect 19 0 20 0;
#X connect 19 1 14 1;
#X connect 19 1 16 0;
#X connect 19 2 2 0;
#X connect 19 3 7 0;
#X connect 19 6 12 0;
#X connect 19 7 18 0;
#X connect 19 7 26 1;
#X connect 20 0 24 0;
#X connect 21 0 24 0;
#X connect 22 0 23 0;
#X connect 23 0 26 0;
#X connect 24 0 22 0;
#X connect 25 0 24 0;
#X connect 26 0 5 0;
#X connect 26 1 4 1;
#X connect 26 2 4 2;
#X connect 26 3 4 3;
#X connect 26 4 4 4;
#X connect 26 5 4 5;
#X connect 26 6 4 6;
#X connect 26 7 4 7;
#X connect 26 8 4 8;
#X connect 26 9 4 9;
#X connect 26 10 4 10;
#X connect 26 11 4 11;
#X connect 26 12 4 12;
#X connect 26 13 4 13;
#X connect 26 14 4 14;
#X connect 26 15 4 15;
#X connect 26 16 4 16;
#X connect 27 0 25 0;
#X restore 223 339 pd \$0-limitdirname2;
#X connect 0 0 7 0;
#X connect 1 0 2 0;
#X connect 2 0 3 0;
#X connect 3 0 17 1;
#X connect 4 1 16 3;
#X connect 5 0 4 0;
#X connect 6 0 5 0;
#X connect 7 0 10 0;
#X connect 7 1 6 0;
#X connect 8 1 35 0;
#X connect 9 0 8 0;
#X connect 10 0 11 0;
#X connect 10 1 9 0;
#X connect 11 1 12 0;
#X connect 12 0 18 0;
#X connect 13 0 20 0;
#X connect 14 0 16 0;
#X connect 15 0 13 0;
#X connect 16 0 21 0;
#X connect 17 0 29 0;
#X connect 18 1 15 0;
#X connect 18 2 14 0;
#X connect 18 3 16 1;
#X connect 19 0 17 0;
#X connect 20 0 19 0;
#X connect 20 1 17 2;
#X connect 21 0 13 1;
#X connect 22 0 0 0;
#X connect 23 0 22 1;
#X connect 24 0 25 0;
#X connect 24 1 23 0;
#X connect 25 0 22 0;
#X connect 26 0 27 0;
#X connect 27 0 30 0;
#X connect 28 0 24 0;
#X connect 30 0 25 0;
#X connect 31 0 32 0;
#X connect 32 0 33 0;
#X connect 33 0 34 0;
#X connect 33 1 17 2;
#X connect 34 0 19 0;
#X connect 35 0 16 2;
#X restore 530 208 pd \$1-updateloadedname \$1;
#X obj 457 149 del 20;
#X obj 457 175 t b;
#X obj 458 291 outlet;
#X obj 458 267 t s;
#X obj 306 146 f;
#X obj 306 177 s \$1-samVol;
#N canvas 130 130 552 300 OBCalculateAndShowStepOctaveKey 0;
#X floatatom 86 56 6 0 0 0 - - - 0;
#X obj 86 80 * 10;
#X floatatom 86 104 5 0 0 0 - - - 0;
#X obj 84 126 int;
#X floatatom 83 147 5 0 0 0 - - - 0;
#X obj 104 168 / 10;
#X floatatom 102 189 5 0 0 0 - - - 0;
#N canvas 182 182 450 300 DisplayStepNoteC 0;
#X obj 46 2 inlet;
#X obj 45 43 == 1;
#X floatatom 45 69 5 0 0 0 - - - 0;
#X obj 45 91 change;
#X obj 45 119 == 1;
#X floatatom 46 141 5 0 0 0 - - - 0;
#X obj 42 161 t b;
#X obj 31 244 outlet;
#X obj 148 148 delay 100;
#X obj 145 171 t b;
#X msg 38 196 label Key:C;
#X connect 0 0 1 0;
#X connect 1 0 2 0;
#X connect 2 0 3 0;
#X connect 3 0 4 0;
#X connect 4 0 5 0;
#X connect 5 0 6 0;
#X connect 6 0 10 0;
#X connect 6 0 8 0;
#X connect 8 0 9 0;
#X connect 9 0 10 0;
#X connect 10 0 7 0;
#X restore 87 282 pd DisplayStepNoteC;
#N canvas -6 268 450 300 DisplayStepNoteCShp 0;
#X obj 46 2 inlet;
#X floatatom 45 69 5 0 0 0 - - - 0;
#X obj 45 91 change;
#X floatatom 46 141 5 0 0 0 - - - 0;
#X obj 45 160 t b;
#X obj 36 221 outlet;
#X obj 45 43 == 2;
#X msg 41 182 label C#;
#X obj 45 119 == 0;
#X connect 0 0 6 0;
#X connect 1 0 2 0;
#X connect 2 0 8 0;
#X connect 3 0 4 0;
#X connect 4 0 7 0;
#X connect 6 0 1 0;
#X connect 7 0 5 0;
#X connect 8 0 3 0;
#X restore 104 304 pd DisplayStepNoteCShp;
#X obj 100 215 int;
#X floatatom 101 236 5 0 0 0 - - - 0;
#N canvas 0 50 450 300 DisplayStepNoteD 0;
#X obj 46 2 inlet;
#X floatatom 45 69 5 0 0 0 - - - 0;
#X obj 45 91 change;
#X obj 45 119 == 1;
#X floatatom 46 141 5 0 0 0 - - - 0;
#X obj 42 161 t b;
#X obj 31 244 outlet;
#X obj 148 148 delay 100;
#X obj 152 198 t b;
#X obj 45 43 == 3;
#X msg 38 196 label D;
#X connect 0 0 9 0;
#X connect 1 0 2 0;
#X connect 2 0 3 0;
#X connect 3 0 4 0;
#X connect 4 0 5 0;
#X connect 5 0 10 0;
#X connect 5 0 7 0;
#X connect 7 0 8 0;
#X connect 8 0 10 0;
#X connect 9 0 1 0;
#X connect 10 0 6 0;
#X restore 122 327 pd DisplayStepNoteD;
#N canvas -6 268 450 300 DisplayStepNoteDShp 0;
#X obj 46 2 inlet;
#X floatatom 45 69 5 0 0 0 - - - 0;
#X obj 45 91 change;
#X floatatom 46 141 5 0 0 0 - - - 0;
#X obj 45 160 t b;
#X obj 36 221 outlet;
#X obj 45 119 == 0;
#X obj 46 43 == 4;
#X msg 41 182 label D#;
#X connect 0 0 7 0;
#X connect 1 0 2 0;
#X connect 2 0 6 0;
#X connect 3 0 4 0;
#X connect 4 0 8 0;
#X connect 6 0 3 0;
#X connect 7 0 1 0;
#X connect 8 0 5 0;
#X restore 138 347 pd DisplayStepNoteDShp;
#N canvas 0 50 450 300 DisplayStepNoteE 0;
#X obj 46 2 inlet;
#X floatatom 45 69 5 0 0 0 - - - 0;
#X obj 45 91 change;
#X obj 45 119 == 1;
#X floatatom 46 141 5 0 0 0 - - - 0;
#X obj 42 161 t b;
#X obj 31 244 outlet;
#X obj 148 148 delay 100;
#X obj 152 198 t b;
#X obj 45 43 == 5;
#X msg 38 196 label E;
#X connect 0 0 9 0;
#X connect 1 0 2 0;
#X connect 2 0 3 0;
#X connect 3 0 4 0;
#X connect 4 0 5 0;
#X connect 5 0 10 0;
#X connect 5 0 7 0;
#X connect 7 0 8 0;
#X connect 8 0 10 0;
#X connect 9 0 1 0;
#X connect 10 0 6 0;
#X restore 151 370 pd DisplayStepNoteE;
#N canvas 0 50 450 300 DisplayStepNoteF 0;
#X obj 46 2 inlet;
#X floatatom 45 69 5 0 0 0 - - - 0;
#X obj 45 91 change;
#X obj 45 119 == 1;
#X floatatom 46 141 5 0 0 0 - - - 0;
#X obj 42 161 t b;
#X obj 31 244 outlet;
#X obj 148 148 delay 100;
#X obj 152 198 t b;
#X msg 38 196 label F;
#X obj 45 43 == 6;
#X connect 0 0 10 0;
#X connect 1 0 2 0;
#X connect 2 0 3 0;
#X connect 3 0 4 0;
#X connect 4 0 5 0;
#X connect 5 0 9 0;
#X connect 5 0 7 0;
#X connect 7 0 8 0;
#X connect 8 0 9 0;
#X connect 9 0 6 0;
#X connect 10 0 1 0;
#X restore 159 390 pd DisplayStepNoteF;
#N canvas -6 268 450 300 DisplayStepNoteGShp 0;
#X obj 46 2 inlet;
#X floatatom 45 69 5 0 0 0 - - - 0;
#X obj 45 91 change;
#X floatatom 46 141 5 0 0 0 - - - 0;
#X obj 45 160 t b;
#X obj 36 221 outlet;
#X obj 45 119 == 0;
#X msg 41 182 label G#;
#X obj 45 43 == 9;
#X connect 0 0 8 0;
#X connect 1 0 2 0;
#X connect 2 0 6 0;
#X connect 3 0 4 0;
#X connect 4 0 7 0;
#X connect 6 0 3 0;
#X connect 7 0 5 0;
#X connect 8 0 1 0;
#X restore 193 456 pd DisplayStepNoteGShp;
#N canvas 0 50 450 300 DisplayStepNoteG 0;
#X obj 46 2 inlet;
#X floatatom 45 69 5 0 0 0 - - - 0;
#X obj 45 91 change;
#X obj 45 119 == 1;
#X floatatom 46 141 5 0 0 0 - - - 0;
#X obj 42 161 t b;
#X obj 31 244 outlet;
#X obj 148 148 delay 100;
#X obj 152 198 t b;
#X obj 45 43 == 8;
#X msg 38 196 label G;
#X connect 0 0 9 0;
#X connect 1 0 2 0;
#X connect 2 0 3 0;
#X connect 3 0 4 0;
#X connect 4 0 5 0;
#X connect 5 0 10 0;
#X connect 5 0 7 0;
#X connect 7 0 8 0;
#X connect 8 0 10 0;
#X connect 9 0 1 0;
#X connect 10 0 6 0;
#X restore 189 435 pd DisplayStepNoteG;
#N canvas 0 50 450 300 DisplayStepNoteA 0;
#X obj 46 2 inlet;
#X floatatom 45 69 5 0 0 0 - - - 0;
#X obj 45 91 change;
#X obj 45 119 == 1;
#X floatatom 46 141 5 0 0 0 - - - 0;
#X obj 42 161 t b;
#X obj 31 244 outlet;
#X obj 148 148 delay 100;
#X obj 152 198 t b;
#X msg 38 196 label A;
#X obj 45 43 == 10;
#X connect 0 0 10 0;
#X connect 1 0 2 0;
#X connect 2 0 3 0;
#X connect 3 0 4 0;
#X connect 4 0 5 0;
#X connect 5 0 9 0;
#X connect 5 0 7 0;
#X connect 7 0 8 0;
#X connect 8 0 9 0;
#X connect 9 0 6 0;
#X connect 10 0 1 0;
#X restore 201 480 pd DisplayStepNoteA;
#N canvas -6 268 450 300 DisplayStepNoteAShp 0;
#X obj 46 2 inlet;
#X floatatom 45 69 5 0 0 0 - - - 0;
#X obj 45 91 change;
#X floatatom 46 141 5 0 0 0 - - - 0;
#X obj 45 160 t b;
#X obj 36 221 outlet;
#X obj 45 119 == 0;
#X msg 41 182 label A#;
#X obj 45 43 == 11;
#X connect 0 0 8 0;
#X connect 1 0 2 0;
#X connect 2 0 6 0;
#X connect 3 0 4 0;
#X connect 4 0 7 0;
#X connect 6 0 3 0;
#X connect 7 0 5 0;
#X connect 8 0 1 0;
#X restore 222 501 pd DisplayStepNoteAShp;
#N canvas 0 50 450 300 DisplayStepNoteB 0;
#X obj 46 2 inlet;
#X floatatom 45 69 5 0 0 0 - - - 0;
#X obj 45 91 change;
#X obj 45 119 == 1;
#X floatatom 46 141 5 0 0 0 - - - 0;
#X obj 42 161 t b;
#X obj 31 244 outlet;
#X obj 148 148 delay 100;
#X obj 152 198 t b;
#X obj 45 43 == 12;
#X msg 38 196 label B;
#X connect 0 0 9 0;
#X connect 1 0 2 0;
#X connect 2 0 3 0;
#X connect 3 0 4 0;
#X connect 4 0 5 0;
#X connect 5 0 10 0;
#X connect 5 0 7 0;
#X connect 7 0 8 0;
#X connect 8 0 10 0;
#X connect 9 0 1 0;
#X connect 10 0 6 0;
#X restore 237 522 pd DisplayStepNoteB;
#N canvas -6 268 450 300 DisplayStepNoteFShp 0;
#X obj 46 2 inlet;
#X floatatom 45 69 5 0 0 0 - - - 0;
#X obj 45 91 change;
#X floatatom 46 141 5 0 0 0 - - - 0;
#X obj 45 160 t b;
#X obj 36 221 outlet;
#X obj 45 119 == 0;
#X obj 45 43 == 7;
#X msg 41 182 label F#;
#X connect 0 0 7 0;
#X connect 1 0 2 0;
#X connect 2 0 6 0;
#X connect 3 0 4 0;
#X connect 4 0 8 0;
#X connect 6 0 3 0;
#X connect 7 0 1 0;
#X connect 8 0 5 0;
#X restore 169 412 pd DisplayStepNoteFShp;
#X obj 100 255 t f f f f f f f f f f f f;
#X obj 77 19 inlet;
#X obj 89 597 s \$1-octlbl-recv;
#X connect 0 0 1 0;
#X connect 1 0 2 0;
#X connect 2 0 3 0;
#X connect 3 0 4 0;
#X connect 4 0 5 0;
#X connect 5 0 6 0;
#X connect 6 0 9 0;
#X connect 7 0 23 0;
#X connect 8 0 23 0;
#X connect 9 0 10 0;
#X connect 10 0 21 0;
#X connect 11 0 23 0;
#X connect 12 0 23 0;
#X connect 13 0 23 0;
#X connect 14 0 23 0;
#X connect 15 0 23 0;
#X connect 16 0 23 0;
#X connect 17 0 23 0;
#X connect 18 0 23 0;
#X connect 19 0 23 0;
#X connect 20 0 23 0;
#X connect 21 0 7 0;
#X connect 21 1 8 0;
#X connect 21 2 11 0;
#X connect 21 3 12 0;
#X connect 21 4 13 0;
#X connect 21 5 14 0;
#X connect 21 6 20 0;
#X connect 21 7 16 0;
#X connect 21 8 15 0;
#X connect 21 9 17 0;
#X connect 21 10 18 0;
#X connect 21 11 19 0;
#X connect 22 0 0 0;
#X restore 105 889 pd OBCalculateAndShowStepOctaveKey \$1;
#N canvas 0 50 450 300 OBCalculateAndShowSampleKey 0;
#X floatatom 86 56 6 0 0 0 - - - 0;
#X obj 86 80 * 10;
#X floatatom 86 104 5 0 0 0 - - - 0;
#X obj 84 126 int;
#X floatatom 83 147 5 0 0 0 - - - 0;
#X obj 104 168 / 10;
#X floatatom 102 189 5 0 0 0 - - - 0;
#X obj 100 215 int;
#X floatatom 101 236 5 0 0 0 - - - 0;
#X obj 100 255 t f f f f f f f f f f f f;
#X obj 77 19 inlet;
#X obj 89 597 s \$1-keylbl-recv;
#N canvas 0 50 450 300 DisplayKeyNoteC 0;
#X obj 46 2 inlet;
#X obj 45 43 == 1;
#X floatatom 45 69 5 0 0 0 - - - 0;
#X obj 45 91 change;
#X obj 45 119 == 1;
#X floatatom 46 141 5 0 0 0 - - - 0;
#X obj 42 161 t b;
#X obj 31 244 outlet;
#X obj 148 148 delay 100;
#X obj 152 198 t b;
#X msg 38 196 label C;
#X connect 0 0 1 0;
#X connect 1 0 2 0;
#X connect 2 0 3 0;
#X connect 3 0 4 0;
#X connect 4 0 5 0;
#X connect 5 0 6 0;
#X connect 6 0 10 0;
#X connect 6 0 8 0;
#X connect 8 0 9 0;
#X connect 9 0 10 0;
#X connect 10 0 7 0;
#X restore 87 282 pd DisplayKeyNoteC;
#N canvas -6 268 450 300 DisplayKeyNoteCShp 0;
#X obj 46 2 inlet;
#X floatatom 45 69 5 0 0 0 - - - 0;
#X obj 45 91 change;
#X floatatom 46 141 5 0 0 0 - - - 0;
#X obj 45 160 t b;
#X obj 36 221 outlet;
#X obj 45 43 == 2;
#X obj 45 119 == 0;
#X msg 41 182 label Key:C#;
#X connect 0 0 6 0;
#X connect 1 0 2 0;
#X connect 2 0 7 0;
#X connect 3 0 4 0;
#X connect 4 0 8 0;
#X connect 6 0 1 0;
#X connect 7 0 3 0;
#X connect 8 0 5 0;
#X restore 104 304 pd DisplayKeyNoteCShp;
#N canvas 0 50 450 300 DisplayKeyNoteD 0;
#X obj 46 2 inlet;
#X floatatom 45 69 5 0 0 0 - - - 0;
#X obj 45 91 change;
#X obj 45 119 == 1;
#X floatatom 46 141 5 0 0 0 - - - 0;
#X obj 42 161 t b;
#X obj 31 244 outlet;
#X obj 148 148 delay 100;
#X obj 152 198 t b;
#X obj 45 43 == 3;
#X msg 38 196 label Key:D;
#X connect 0 0 9 0;
#X connect 1 0 2 0;
#X connect 2 0 3 0;
#X connect 3 0 4 0;
#X connect 4 0 5 0;
#X connect 5 0 10 0;
#X connect 5 0 7 0;
#X connect 7 0 8 0;
#X connect 8 0 10 0;
#X connect 9 0 1 0;
#X connect 10 0 6 0;
#X restore 122 327 pd DisplayKeyNoteD;
#N canvas -6 268 450 300 DisplayKeyNoteDShp 0;
#X obj 46 2 inlet;
#X floatatom 45 69 5 0 0 0 - - - 0;
#X obj 45 91 change;
#X floatatom 46 141 5 0 0 0 - - - 0;
#X obj 45 160 t b;
#X obj 36 221 outlet;
#X obj 45 119 == 0;
#X obj 46 43 == 4;
#X msg 41 182 label Key:D#;
#X connect 0 0 7 0;
#X connect 1 0 2 0;
#X connect 2 0 6 0;
#X connect 3 0 4 0;
#X connect 4 0 8 0;
#X connect 6 0 3 0;
#X connect 7 0 1 0;
#X connect 8 0 5 0;
#X restore 138 347 pd DisplayKeyNoteDShp;
#N canvas 0 50 450 300 DisplayKeyNoteE 0;
#X obj 46 2 inlet;
#X floatatom 45 69 5 0 0 0 - - - 0;
#X obj 45 91 change;
#X obj 45 119 == 1;
#X floatatom 46 141 5 0 0 0 - - - 0;
#X obj 42 161 t b;
#X obj 31 244 outlet;
#X obj 82 155 delay 100;
#X obj 81 176 t b;
#X obj 45 43 == 5;
#X msg 38 196 label Key:E;
#X connect 0 0 9 0;
#X connect 1 0 2 0;
#X connect 2 0 3 0;
#X connect 3 0 4 0;
#X connect 4 0 5 0;
#X connect 5 0 10 0;
#X connect 5 0 7 0;
#X connect 7 0 8 0;
#X connect 8 0 10 0;
#X connect 9 0 1 0;
#X connect 10 0 6 0;
#X restore 151 370 pd DisplayKeyNoteE;
#N canvas 0 50 450 300 DisplayKeypNoteF 0;
#X obj 46 2 inlet;
#X floatatom 45 69 5 0 0 0 - - - 0;
#X obj 45 91 change;
#X obj 45 119 == 1;
#X floatatom 46 141 5 0 0 0 - - - 0;
#X obj 42 161 t b;
#X obj 31 244 outlet;
#X obj 85 150 delay 100;
#X obj 87 174 t b;
#X obj 45 43 == 6;
#X msg 38 196 label Key:F;
#X connect 0 0 9 0;
#X connect 1 0 2 0;
#X connect 2 0 3 0;
#X connect 3 0 4 0;
#X connect 4 0 5 0;
#X connect 5 0 10 0;
#X connect 5 0 7 0;
#X connect 7 0 8 0;
#X connect 8 0 10 0;
#X connect 9 0 1 0;
#X connect 10 0 6 0;
#X restore 159 390 pd DisplayKeypNoteF;
#N canvas -6 268 450 300 DisplayKeyNoteFShp 0;
#X obj 46 2 inlet;
#X floatatom 45 69 5 0 0 0 - - - 0;
#X obj 45 91 change;
#X floatatom 46 141 5 0 0 0 - - - 0;
#X obj 45 160 t b;
#X obj 36 221 outlet;
#X obj 45 119 == 0;
#X obj 45 43 == 7;
#X msg 41 182 label F#;
#X connect 0 0 7 0;
#X connect 1 0 2 0;
#X connect 2 0 6 0;
#X connect 3 0 4 0;
#X connect 4 0 8 0;
#X connect 6 0 3 0;
#X connect 7 0 1 0;
#X connect 8 0 5 0;
#X restore 169 411 pd DisplayKeyNoteFShp;
#N canvas 0 50 450 300 DisplayKeyNoteG 0;
#X obj 46 2 inlet;
#X floatatom 45 69 5 0 0 0 - - - 0;
#X obj 45 91 change;
#X obj 45 119 == 1;
#X floatatom 46 141 5 0 0 0 - - - 0;
#X obj 42 161 t b;
#X obj 31 244 outlet;
#X obj 91 149 delay 100;
#X obj 91 170 t b;
#X obj 45 43 == 8;
#X msg 38 196 label Key:G;
#X connect 0 0 9 0;
#X connect 1 0 2 0;
#X connect 2 0 3 0;
#X connect 3 0 4 0;
#X connect 4 0 5 0;
#X connect 5 0 10 0;
#X connect 5 0 7 0;
#X connect 7 0 8 0;
#X connect 8 0 10 0;
#X connect 9 0 1 0;
#X connect 10 0 6 0;
#X restore 189 435 pd DisplayKeyNoteG;
#N canvas 248 292 450 300 DisplayKeyNoteGShp 0;
#X obj 46 2 inlet;
#X floatatom 45 69 5 0 0 0 - - - 0;
#X obj 45 91 change;
#X floatatom 46 141 5 0 0 0 - - - 0;
#X obj 45 160 t b;
#X obj 36 221 outlet;
#X obj 45 119 == 0;
#X obj 45 43 == 9;
#X msg 37 194 label Key:G#;
#X obj 148 148 delay 100;
#X obj 152 198 t b;
#X connect 0 0 7 0;
#X connect 1 0 2 0;
#X connect 2 0 6 0;
#X connect 3 0 4 0;
#X connect 4 0 8 0;
#X connect 4 0 9 0;
#X connect 6 0 3 0;
#X connect 7 0 1 0;
#X connect 8 0 5 0;
#X connect 9 0 10 0;
#X connect 10 0 8 0;
#X restore 193 456 pd DisplayKeyNoteGShp;
#N canvas 0 50 450 300 DisplayKeyNoteA 0;
#X obj 46 2 inlet;
#X floatatom 45 69 5 0 0 0 - - - 0;
#X obj 45 91 change;
#X obj 45 119 == 1;
#X floatatom 46 141 5 0 0 0 - - - 0;
#X obj 42 161 t b;
#X obj 31 244 outlet;
#X obj 91 150 delay 100;
#X obj 91 169 t b;
#X obj 45 43 == 10;
#X msg 38 196 label Key:A;
#X connect 0 0 9 0;
#X connect 1 0 2 0;
#X connect 2 0 3 0;
#X connect 3 0 4 0;
#X connect 4 0 5 0;
#X connect 5 0 10 0;
#X connect 5 0 7 0;
#X connect 7 0 8 0;
#X connect 8 0 10 0;
#X connect 9 0 1 0;
#X connect 10 0 6 0;
#X restore 201 480 pd DisplayKeyNoteA;
#N canvas -6 268 450 300 DisplayKeyNoteAShp 0;
#X obj 46 2 inlet;
#X floatatom 45 69 5 0 0 0 - - - 0;
#X obj 45 91 change;
#X floatatom 46 141 5 0 0 0 - - - 0;
#X obj 45 160 t b;
#X obj 36 221 outlet;
#X obj 45 119 == 0;
#X msg 43 187 label A#;
#X obj 45 43 == 11;
#X obj 92 135 delay 100;
#X obj 91 162 t b;
#X connect 0 0 8 0;
#X connect 1 0 2 0;
#X connect 2 0 6 0;
#X connect 3 0 4 0;
#X connect 4 0 7 0;
#X connect 4 0 9 0;
#X connect 6 0 3 0;
#X connect 7 0 5 0;
#X connect 8 0 1 0;
#X connect 9 0 10 0;
#X connect 10 0 7 0;
#X restore 222 501 pd DisplayKeyNoteAShp;
#N canvas 0 50 450 300 DisplayKeyNoteB 0;
#X obj 46 2 inlet;
#X floatatom 45 69 5 0 0 0 - - - 0;
#X obj 45 91 change;
#X obj 45 119 == 1;
#X floatatom 46 141 5 0 0 0 - - - 0;
#X obj 42 161 t b;
#X obj 31 244 outlet;
#X obj 90 148 delay 100;
#X obj 91 171 t b;
#X obj 45 43 == 12;
#X msg 38 196 label Key:B;
#X connect 0 0 9 0;
#X connect 1 0 2 0;
#X connect 2 0 3 0;
#X connect 3 0 4 0;
#X connect 4 0 5 0;
#X connect 5 0 10 0;
#X connect 5 0 7 0;
#X connect 7 0 8 0;
#X connect 8 0 10 0;
#X connect 9 0 1 0;
#X connect 10 0 6 0;
#X restore 237 522 pd DisplayKeyNoteB;
#X connect 0 0 1 0;
#X connect 1 0 2 0;
#X connect 2 0 3 0;
#X connect 3 0 4 0;
#X connect 4 0 5 0;
#X connect 5 0 6 0;
#X connect 6 0 7 0;
#X connect 7 0 8 0;
#X connect 8 0 9 0;
#X connect 9 0 12 0;
#X connect 9 1 13 0;
#X connect 9 2 14 0;
#X connect 9 3 15 0;
#X connect 9 4 16 0;
#X connect 9 5 17 0;
#X connect 9 6 18 0;
#X connect 9 7 19 0;
#X connect 9 8 20 0;
#X connect 9 9 21 0;
#X connect 9 10 22 0;
#X connect 9 11 23 0;
#X connect 10 0 0 0;
#X connect 12 0 11 0;
#X connect 13 0 11 0;
#X connect 14 0 11 0;
#X connect 15 0 11 0;
#X connect 16 0 11 0;
#X connect 17 0 11 0;
#X connect 18 0 11 0;
#X connect 19 0 11 0;
#X connect 20 0 11 0;
#X connect 21 0 11 0;
#X connect 22 0 11 0;
#X connect 23 0 11 0;
#X restore 107 864 pd OBCalculateAndShowSampleKey \$1;
#N canvas 646 77 790 300 \$1-getvolume 0;
#X msg 193 202 symbol volume-\$1;
#X obj 115 237 f;
#X msg 115 264 set \$1;
#X obj 115 290 s;
#X obj 152 228 symbol;
#X obj 232 76 r \$1-perbankid;
#X obj 71 50 inlet;
#X floatatom 170 264 5 0 0 0 - - - 0;
#X text 77 308 Track Volume;
#X obj 171 282 t f;
#X obj 153 158 t b f;
#X msg 153 203 bang;
#X floatatom 153 137 5 0 0 0 - - - 0;
#X obj 118 38 r \$1-samVol;
#X obj 153 113 \$1;
#X obj 118 61 t b f;
#X obj 205 107 loadbang;
#X obj 170 307 s seqvolume;
#X obj 82 195 del 10;
#X connect 0 0 4 1;
#X connect 1 0 2 0;
#X connect 1 0 7 0;
#X connect 2 0 3 0;
#X connect 4 0 3 1;
#X connect 6 0 18 0;
#X connect 7 0 9 0;
#X connect 9 0 17 0;
#X connect 10 0 11 0;
#X connect 10 1 0 0;
#X connect 11 0 4 0;
#X connect 12 0 10 0;
#X connect 13 0 15 0;
#X connect 14 0 12 0;
#X connect 15 1 1 1;
#X connect 16 0 14 0;
#X connect 18 0 1 0;
#X restore 367 318 pd \$1-getvolume \$1;
#X obj 126 546 *~;
#X obj 286 118 t f b f f;
#X obj 18 194 s \$1-trknum;
#X msg 215 400 transpose \$1;
#X floatatom 215 375 5 0 0 0 - - - 0;
#X floatatom 266 447 5 0 0 0 - - - 0;
#X msg 266 467 window \$1;
#X floatatom 253 514 5 0 0 0 - - - 0;
#X msg 253 533 delay \$1;
#X obj 126 492 pitchshifter_;
#X msg 267 425 0;
#X msg 200 351 0;
#X msg 253 490 0;
#X obj 22 464 spigot 0;
#X obj 76 387 change;
#X obj 75 441 tgl 15 0 empty empty empty 17 7 0 10 #fcfcfc #000000
#000000 0 1;
#X floatatom 77 359 5 0 0 0 - - - 0;
#X obj 76 415 == 0;
#X obj 557 297 r \$1-trknum;
#X obj 539 320 f;
#N canvas -76 101 1920 997 \$1-processallvelocities 0;
#X obj 335 543 f;
#X obj 533 539 f;
#X obj 699 569 f;
#X obj 844 555 f;
#X obj 985 550 f;
#X obj 1134 548 f;
#X obj 1292 548 f;
#X obj 1460 545 f;
#X obj 1622 551 f;
#X obj 1770 536 f;
#X obj 1920 541 f;
#X obj 2079 538 f;
#X obj 2232 536 f;
#X obj 2389 543 f;
#X obj 2539 547 f;
#X obj 783 12 loadbang;
#X obj 784 39 \$1;
#X msg 780 66 \$1;
#X floatatom 821 149 5 0 0 0 - - - 0;
#X obj 821 173 t b f;
#X obj 822 199 f;
#X obj 769 102 t b f;
#X obj 836 86 inlet;
#X obj 376 61 r \$1-currentstepvel1;
#X obj 447 92 r \$1-currentstepvel2;
#X obj 465 112 r \$1-currentstepvel3;
#X obj 485 138 r \$1-currentstepvel4;
#X obj 505 162 r \$1-currentstepvel5;
#X obj 516 190 r \$1-currentstepvel6;
#X obj 526 216 r \$1-currentstepvel7;
#X obj 539 239 r \$1-currentstepvel8;
#X obj 549 261 r \$1-currentstepvel9;
#X obj 569 282 r \$1-currentstepvel10;
#X obj 579 307 r \$1-currentstepvel11;
#X obj 592 331 r \$1-currentstepvel12;
#X obj 602 355 r \$1-currentstepvel13;
#X obj 612 377 r \$1-currentstepvel14;
#X obj 622 401 r \$1-currentstepvel15;
#X obj 2538 517 t b f;
#X obj 2386 511 t b f;
#X obj 2229 504 t b f;
#X obj 2076 507 t b f;
#X obj 1917 510 t b f;
#X obj 1765 505 t b f;
#X obj 1626 503 t b f;
#X obj 1458 513 t b f;
#X obj 1290 516 t b f;
#X obj 1133 521 t b f;
#X obj 980 518 t b f;
#X obj 840 521 t b f;
#X obj 695 535 t b f;
#X obj 531 504 t b f;
#X obj 333 508 t b f;
#X obj 706 13 inlet;
#X obj 683 142 ==;
#X obj 821 260 s \$1-onstep;
#X obj 2603 504 r \$1-onstep;
#X obj 2543 689 spigot 0;
#X obj 2607 670 tgl 15 0 empty empty empty 17 7 0 10 #fcfcfc #000000
#000000 0 1;
#X obj 2607 560 == 1;
#X obj 2607 585 change;
#X obj 2605 534 == 15;
#X obj 2448 505 r \$1-onstep;
#X obj 2388 690 spigot 0;
#X obj 2452 671 tgl 15 0 empty empty empty 17 7 0 10 #fcfcfc #000000
#000000 0 1;
#X obj 2452 561 == 1;
#X obj 2452 586 change;
#X obj 2450 535 == 14;
#X obj 2292 502 r \$1-onstep;
#X obj 2232 687 spigot 0;
#X obj 2296 668 tgl 15 0 empty empty empty 17 7 0 10 #fcfcfc #000000
#000000 0 1;
#X obj 2296 558 == 1;
#X obj 2296 583 change;
#X obj 2294 532 == 13;
#X obj 2138 509 r \$1-onstep;
#X obj 2078 694 spigot 0;
#X obj 2142 675 tgl 15 0 empty empty empty 17 7 0 10 #fcfcfc #000000
#000000 0 1;
#X obj 2142 565 == 1;
#X obj 2142 590 change;
#X obj 2140 539 == 12;
#X obj 1984 507 r \$1-onstep;
#X obj 1924 692 spigot 0;
#X obj 1988 673 tgl 15 0 empty empty empty 17 7 0 10 #fcfcfc #000000
#000000 0 1;
#X obj 1988 563 == 1;
#X obj 1988 588 change;
#X obj 1826 509 r \$1-onstep;
#X obj 1766 694 spigot 0;
#X obj 1830 675 tgl 15 0 empty empty empty 17 7 0 10 #fcfcfc #000000
#000000 0 1;
#X obj 1830 565 == 1;
#X obj 1830 590 change;
#X obj 1987 536 == 11;
#X obj 1828 539 == 10;
#X obj 1680 510 r \$1-onstep;
#X obj 1620 695 spigot 0;
#X obj 1684 676 tgl 15 0 empty empty empty 17 7 0 10 #fcfcfc #000000
#000000 0 1;
#X obj 1684 566 == 1;
#X obj 1684 591 change;
#X obj 1520 514 r \$1-onstep;
#X obj 1460 699 spigot 0;
#X obj 1524 680 tgl 15 0 empty empty empty 17 7 0 10 #fcfcfc #000000
#000000 0 1;
#X obj 1524 570 == 1;
#X obj 1524 595 change;
#X obj 1345 515 r \$1-onstep;
#X obj 1285 700 spigot 0;
#X obj 1349 681 tgl 15 0 empty empty empty 17 7 0 10 #fcfcfc #000000
#000000 0 1;
#X obj 1349 571 == 1;
#X obj 1349 596 change;
#X obj 1682 540 == 9;
#X obj 1522 544 == 8;
#X obj 1347 545 == 7;
#X obj 1194 518 r \$1-onstep;
#X obj 1134 703 spigot 0;
#X obj 1198 684 tgl 15 0 empty empty empty 17 7 0 10 #fcfcfc #000000
#000000 0 1;
#X obj 1198 574 == 1;
#X obj 1198 599 change;
#X obj 1042 518 r \$1-onstep;
#X obj 982 703 spigot 0;
#X obj 1046 684 tgl 15 0 empty empty empty 17 7 0 10 #fcfcfc #000000
#000000 0 1;
#X obj 1046 574 == 1;
#X obj 1046 599 change;
#X obj 888 526 r \$1-onstep;
#X obj 828 711 spigot 0;
#X obj 892 692 tgl 15 0 empty empty empty 17 7 0 10 #fcfcfc #000000
#000000 0 1;
#X obj 892 582 == 1;
#X obj 892 607 change;
#X obj 733 523 r \$1-onstep;
#X obj 676 707 spigot 0;
#X obj 740 688 tgl 15 0 empty empty empty 17 7 0 10 #fcfcfc #000000
#000000 0 1;
#X obj 737 579 == 1;
#X obj 737 604 change;
#X obj 620 502 r \$1-onstep;
#X obj 544 707 spigot 0;
#X obj 599 684 tgl 15 0 empty empty empty 17 7 0 10 #fcfcfc #000000
#000000 0 1;
#X obj 595 580 == 1;
#X obj 595 605 change;
#X obj 397 517 r \$1-onstep;
#X obj 336 709 spigot 0;
#X obj 431 674 tgl 15 0 empty empty empty 17 7 0 10 #fcfcfc #000000
#000000 0 1;
#X obj 400 576 == 1;
#X obj 400 601 change;
#X obj 1196 548 == 6;
#X obj 1044 548 == 5;
#X obj 890 556 == 4;
#X obj 735 553 == 3;
#X obj 593 554 == 2;
#X obj 398 550 == 1;
#X obj 400 625 == 1;
#X obj 595 628 == 1;
#X obj 737 628 == 1;
#X obj 894 632 == 1;
#X obj 1046 623 == 1;
#X obj 1198 623 == 1;
#X obj 1349 620 == 1;
#X obj 1524 619 == 1;
#X obj 1684 615 == 1;
#X obj 1830 614 == 1;
#X obj 1988 612 == 1;
#X obj 2142 614 == 1;
#X obj 2296 607 == 1;
#X obj 398 649 t b f;
#X obj 597 659 t b f;
#X obj 737 657 t b f;
#X obj 893 658 t b f;
#X obj 1044 653 t b f;
#X obj 1195 648 t b f;
#X obj 1352 645 t b f;
#X obj 1524 644 t b f;
#X obj 1678 645 t b f;
#X obj 1831 645 t b f;
#X obj 1986 642 t b f;
#X obj 2139 643 t b f;
#X obj 2295 637 t b f;
#X obj 2454 642 t b f;
#X obj 2608 639 t b f;
#X obj 2452 610 == 1;
#X obj 2607 609 == 1;
#X floatatom 335 734 5 0 0 0 - - - 0;
#X floatatom 357 619 5 0 0 0 - - - 0;
#X floatatom 549 738 5 0 0 0 - - - 0;
#X floatatom 677 738 5 0 0 0 - - - 0;
#X floatatom 830 744 5 0 0 0 - - - 0;
#X floatatom 980 738 5 0 0 0 - - - 0;
#X floatatom 1141 737 5 0 0 0 - - - 0;
#X floatatom 1303 734 5 0 0 0 - - - 0;
#X floatatom 1462 729 5 0 0 0 - - - 0;
#X floatatom 1619 725 5 0 0 0 - - - 0;
#X floatatom 1764 725 5 0 0 0 - - - 0;
#X floatatom 1920 736 5 0 0 0 - - - 0;
#X floatatom 2082 733 5 0 0 0 - - - 0;
#X floatatom 2241 728 5 0 0 0 - - - 0;
#X floatatom 2398 724 5 0 0 0 - - - 0;
#X floatatom 2543 724 5 0 0 0 - - - 0;
#X floatatom 1776 590 5 0 0 0 - - - 0;
#X floatatom 683 173 5 0 0 0 - - - 0;
#X obj 1523 949 outlet;
#X obj 887 215 + 1;
#X obj 629 432 r \$1-currentstepvel16;
#X obj 161 403 f;
#X obj 159 368 t b f;
#X obj 222 374 r \$1-onstep;
#X obj 162 569 spigot 0;
#X obj 257 534 tgl 15 0 empty empty empty 17 7 0 10 #fcfcfc #000000
#000000 0 1;
#X obj 226 436 == 1;
#X obj 226 461 change;
#X obj 226 485 == 1;
#X obj 224 509 t b f;
#X floatatom 161 594 5 0 0 0 - - - 0;
#X floatatom 183 479 5 0 0 0 - - - 0;
#X obj 159 329 r \$1-currentstepvel0;
#X obj 630 460 r \$1-currentstepvel0;
#X obj 224 410 == 0;
#X connect 0 0 136 0;
#X connect 0 0 177 0;
#X connect 1 0 131 0;
#X connect 2 0 126 0;
#X connect 3 0 121 0;
#X connect 4 0 116 0;
#X connect 5 0 111 0;
#X connect 6 0 103 0;
#X connect 7 0 98 0;
#X connect 8 0 93 0;
#X connect 9 0 86 0;
#X connect 9 0 192 0;
#X connect 10 0 81 0;
#X connect 11 0 75 0;
#X connect 12 0 69 0;
#X connect 13 0 63 0;
#X connect 14 0 57 0;
#X connect 15 0 16 0;
#X connect 16 0 17 0;
#X connect 17 0 21 0;
#X connect 17 0 54 1;
#X connect 18 0 19 0;
#X connect 19 0 20 0;
#X connect 19 1 20 1;
#X connect 20 0 55 0;
#X connect 22 0 18 0;
#X connect 23 0 52 0;
#X connect 24 0 51 0;
#X connect 25 0 50 0;
#X connect 26 0 49 0;
#X connect 27 0 48 0;
#X connect 28 0 47 0;
#X connect 29 0 46 0;
#X connect 30 0 45 0;
#X connect 31 0 44 0;
#X connect 32 0 43 0;
#X connect 33 0 42 0;
#X connect 34 0 41 0;
#X connect 35 0 40 0;
#X connect 36 0 39 0;
#X connect 37 0 38 0;
#X connect 38 0 14 0;
#X connect 38 1 14 1;
#X connect 39 0 13 0;
#X connect 39 1 13 1;
#X connect 40 0 12 0;
#X connect 40 1 12 1;
#X connect 41 0 11 0;
#X connect 41 1 11 1;
#X connect 42 0 10 0;
#X connect 42 1 10 1;
#X connect 43 0 9 0;
#X connect 43 1 9 1;
#X connect 44 0 8 0;
#X connect 44 1 8 1;
#X connect 45 0 7 0;
#X connect 45 1 7 1;
#X connect 46 0 6 0;
#X connect 46 1 6 1;
#X connect 47 0 5 0;
#X connect 47 1 5 1;
#X connect 48 0 4 0;
#X connect 48 1 4 1;
#X connect 49 0 3 0;
#X connect 49 1 3 1;
#X connect 50 0 2 0;
#X connect 50 1 2 1;
#X connect 51 0 1 0;
#X connect 51 1 1 1;
#X connect 52 0 0 0;
#X connect 52 1 0 1;
#X connect 53 0 54 0;
#X connect 54 0 193 0;
#X connect 56 0 61 0;
#X connect 57 0 191 0;
#X connect 58 0 57 1;
#X connect 59 0 60 0;
#X connect 60 0 175 0;
#X connect 61 0 59 0;
#X connect 62 0 67 0;
#X connect 63 0 190 0;
#X connect 64 0 63 1;
#X connect 65 0 66 0;
#X connect 66 0 174 0;
#X connect 67 0 65 0;
#X connect 68 0 73 0;
#X connect 69 0 189 0;
#X connect 70 0 69 1;
#X connect 71 0 72 0;
#X connect 72 0 158 0;
#X connect 73 0 71 0;
#X connect 74 0 79 0;
#X connect 75 0 188 0;
#X connect 76 0 75 1;
#X connect 77 0 78 0;
#X connect 78 0 157 0;
#X connect 79 0 77 0;
#X connect 80 0 90 0;
#X connect 81 0 187 0;
#X connect 82 0 81 1;
#X connect 83 0 84 0;
#X connect 84 0 156 0;
#X connect 85 0 91 0;
#X connect 86 0 186 0;
#X connect 87 0 86 1;
#X connect 88 0 89 0;
#X connect 89 0 155 0;
#X connect 90 0 83 0;
#X connect 91 0 88 0;
#X connect 92 0 107 0;
#X connect 93 0 185 0;
#X connect 94 0 93 1;
#X connect 95 0 96 0;
#X connect 96 0 154 0;
#X connect 97 0 108 0;
#X connect 98 0 184 0;
#X connect 99 0 98 1;
#X connect 100 0 101 0;
#X connect 101 0 153 0;
#X connect 102 0 109 0;
#X connect 103 0 183 0;
#X connect 104 0 103 1;
#X connect 105 0 106 0;
#X connect 106 0 152 0;
#X connect 107 0 95 0;
#X connect 108 0 100 0;
#X connect 109 0 105 0;
#X connect 110 0 140 0;
#X connect 111 0 182 0;
#X connect 112 0 111 1;
#X connect 113 0 114 0;
#X connect 114 0 151 0;
#X connect 115 0 141 0;
#X connect 116 0 181 0;
#X connect 117 0 116 1;
#X connect 118 0 119 0;
#X connect 119 0 150 0;
#X connect 120 0 142 0;
#X connect 121 0 180 0;
#X connect 122 0 121 1;
#X connect 123 0 124 0;
#X connect 124 0 149 0;
#X connect 125 0 143 0;
#X connect 126 0 179 0;
#X connect 127 0 126 1;
#X connect 128 0 129 0;
#X connect 129 0 148 0;
#X connect 130 0 144 0;
#X connect 131 0 178 0;
#X connect 132 0 131 1;
#X connect 133 0 134 0;
#X connect 134 0 147 0;
#X connect 135 0 145 0;
#X connect 136 0 176 0;
#X connect 137 0 136 1;
#X connect 138 0 139 0;
#X connect 139 0 146 0;
#X connect 140 0 113 0;
#X connect 141 0 118 0;
#X connect 142 0 123 0;
#X connect 143 0 128 0;
#X connect 144 0 133 0;
#X connect 145 0 138 0;
#X connect 146 0 159 0;
#X connect 147 0 160 0;
#X connect 148 0 161 0;
#X connect 149 0 162 0;
#X connect 150 0 163 0;
#X connect 151 0 164 0;
#X connect 152 0 165 0;
#X connect 153 0 166 0;
#X connect 154 0 167 0;
#X connect 155 0 168 0;
#X connect 156 0 169 0;
#X connect 157 0 170 0;
#X connect 158 0 171 0;
#X connect 159 0 0 0;
#X connect 159 1 137 0;
#X connect 160 0 1 0;
#X connect 160 1 132 0;
#X connect 161 0 2 0;
#X connect 161 1 127 0;
#X connect 162 0 3 0;
#X connect 162 1 122 0;
#X connect 163 0 4 0;
#X connect 163 1 117 0;
#X connect 164 0 5 0;
#X connect 164 1 112 0;
#X connect 165 0 6 0;
#X connect 165 1 104 0;
#X connect 166 0 7 0;
#X connect 166 1 99 0;
#X connect 167 0 8 0;
#X connect 167 1 94 0;
#X connect 168 0 9 0;
#X connect 168 1 87 0;
#X connect 169 0 10 0;
#X connect 169 1 82 0;
#X connect 170 0 11 0;
#X connect 170 1 76 0;
#X connect 171 0 12 0;
#X connect 171 1 70 0;
#X connect 172 0 13 0;
#X connect 172 1 64 0;
#X connect 173 0 14 0;
#X connect 173 1 58 0;
#X connect 174 0 172 0;
#X connect 175 0 173 0;
#X connect 176 0 194 0;
#X connect 178 0 194 0;
#X connect 179 0 194 0;
#X connect 180 0 194 0;
#X connect 181 0 194 0;
#X connect 182 0 194 0;
#X connect 183 0 194 0;
#X connect 184 0 194 0;
#X connect 185 0 194 0;
#X connect 186 0 194 0;
#X connect 187 0 194 0;
#X connect 188 0 194 0;
#X connect 189 0 194 0;
#X connect 190 0 194 0;
#X connect 191 0 194 0;
#X connect 195 0 55 0;
#X connect 197 0 200 0;
#X connect 197 0 207 0;
#X connect 198 0 197 0;
#X connect 198 1 197 1;
#X connect 199 0 210 0;
#X connect 200 0 206 0;
#X connect 201 0 200 1;
#X connect 202 0 203 0;
#X connect 203 0 204 0;
#X connect 204 0 205 0;
#X connect 205 0 197 0;
#X connect 205 1 201 0;
#X connect 206 0 194 0;
#X connect 208 0 198 0;
#X connect 210 0 202 0;
#X restore 539 344 pd \$1-processallvelocities \$1;
#X obj 739 315 r currentstep;
#X floatatom 772 343 5 0 0 0 - - - 0;
#N canvas 96 11 1527 1041 \$1-processallpitches 0;
#X obj 335 543 f;
#X obj 533 539 f;
#X obj 699 569 f;
#X obj 844 555 f;
#X obj 985 550 f;
#X obj 1134 548 f;
#X obj 1292 548 f;
#X obj 1460 545 f;
#X obj 1622 551 f;
#X obj 1770 536 f;
#X obj 1920 541 f;
#X obj 2079 538 f;
#X obj 2232 536 f;
#X obj 2389 543 f;
#X obj 2539 547 f;
#X obj 783 12 loadbang;
#X obj 784 39 \$1;
#X msg 780 66 \$1;
#X floatatom 821 149 5 0 0 0 - - - 0;
#X obj 821 173 t b f;
#X obj 822 199 f;
#X obj 769 102 t b f;
#X obj 836 86 inlet;
#X obj 2538 517 t b f;
#X obj 2386 511 t b f;
#X obj 2229 504 t b f;
#X obj 2076 507 t b f;
#X obj 1917 510 t b f;
#X obj 1765 505 t b f;
#X obj 1626 503 t b f;
#X obj 1458 513 t b f;
#X obj 1290 516 t b f;
#X obj 1133 521 t b f;
#X obj 980 518 t b f;
#X obj 840 521 t b f;
#X obj 695 535 t b f;
#X obj 531 504 t b f;
#X obj 333 508 t b f;
#X obj 706 13 inlet;
#X obj 683 142 ==;
#X obj 821 260 s \$1-onstep;
#X obj 2603 504 r \$1-onstep;
#X obj 2543 689 spigot 0;
#X obj 2607 670 tgl 15 0 empty empty empty 17 7 0 10 #fcfcfc #000000
#000000 0 1;
#X obj 2607 560 == 1;
#X obj 2607 585 change;
#X obj 2605 534 == 15;
#X obj 2448 505 r \$1-onstep;
#X obj 2388 690 spigot 0;
#X obj 2452 671 tgl 15 0 empty empty empty 17 7 0 10 #fcfcfc #000000
#000000 0 1;
#X obj 2452 561 == 1;
#X obj 2452 586 change;
#X obj 2450 535 == 14;
#X obj 2292 502 r \$1-onstep;
#X obj 2232 687 spigot 0;
#X obj 2296 668 tgl 15 0 empty empty empty 17 7 0 10 #fcfcfc #000000
#000000 0 1;
#X obj 2296 558 == 1;
#X obj 2296 583 change;
#X obj 2294 532 == 13;
#X obj 2138 509 r \$1-onstep;
#X obj 2078 694 spigot 0;
#X obj 2142 675 tgl 15 0 empty empty empty 17 7 0 10 #fcfcfc #000000
#000000 0 1;
#X obj 2142 565 == 1;
#X obj 2142 590 change;
#X obj 2140 539 == 12;
#X obj 1984 507 r \$1-onstep;
#X obj 1924 692 spigot 0;
#X obj 1988 673 tgl 15 0 empty empty empty 17 7 0 10 #fcfcfc #000000
#000000 0 1;
#X obj 1988 563 == 1;
#X obj 1988 588 change;
#X obj 1826 509 r \$1-onstep;
#X obj 1766 694 spigot 0;
#X obj 1830 675 tgl 15 0 empty empty empty 17 7 0 10 #fcfcfc #000000
#000000 0 1;
#X obj 1830 565 == 1;
#X obj 1830 590 change;
#X obj 1987 536 == 11;
#X obj 1828 539 == 10;
#X obj 1680 510 r \$1-onstep;
#X obj 1620 695 spigot 0;
#X obj 1684 676 tgl 15 0 empty empty empty 17 7 0 10 #fcfcfc #000000
#000000 0 1;
#X obj 1684 566 == 1;
#X obj 1684 591 change;
#X obj 1520 514 r \$1-onstep;
#X obj 1460 699 spigot 0;
#X obj 1524 680 tgl 15 0 empty empty empty 17 7 0 10 #fcfcfc #000000
#000000 0 1;
#X obj 1524 570 == 1;
#X obj 1524 595 change;
#X obj 1345 515 r \$1-onstep;
#X obj 1285 700 spigot 0;
#X obj 1349 681 tgl 15 0 empty empty empty 17 7 0 10 #fcfcfc #000000
#000000 0 1;
#X obj 1349 571 == 1;
#X obj 1349 596 change;
#X obj 1682 540 == 9;
#X obj 1522 544 == 8;
#X obj 1347 545 == 7;
#X obj 1194 518 r \$1-onstep;
#X obj 1134 703 spigot 0;
#X obj 1198 684 tgl 15 0 empty empty empty 17 7 0 10 #fcfcfc #000000
#000000 0 1;
#X obj 1198 574 == 1;
#X obj 1198 599 change;
#X obj 1042 518 r \$1-onstep;
#X obj 982 703 spigot 0;
#X obj 1046 684 tgl 15 0 empty empty empty 17 7 0 10 #fcfcfc #000000
#000000 0 1;
#X obj 1046 574 == 1;
#X obj 1046 599 change;
#X obj 888 526 r \$1-onstep;
#X obj 828 711 spigot 0;
#X obj 892 692 tgl 15 0 empty empty empty 17 7 0 10 #fcfcfc #000000
#000000 0 1;
#X obj 892 582 == 1;
#X obj 892 607 change;
#X obj 733 523 r \$1-onstep;
#X obj 676 707 spigot 0;
#X obj 740 688 tgl 15 0 empty empty empty 17 7 0 10 #fcfcfc #000000
#000000 0 1;
#X obj 737 579 == 1;
#X obj 737 604 change;
#X obj 620 502 r \$1-onstep;
#X obj 544 707 spigot 0;
#X obj 599 684 tgl 15 0 empty empty empty 17 7 0 10 #fcfcfc #000000
#000000 0 1;
#X obj 595 580 == 1;
#X obj 595 605 change;
#X obj 397 517 r \$1-onstep;
#X obj 336 709 spigot 0;
#X obj 431 674 tgl 15 0 empty empty empty 17 7 0 10 #fcfcfc #000000
#000000 0 1;
#X obj 400 576 == 1;
#X obj 400 601 change;
#X obj 1196 548 == 6;
#X obj 1044 548 == 5;
#X obj 890 556 == 4;
#X obj 735 553 == 3;
#X obj 593 554 == 2;
#X obj 398 550 == 1;
#X obj 400 625 == 1;
#X obj 595 628 == 1;
#X obj 737 628 == 1;
#X obj 894 632 == 1;
#X obj 1046 623 == 1;
#X obj 1198 623 == 1;
#X obj 1349 620 == 1;
#X obj 1524 619 == 1;
#X obj 1684 615 == 1;
#X obj 1830 614 == 1;
#X obj 1988 612 == 1;
#X obj 2142 614 == 1;
#X obj 2296 607 == 1;
#X obj 398 649 t b f;
#X obj 597 659 t b f;
#X obj 737 657 t b f;
#X obj 893 658 t b f;
#X obj 1044 653 t b f;
#X obj 1195 648 t b f;
#X obj 1352 645 t b f;
#X obj 1524 644 t b f;
#X obj 1678 645 t b f;
#X obj 1831 645 t b f;
#X obj 1986 642 t b f;
#X obj 2139 643 t b f;
#X obj 2295 637 t b f;
#X obj 2454 642 t b f;
#X obj 2608 639 t b f;
#X obj 2452 610 == 1;
#X obj 2607 609 == 1;
#X floatatom 335 734 5 0 0 0 - - - 0;
#X floatatom 357 619 5 0 0 0 - - - 0;
#X floatatom 549 738 5 0 0 0 - - - 0;
#X floatatom 677 738 5 0 0 0 - - - 0;
#X floatatom 830 744 5 0 0 0 - - - 0;
#X floatatom 980 738 5 0 0 0 - - - 0;
#X floatatom 1141 737 5 0 0 0 - - - 0;
#X floatatom 1303 734 5 0 0 0 - - - 0;
#X floatatom 1462 729 5 0 0 0 - - - 0;
#X floatatom 1619 725 5 0 0 0 - - - 0;
#X floatatom 1764 725 5 0 0 0 - - - 0;
#X floatatom 1920 736 5 0 0 0 - - - 0;
#X floatatom 2082 733 5 0 0 0 - - - 0;
#X floatatom 2241 728 5 0 0 0 - - - 0;
#X floatatom 2398 724 5 0 0 0 - - - 0;
#X floatatom 2543 724 5 0 0 0 - - - 0;
#X floatatom 1776 590 5 0 0 0 - - - 0;
#X floatatom 683 173 5 0 0 0 - - - 0;
#X obj 367 173 bng 15 250 50 0 empty empty empty 17 7 0 10 #fcfcfc
#000000 #000000;
#X obj 1523 949 outlet;
#X obj 887 215 + 1;
#X obj 244 281 bng 15 250 50 0 empty empty empty 17 7 0 10 #fcfcfc
#000000 #000000;
#X obj 161 403 f;
#X obj 159 368 t b f;
#X obj 222 374 r \$1-onstep;
#X obj 162 569 spigot 0;
#X obj 257 534 tgl 15 0 empty empty empty 17 7 0 10 #fcfcfc #000000
#000000 0 1;
#X obj 226 436 == 1;
#X obj 226 461 change;
#X obj 226 485 == 1;
#X obj 224 509 t b f;
#X floatatom 161 594 5 0 0 0 - - - 0;
#X floatatom 183 479 5 0 0 0 - - - 0;
#X obj 224 410 == 0;
#X obj 315 28 r \$1-currentsteppitch0;
#X obj 376 61 r \$1-currentsteppitchl1;
#X obj 447 92 r \$1-currentsteppitch2;
#X obj 465 112 r \$1-currentsteppitch3;
#X obj 483 138 r \$1-currentsteppitch4;
#X obj 505 162 r \$1-currentsteppitch5;
#X obj 516 190 r \$1-currentsteppitch6;
#X obj 526 216 r \$1-currentsteppitch7;
#X obj 539 239 r \$1-currentsteppitch8;
#X obj 549 261 r \$1-currentsteppitch9;
#X obj 569 282 r \$1-currentsteppitch10;
#X obj 578 307 r \$1-currentsteppitch11;
#X obj 592 331 r \$1-currentsteppitch12;
#X obj 602 355 r \$1-currentsteppitch13;
#X obj 612 377 r \$1-currentsteppitch14;
#X obj 622 399 r \$1-currentsteppitch15;
#X connect 0 0 121 0;
#X connect 0 0 162 0;
#X connect 1 0 116 0;
#X connect 2 0 111 0;
#X connect 3 0 106 0;
#X connect 4 0 101 0;
#X connect 5 0 96 0;
#X connect 6 0 88 0;
#X connect 7 0 83 0;
#X connect 8 0 78 0;
#X connect 9 0 71 0;
#X connect 9 0 177 0;
#X connect 10 0 66 0;
#X connect 11 0 60 0;
#X connect 12 0 54 0;
#X connect 13 0 48 0;
#X connect 14 0 42 0;
#X connect 15 0 16 0;
#X connect 16 0 17 0;
#X connect 17 0 21 0;
#X connect 17 0 39 1;
#X connect 18 0 19 0;
#X connect 19 0 20 0;
#X connect 19 1 20 1;
#X connect 20 0 40 0;
#X connect 22 0 18 0;
#X connect 23 0 14 0;
#X connect 23 1 14 1;
#X connect 24 0 13 0;
#X connect 24 1 13 1;
#X connect 25 0 12 0;
#X connect 25 1 12 1;
#X connect 26 0 11 0;
#X connect 26 1 11 1;
#X connect 27 0 10 0;
#X connect 27 1 10 1;
#X connect 28 0 9 0;
#X connect 28 1 9 1;
#X connect 29 0 8 0;
#X connect 29 1 8 1;
#X connect 30 0 7 0;
#X connect 30 1 7 1;
#X connect 31 0 6 0;
#X connect 31 1 6 1;
#X connect 32 0 5 0;
#X connect 32 1 5 1;
#X connect 33 0 4 0;
#X connect 33 1 4 1;
#X connect 34 0 3 0;
#X connect 34 1 3 1;
#X connect 35 0 2 0;
#X connect 35 1 2 1;
#X connect 36 0 1 0;
#X connect 36 1 1 1;
#X connect 37 0 0 0;
#X connect 37 1 0 1;
#X connect 38 0 39 0;
#X connect 39 0 178 0;
#X connect 41 0 46 0;
#X connect 42 0 176 0;
#X connect 43 0 42 1;
#X connect 44 0 45 0;
#X connect 45 0 160 0;
#X connect 46 0 44 0;
#X connect 47 0 52 0;
#X connect 48 0 175 0;
#X connect 49 0 48 1;
#X connect 50 0 51 0;
#X connect 51 0 159 0;
#X connect 52 0 50 0;
#X connect 53 0 58 0;
#X connect 54 0 174 0;
#X connect 55 0 54 1;
#X connect 56 0 57 0;
#X connect 57 0 143 0;
#X connect 58 0 56 0;
#X connect 59 0 64 0;
#X connect 60 0 173 0;
#X connect 61 0 60 1;
#X connect 62 0 63 0;
#X connect 63 0 142 0;
#X connect 64 0 62 0;
#X connect 65 0 75 0;
#X connect 66 0 172 0;
#X connect 67 0 66 1;
#X connect 68 0 69 0;
#X connect 69 0 141 0;
#X connect 70 0 76 0;
#X connect 71 0 171 0;
#X connect 72 0 71 1;
#X connect 73 0 74 0;
#X connect 74 0 140 0;
#X connect 75 0 68 0;
#X connect 76 0 73 0;
#X connect 77 0 92 0;
#X connect 78 0 170 0;
#X connect 79 0 78 1;
#X connect 80 0 81 0;
#X connect 81 0 139 0;
#X connect 82 0 93 0;
#X connect 83 0 169 0;
#X connect 84 0 83 1;
#X connect 85 0 86 0;
#X connect 86 0 138 0;
#X connect 87 0 94 0;
#X connect 88 0 168 0;
#X connect 89 0 88 1;
#X connect 90 0 91 0;
#X connect 91 0 137 0;
#X connect 92 0 80 0;
#X connect 93 0 85 0;
#X connect 94 0 90 0;
#X connect 95 0 125 0;
#X connect 96 0 167 0;
#X connect 97 0 96 1;
#X connect 98 0 99 0;
#X connect 99 0 136 0;
#X connect 100 0 126 0;
#X connect 101 0 166 0;
#X connect 102 0 101 1;
#X connect 103 0 104 0;
#X connect 104 0 135 0;
#X connect 105 0 127 0;
#X connect 106 0 165 0;
#X connect 107 0 106 1;
#X connect 108 0 109 0;
#X connect 109 0 134 0;
#X connect 110 0 128 0;
#X connect 111 0 164 0;
#X connect 112 0 111 1;
#X connect 113 0 114 0;
#X connect 114 0 133 0;
#X connect 115 0 129 0;
#X connect 116 0 163 0;
#X connect 117 0 116 1;
#X connect 118 0 119 0;
#X connect 119 0 132 0;
#X connect 120 0 130 0;
#X connect 121 0 161 0;
#X connect 122 0 121 1;
#X connect 123 0 124 0;
#X connect 124 0 131 0;
#X connect 125 0 98 0;
#X connect 126 0 103 0;
#X connect 127 0 108 0;
#X connect 128 0 113 0;
#X connect 129 0 118 0;
#X connect 130 0 123 0;
#X connect 131 0 144 0;
#X connect 132 0 145 0;
#X connect 133 0 146 0;
#X connect 134 0 147 0;
#X connect 135 0 148 0;
#X connect 136 0 149 0;
#X connect 137 0 150 0;
#X connect 138 0 151 0;
#X connect 139 0 152 0;
#X connect 140 0 153 0;
#X connect 141 0 154 0;
#X connect 142 0 155 0;
#X connect 143 0 156 0;
#X connect 144 0 0 0;
#X connect 144 1 122 0;
#X connect 145 0 1 0;
#X connect 145 1 117 0;
#X connect 146 0 2 0;
#X connect 146 1 112 0;
#X connect 147 0 3 0;
#X connect 147 1 107 0;
#X connect 148 0 4 0;
#X connect 148 1 102 0;
#X connect 149 0 5 0;
#X connect 149 1 97 0;
#X connect 150 0 6 0;
#X connect 150 1 89 0;
#X connect 151 0 7 0;
#X connect 151 1 84 0;
#X connect 152 0 8 0;
#X connect 152 1 79 0;
#X connect 153 0 9 0;
#X connect 153 1 72 0;
#X connect 154 0 10 0;
#X connect 154 1 67 0;
#X connect 155 0 11 0;
#X connect 155 1 61 0;
#X connect 156 0 12 0;
#X connect 156 1 55 0;
#X connect 157 0 13 0;
#X connect 157 1 49 0;
#X connect 158 0 14 0;
#X connect 158 1 43 0;
#X connect 159 0 157 0;
#X connect 160 0 158 0;
#X connect 161 0 180 0;
#X connect 163 0 180 0;
#X connect 164 0 180 0;
#X connect 165 0 180 0;
#X connect 166 0 180 0;
#X connect 167 0 180 0;
#X connect 168 0 180 0;
#X connect 169 0 180 0;
#X connect 170 0 180 0;
#X connect 171 0 180 0;
#X connect 172 0 180 0;
#X connect 173 0 180 0;
#X connect 174 0 180 0;
#X connect 175 0 180 0;
#X connect 176 0 180 0;
#X connect 181 0 40 0;
#X connect 182 0 184 0;
#X connect 183 0 186 0;
#X connect 183 0 193 0;
#X connect 184 0 183 0;
#X connect 184 1 183 1;
#X connect 185 0 194 0;
#X connect 186 0 192 0;
#X connect 187 0 186 1;
#X connect 188 0 189 0;
#X connect 189 0 190 0;
#X connect 190 0 191 0;
#X connect 191 0 183 0;
#X connect 191 1 187 0;
#X connect 192 0 180 0;
#X connect 194 0 188 0;
#X connect 195 0 184 0;
#X connect 196 0 37 0;
#X connect 196 0 179 0;
#X connect 197 0 36 0;
#X connect 198 0 35 0;
#X connect 199 0 34 0;
#X connect 200 0 33 0;
#X connect 201 0 32 0;
#X connect 202 0 31 0;
#X connect 203 0 30 0;
#X connect 204 0 29 0;
#X connect 205 0 28 0;
#X connect 206 0 27 0;
#X connect 207 0 26 0;
#X connect 208 0 25 0;
#X connect 209 0 24 0;
#X connect 210 0 23 0;
#X restore 694 451 pd \$1-processallpitches \$1;
#X obj 712 403 r \$1-trknum;
#X obj 694 427 f;
#X obj 873 400 r currentstep;
#X floatatom 873 426 5 0 0 0 - - - 0;
#X floatatom 539 370 5 0 0 0 - - - 0;
#X obj 539 397 sel 0;
#X obj 571 448 f;
#X obj 571 421 bng 15 250 50 0 empty empty empty 17 7 0 10 #fcfcfc
#000000 #000000;
#X floatatom 571 473 5 0 0 0 - - - 0;
#X floatatom 694 477 5 0 0 0 - - - 0;
#X obj 693 514 sel 0;
#X obj 729 573 f;
#X obj 729 546 bng 15 250 50 0 empty empty empty 17 7 0 10 #fcfcfc
#000000 #000000;
#X obj 729 598 s \$1-pitchchange;
#X obj 235 344 r \$1-pitchchange;
#X obj 571 500 s \$1-velchange;
#X obj 144 521 r \$1-velchange;
#X obj 855 115 t b f;
#X floatatom 885 199 5 0 0 0 - - - 0;
#X obj 884 236 sel 0;
#X obj 920 295 f;
#X obj 920 268 bng 15 250 50 0 empty empty empty 17 7 0 10 #fcfcfc
#000000 #000000;
#X obj 920 321 s \$1-midinotechange;
#X obj 1249 292 s \$1-assignednote;
#N canvas 293 129 711 679 \$0-getincommingmidisettings 0;
#X obj 25 366 outlet;
#X obj 384 55 loadbang;
#X obj 384 82 \$1;
#X msg 384 109 \$1;
#X obj 384 135 t b f;
#X obj 349 27 inlet;
#N canvas 630 158 479 538 \$1-assignedtomidiin 0;
#X obj 49 129 f;
#X obj 50 295 spigot 0;
#X obj 115 260 tgl 15 0 empty empty empty 17 7 0 10 #fcfcfc #000000
#000000 0 1;
#X obj 76 239 t b f;
#X floatatom 49 320 5 0 0 0 - - - 0;
#X obj 76 162 r \$1-midiinnote;
#X obj 75 187 ==;
#X obj 55 50 inlet;
#X obj 49 346 outlet;
#X obj 77 213 == 1;
#X floatatom 121 188 5 0 0 0 - - - 0;
#X obj 47 94 t f f f;
#X connect 0 0 1 0;
#X connect 1 0 4 0;
#X connect 2 0 1 1;
#X connect 3 0 0 0;
#X connect 3 1 2 0;
#X connect 4 0 8 0;
#X connect 5 0 6 0;
#X connect 5 0 10 0;
#X connect 6 0 9 0;
#X connect 7 0 11 0;
#X connect 9 0 3 0;
#X connect 11 0 0 0;
#X connect 11 1 0 1;
#X connect 11 2 6 1;
#X restore 44 107 pd \$1-assignedtomidiin \$1;
#N canvas -43 170 1920 997 \$1-assignednotes-recv 0;
#X obj 46 67 r \$1-assignednote0;
#X obj 184 67 r \$1-assignednote1;
#X obj 665 417 outlet;
#X obj 321 67 r \$1-assignednote2;
#X obj 459 67 r \$1-assignednote3;
#X obj 595 68 r \$1-assignednote4;
#X obj 733 68 r \$1-assignednote5;
#X obj 870 68 r \$1-assignednote6;
#X obj 1008 68 r \$1-assignednote7;
#X obj 1145 68 r \$1-assignednote8;
#X obj 185 99 r \$1-assignednote9;
#X obj 322 99 r \$1-assignednote10;
#X obj 466 99 r \$1-assignednote11;
#X obj 609 99 r \$1-assignednote12;
#X obj 753 99 r \$1-assignednote13;
#X obj 896 99 r \$1-assignednote14;
#X obj 1039 99 r \$1-assignednote15;
#X obj 1183 99 r \$1-assignednote16;
#X obj 183 134 r \$1-assignednote17;
#X obj 325 134 r \$1-assignednote18;
#X obj 469 134 r \$1-assignednote19;
#X obj 617 134 r \$1-assignednote20;
#X obj 761 134 r \$1-assignednote21;
#X obj 904 134 r \$1-assignednote22;
#X obj 1047 134 r \$1-assignednote23;
#X obj 1191 134 r \$1-assignednote24;
#X obj 182 164 r \$1-assignednote25;
#X obj 324 164 r \$1-assignednote26;
#X obj 468 164 r \$1-assignednote127;
#X obj 617 164 r \$1-assignednote28;
#X obj 761 164 r \$1-assignednote29;
#X obj 904 164 r \$1-assignednote30;
#X obj 1047 164 r \$1-assignednote31;
#X obj 1191 164 r \$1-assignednote32;
#X obj 182 198 r \$1-assignednote33;
#X obj 324 198 r \$1-assignednote34;
#X obj 468 198 r \$1-assignednote35;
#X obj 616 198 r \$1-assignednote36;
#X obj 760 198 r \$1-assignednote37;
#X obj 903 198 r \$1-assignednote38;
#X obj 1046 198 r \$1-assignednote39;
#X obj 1190 198 r \$1-assignednote40;
#X obj 181 228 r \$1-assignednote41;
#X obj 323 228 r \$1-assignednote42;
#X obj 467 228 r \$1-assignednote143;
#X obj 616 228 r \$1-assignednote44;
#X obj 760 228 r \$1-assignednote45;
#X obj 903 228 r \$1-assignednote46;
#X obj 1046 228 r \$1-assignednote47;
#X obj 1190 228 r \$1-assignednote48;
#X obj 182 261 r \$1-assignednote49;
#X obj 323 262 r \$1-assignednote50;
#X obj 467 262 r \$1-assignednote51;
#X obj 615 262 r \$1-assignednote52;
#X obj 759 262 r \$1-assignednote53;
#X obj 902 262 r \$1-assignednote54;
#X obj 1045 262 r \$1-assignednote55;
#X obj 1189 262 r \$1-assignednote56;
#X obj 180 292 r \$1-assignednote57;
#X obj 322 292 r \$1-assignednote58;
#X obj 467 292 r \$1-assignednote159;
#X obj 615 292 r \$1-assignednote60;
#X obj 759 292 r \$1-assignednote61;
#X obj 902 292 r \$1-assignednote62;
#X obj 1045 292 r \$1-assignednote63;
#X obj 1189 292 r \$1-assignednote64;
#X connect 0 0 2 0;
#X connect 1 0 2 0;
#X connect 3 0 2 0;
#X connect 4 0 2 0;
#X connect 5 0 2 0;
#X connect 6 0 2 0;
#X connect 7 0 2 0;
#X connect 8 0 2 0;
#X connect 9 0 2 0;
#X connect 10 0 2 0;
#X connect 11 0 2 0;
#X connect 12 0 2 0;
#X connect 13 0 2 0;
#X connect 14 0 2 0;
#X connect 15 0 2 0;
#X connect 16 0 2 0;
#X connect 17 0 2 0;
#X connect 18 0 2 0;
#X connect 19 0 2 0;
#X connect 20 0 2 0;
#X connect 21 0 2 0;
#X connect 22 0 2 0;
#X connect 23 0 2 0;
#X connect 24 0 2 0;
#X connect 25 0 2 0;
#X connect 26 0 2 0;
#X connect 27 0 2 0;
#X connect 28 0 2 0;
#X connect 29 0 2 0;
#X connect 30 0 2 0;
#X connect 31 0 2 0;
#X connect 32 0 2 0;
#X connect 33 0 2 0;
#X connect 34 0 2 0;
#X connect 35 0 2 0;
#X connect 36 0 2 0;
#X connect 37 0 2 0;
#X connect 38 0 2 0;
#X connect 39 0 2 0;
#X connect 40 0 2 0;
#X connect 41 0 2 0;
#X connect 42 0 2 0;
#X connect 43 0 2 0;
#X connect 44 0 2 0;
#X connect 45 0 2 0;
#X connect 46 0 2 0;
#X connect 47 0 2 0;
#X connect 48 0 2 0;
#X connect 49 0 2 0;
#X connect 50 0 2 0;
#X connect 51 0 2 0;
#X connect 52 0 2 0;
#X connect 53 0 2 0;
#X connect 54 0 2 0;
#X connect 55 0 2 0;
#X connect 56 0 2 0;
#X connect 57 0 2 0;
#X connect 58 0 2 0;
#X connect 59 0 2 0;
#X connect 60 0 2 0;
#X connect 61 0 2 0;
#X connect 62 0 2 0;
#X connect 63 0 2 0;
#X connect 64 0 2 0;
#X connect 65 0 2 0;
#X restore 35 26 pd \$1-assignednotes-recv \$1;
#X obj 349 238 s;
#X msg 422 163 symbol \$1-midiinnote;
#X obj 384 186 symbol;
#X msg 384 161 bang;
#X listbox 384 212 20 0 0 0 - - - 0;
#X obj 349 207 t f;
#X obj 45 52 r \$1-assignednote;
#X obj 45 77 t f;
#X obj 304 163 r minnote;
#X floatatom 55 199 5 0 0 0 - - - 0;
#X obj 55 319 s;
#X msg 55 288 label \$1;
#X obj 55 225 t f b;
#X msg 81 249 symbol playednotenum-recv;
#X obj 56 173 f;
#X obj 43 139 t f b f;
#X obj 519 64;
#X obj 55 267 list-abs/list-l2s;
#X connect 1 0 2 0;
#X connect 2 0 3 0;
#X connect 3 0 4 0;
#X connect 4 0 11 0;
#X connect 4 1 9 0;
#X connect 6 0 23 0;
#X connect 9 0 10 1;
#X connect 10 0 12 0;
#X connect 11 0 10 0;
#X connect 12 0 8 1;
#X connect 13 0 8 0;
#X connect 14 0 15 0;
#X connect 15 0 6 0;
#X connect 16 0 13 0;
#X connect 17 0 20 0;
#X connect 19 0 18 0;
#X connect 20 0 25 0;
#X connect 20 1 21 0;
#X connect 21 0 18 1;
#X connect 22 0 17 0;
#X connect 23 0 0 0;
#X connect 23 1 22 0;
#X connect 23 2 22 1;
#X connect 25 0 19 0;
#X restore 885 169 pd \$0-getincommingmidisettings;
#X obj 1262 115 t f;
#X obj 366 373 r \$1-midinotechange;
#X obj 1195 430 s;
#X msg 1224 338 symbol learnednotenum-recv;
#X obj 1192 313 t f b;
#X obj 1192 260 f;
#X obj 1192 215 t b f f;
#X floatatom 1192 288 5 0 0 0 - - - 0;
#X obj 1416 213 r cntrlnumseq;
#X obj 1405 290 t b;
#X obj 1407 316 bng 15 250 50 0 empty empty empty 17 7 0 10 #fcfcfc
#000000 #000000;
#X obj 1416 238 t b;
#X obj 1414 263 del 100;
#X msg 1192 384 label \$1;
#N canvas 197 140 1920 997 \$1-processmutetriggers 1;
#X obj 335 543 f;
#X obj 533 539 f;
#X obj 699 569 f;
#X obj 844 555 f;
#X obj 985 550 f;
#X obj 1134 548 f;
#X obj 1292 548 f;
#X obj 1460 545 f;
#X obj 1622 551 f;
#X obj 1770 536 f;
#X obj 1920 541 f;
#X obj 2079 538 f;
#X obj 2232 536 f;
#X obj 2389 543 f;
#X obj 2539 547 f;
#X obj 783 12 loadbang;
#X obj 784 39 \$1;
#X msg 780 66 \$1;
#X floatatom 821 149 5 0 0 0 - - - 0;
#X obj 821 173 t b f;
#X obj 822 199 f;
#X obj 769 102 t b f;
#X obj 836 86 inlet;
#X obj 2538 517 t b f;
#X obj 2386 511 t b f;
#X obj 2229 504 t b f;
#X obj 2076 507 t b f;
#X obj 1917 510 t b f;
#X obj 1765 505 t b f;
#X obj 1626 503 t b f;
#X obj 1458 513 t b f;
#X obj 1290 516 t b f;
#X obj 1133 521 t b f;
#X obj 980 518 t b f;
#X obj 840 521 t b f;
#X obj 695 535 t b f;
#X obj 531 504 t b f;
#X obj 333 508 t b f;
#X obj 706 13 inlet;
#X obj 683 142 ==;
#X obj 821 260 s \$1-onstep;
#X obj 2603 504 r \$1-onstep;
#X obj 2543 689 spigot 0;
#X obj 2607 670 tgl 15 0 empty empty empty 17 7 0 10 #fcfcfc #000000
#000000 0 1;
#X obj 2607 560 == 1;
#X obj 2607 585 change;
#X obj 2448 505 r \$1-onstep;
#X obj 2388 690 spigot 0;
#X obj 2452 671 tgl 15 0 empty empty empty 17 7 0 10 #fcfcfc #000000
#000000 0 1;
#X obj 2452 561 == 1;
#X obj 2452 586 change;
#X obj 2292 502 r \$1-onstep;
#X obj 2232 687 spigot 0;
#X obj 2296 668 tgl 15 0 empty empty empty 17 7 0 10 #fcfcfc #000000
#000000 0 1;
#X obj 2296 558 == 1;
#X obj 2296 583 change;
#X obj 2138 509 r \$1-onstep;
#X obj 2078 694 spigot 0;
#X obj 2142 675 tgl 15 0 empty empty empty 17 7 0 10 #fcfcfc #000000
#000000 0 1;
#X obj 2142 565 == 1;
#X obj 2142 590 change;
#X obj 1984 507 r \$1-onstep;
#X obj 1924 692 spigot 0;
#X obj 1988 673 tgl 15 0 empty empty empty 17 7 0 10 #fcfcfc #000000
#000000 0 1;
#X obj 1988 563 == 1;
#X obj 1988 588 change;
#X obj 1826 509 r \$1-onstep;
#X obj 1766 694 spigot 0;
#X obj 1830 675 tgl 15 0 empty empty empty 17 7 0 10 #fcfcfc #000000
#000000 0 1;
#X obj 1830 565 == 1;
#X obj 1830 590 change;
#X obj 1680 510 r \$1-onstep;
#X obj 1620 695 spigot 0;
#X obj 1684 676 tgl 15 0 empty empty empty 17 7 0 10 #fcfcfc #000000
#000000 0 1;
#X obj 1684 566 == 1;
#X obj 1684 591 change;
#X obj 1520 514 r \$1-onstep;
#X obj 1460 699 spigot 0;
#X obj 1524 680 tgl 15 0 empty empty empty 17 7 0 10 #fcfcfc #000000
#000000 0 1;
#X obj 1524 570 == 1;
#X obj 1524 595 change;
#X obj 1345 515 r \$1-onstep;
#X obj 1285 700 spigot 0;
#X obj 1349 681 tgl 15 0 empty empty empty 17 7 0 10 #fcfcfc #000000
#000000 0 1;
#X obj 1349 571 == 1;
#X obj 1349 596 change;
#X obj 1194 518 r \$1-onstep;
#X obj 1134 703 spigot 0;
#X obj 1198 684 tgl 15 0 empty empty empty 17 7 0 10 #fcfcfc #000000
#000000 0 1;
#X obj 1198 574 == 1;
#X obj 1198 599 change;
#X obj 1042 518 r \$1-onstep;
#X obj 982 703 spigot 0;
#X obj 1046 684 tgl 15 0 empty empty empty 17 7 0 10 #fcfcfc #000000
#000000 0 1;
#X obj 1046 574 == 1;
#X obj 1046 599 change;
#X obj 888 526 r \$1-onstep;
#X obj 828 711 spigot 0;
#X obj 892 692 tgl 15 0 empty empty empty 17 7 0 10 #fcfcfc #000000
#000000 0 1;
#X obj 892 582 == 1;
#X obj 892 607 change;
#X obj 733 523 r \$1-onstep;
#X obj 676 707 spigot 0;
#X obj 740 688 tgl 15 0 empty empty empty 17 7 0 10 #fcfcfc #000000
#000000 0 1;
#X obj 737 579 == 1;
#X obj 737 604 change;
#X obj 620 502 r \$1-onstep;
#X obj 544 707 spigot 0;
#X obj 599 684 tgl 15 0 empty empty empty 17 7 0 10 #fcfcfc #000000
#000000 0 1;
#X obj 595 580 == 1;
#X obj 595 605 change;
#X obj 397 517 r \$1-onstep;
#X obj 336 709 spigot 0;
#X obj 431 674 tgl 15 0 empty empty empty 17 7 0 10 #fcfcfc #000000
#000000 0 1;
#X obj 400 576 == 1;
#X obj 400 601 change;
#X obj 400 625 == 1;
#X obj 595 628 == 1;
#X obj 737 628 == 1;
#X obj 894 632 == 1;
#X obj 1046 623 == 1;
#X obj 1198 623 == 1;
#X obj 1349 620 == 1;
#X obj 1524 619 == 1;
#X obj 1684 615 == 1;
#X obj 1830 614 == 1;
#X obj 1988 612 == 1;
#X obj 2142 614 == 1;
#X obj 2296 607 == 1;
#X obj 398 649 t b f;
#X obj 597 659 t b f;
#X obj 737 657 t b f;
#X obj 893 658 t b f;
#X obj 1044 653 t b f;
#X obj 1195 648 t b f;
#X obj 1352 645 t b f;
#X obj 1524 644 t b f;
#X obj 1678 645 t b f;
#X obj 1831 645 t b f;
#X obj 1986 642 t b f;
#X obj 2139 643 t b f;
#X obj 2295 637 t b f;
#X obj 2454 642 t b f;
#X obj 2608 639 t b f;
#X obj 2452 610 == 1;
#X obj 2607 609 == 1;
#X floatatom 335 734 5 0 0 0 - - - 0;
#X floatatom 357 619 5 0 0 0 - - - 0;
#X floatatom 549 738 5 0 0 0 - - - 0;
#X floatatom 677 738 5 0 0 0 - - - 0;
#X floatatom 830 744 5 0 0 0 - - - 0;
#X floatatom 980 738 5 0 0 0 - - - 0;
#X floatatom 1141 737 5 0 0 0 - - - 0;
#X floatatom 1303 734 5 0 0 0 - - - 0;
#X floatatom 1462 729 5 0 0 0 - - - 0;
#X floatatom 1619 725 5 0 0 0 - - - 0;
#X floatatom 1764 725 5 0 0 0 - - - 0;
#X floatatom 1920 736 5 0 0 0 - - - 0;
#X floatatom 2082 733 5 0 0 0 - - - 0;
#X floatatom 2241 728 5 0 0 0 - - - 0;
#X floatatom 2398 724 5 0 0 0 - - - 0;
#X floatatom 2543 724 5 0 0 0 - - - 0;
#X floatatom 1776 590 5 0 0 0 - - - 0;
#X floatatom 683 173 5 0 0 0 - - - 0;
#X obj 1523 949 outlet;
#X obj 887 215 + 1;
#X obj 161 403 f;
#X obj 159 368 t b f;
#X obj 222 374 r \$1-onstep;
#X obj 162 569 spigot 0;
#X obj 257 534 tgl 15 0 empty empty empty 17 7 0 10 #fcfcfc #000000
#000000 0 1;
#X obj 226 461 change;
#X obj 226 485 == 1;
#X obj 224 509 t b f;
#X floatatom 161 594 5 0 0 0 - - - 0;
#X floatatom 183 479 5 0 0 0 - - - 0;
#X obj 376 61 r \$1-currentstepmute1;
#X obj 447 92 r \$1-currentstepmute2;
#X obj 465 112 r \$1-currentstepmute3;
#X obj 485 137 r \$1-currentstepmute4;
#X obj 503 161 r \$1-currentstepmute5;
#X obj 516 190 r \$1-currentstepmute6;
#X obj 526 216 r \$1-currentstepmute7;
#X obj 539 239 r \$1-currentstepmute8;
#X obj 549 261 r \$1-currentstepmute9;
#X obj 569 282 r \$1-currentstepmute10;
#X obj 579 307 r \$1-currentstepmute11;
#X obj 592 331 r \$1-currentstepmutel12;
#X obj 602 355 r \$1-currentstepmute13;
#X obj 612 377 r \$1-currentstepmute14;
#X obj 622 401 r \$1-currentstepmute15;
#X obj 629 432 r \$1-currentstepmute16;
#X obj 630 460 r \$1-currentstepmute0;
#X obj 159 329 r \$1-currentstepmute0;
#X obj 226 436 == 0;
#X obj 224 410 == 1;
#X obj 398 550 == 2;
#X obj 593 554 == 3;
#X obj 736 555 == 4;
#X obj 890 556 == 5;
#X obj 1044 548 == 6;
#X obj 1196 548 == 7;
#X obj 1347 545 == 8;
#X obj 1522 544 == 9;
#X obj 1682 540 == 10;
#X obj 1828 539 == 11;
#X obj 1987 536 == 12;
#X obj 2140 539 == 13;
#X obj 2294 532 == 14;
#X obj 2450 535 == 15;
#X obj 2605 534 == 16;
#X connect 0 0 112 0;
#X connect 0 0 147 0;
#X connect 1 0 107 0;
#X connect 2 0 102 0;
#X connect 3 0 97 0;
#X connect 4 0 92 0;
#X connect 5 0 87 0;
#X connect 6 0 82 0;
#X connect 7 0 77 0;
#X connect 8 0 72 0;
#X connect 9 0 67 0;
#X connect 9 0 162 0;
#X connect 10 0 62 0;
#X connect 11 0 57 0;
#X connect 12 0 52 0;
#X connect 13 0 47 0;
#X connect 14 0 42 0;
#X connect 15 0 16 0;
#X connect 16 0 17 0;
#X connect 17 0 21 0;
#X connect 17 0 39 1;
#X connect 18 0 19 0;
#X connect 19 0 20 0;
#X connect 19 1 20 1;
#X connect 20 0 40 0;
#X connect 22 0 18 0;
#X connect 23 0 14 0;
#X connect 23 1 14 1;
#X connect 24 0 13 0;
#X connect 24 1 13 1;
#X connect 25 0 12 0;
#X connect 25 1 12 1;
#X connect 26 0 11 0;
#X connect 26 1 11 1;
#X connect 27 0 10 0;
#X connect 27 1 10 1;
#X connect 28 0 9 0;
#X connect 28 1 9 1;
#X connect 29 0 8 0;
#X connect 29 1 8 1;
#X connect 30 0 7 0;
#X connect 30 1 7 1;
#X connect 31 0 6 0;
#X connect 31 1 6 1;
#X connect 32 0 5 0;
#X connect 32 1 5 1;
#X connect 33 0 4 0;
#X connect 33 1 4 1;
#X connect 34 0 3 0;
#X connect 34 1 3 1;
#X connect 35 0 2 0;
#X connect 35 1 2 1;
#X connect 36 0 1 0;
#X connect 36 1 1 1;
#X connect 37 0 0 0;
#X connect 37 1 0 1;
#X connect 38 0 39 0;
#X connect 39 0 163 0;
#X connect 41 0 210 0;
#X connect 42 0 161 0;
#X connect 43 0 42 1;
#X connect 44 0 45 0;
#X connect 45 0 145 0;
#X connect 46 0 209 0;
#X connect 47 0 160 0;
#X connect 48 0 47 1;
#X connect 49 0 50 0;
#X connect 50 0 144 0;
#X connect 51 0 208 0;
#X connect 52 0 159 0;
#X connect 53 0 52 1;
#X connect 54 0 55 0;
#X connect 55 0 128 0;
#X connect 56 0 207 0;
#X connect 57 0 158 0;
#X connect 58 0 57 1;
#X connect 59 0 60 0;
#X connect 60 0 127 0;
#X connect 61 0 206 0;
#X connect 62 0 157 0;
#X connect 63 0 62 1;
#X connect 64 0 65 0;
#X connect 65 0 126 0;
#X connect 66 0 205 0;
#X connect 67 0 156 0;
#X connect 68 0 67 1;
#X connect 69 0 70 0;
#X connect 70 0 125 0;
#X connect 71 0 204 0;
#X connect 72 0 155 0;
#X connect 73 0 72 1;
#X connect 74 0 75 0;
#X connect 75 0 124 0;
#X connect 76 0 203 0;
#X connect 77 0 154 0;
#X connect 78 0 77 1;
#X connect 79 0 80 0;
#X connect 80 0 123 0;
#X connect 81 0 202 0;
#X connect 82 0 153 0;
#X connect 83 0 82 1;
#X connect 84 0 85 0;
#X connect 85 0 122 0;
#X connect 86 0 201 0;
#X connect 87 0 152 0;
#X connect 88 0 87 1;
#X connect 89 0 90 0;
#X connect 90 0 121 0;
#X connect 91 0 200 0;
#X connect 92 0 151 0;
#X connect 93 0 92 1;
#X connect 94 0 95 0;
#X connect 95 0 120 0;
#X connect 96 0 199 0;
#X connect 97 0 150 0;
#X connect 98 0 97 1;
#X connect 99 0 100 0;
#X connect 100 0 119 0;
#X connect 101 0 198 0;
#X connect 102 0 149 0;
#X connect 103 0 102 1;
#X connect 104 0 105 0;
#X connect 105 0 118 0;
#X connect 106 0 197 0;
#X connect 107 0 148 0;
#X connect 108 0 107 1;
#X connect 109 0 110 0;
#X connect 110 0 117 0;
#X connect 111 0 196 0;
#X connect 112 0 146 0;
#X connect 113 0 112 1;
#X connect 114 0 115 0;
#X connect 115 0 116 0;
#X connect 116 0 129 0;
#X connect 117 0 130 0;
#X connect 118 0 131 0;
#X connect 119 0 132 0;
#X connect 120 0 133 0;
#X connect 121 0 134 0;
#X connect 122 0 135 0;
#X connect 123 0 136 0;
#X connect 124 0 137 0;
#X connect 125 0 138 0;
#X connect 126 0 139 0;
#X connect 127 0 140 0;
#X connect 128 0 141 0;
#X connect 129 0 0 0;
#X connect 129 1 113 0;
#X connect 130 0 1 0;
#X connect 130 1 108 0;
#X connect 131 0 2 0;
#X connect 131 1 103 0;
#X connect 132 0 3 0;
#X connect 132 1 98 0;
#X connect 133 0 4 0;
#X connect 133 1 93 0;
#X connect 134 0 5 0;
#X connect 134 1 88 0;
#X connect 135 0 6 0;
#X connect 135 1 83 0;
#X connect 136 0 7 0;
#X connect 136 1 78 0;
#X connect 137 0 8 0;
#X connect 137 1 73 0;
#X connect 138 0 9 0;
#X connect 138 1 68 0;
#X connect 139 0 10 0;
#X connect 139 1 63 0;
#X connect 140 0 11 0;
#X connect 140 1 58 0;
#X connect 141 0 12 0;
#X connect 141 1 53 0;
#X connect 142 0 13 0;
#X connect 142 1 48 0;
#X connect 143 0 14 0;
#X connect 143 1 43 0;
#X connect 144 0 142 0;
#X connect 145 0 143 0;
#X connect 146 0 164 0;
#X connect 148 0 164 0;
#X connect 149 0 164 0;
#X connect 150 0 164 0;
#X connect 151 0 164 0;
#X connect 152 0 164 0;
#X connect 153 0 164 0;
#X connect 154 0 164 0;
#X connect 155 0 164 0;
#X connect 156 0 164 0;
#X connect 157 0 164 0;
#X connect 158 0 164 0;
#X connect 159 0 164 0;
#X connect 160 0 164 0;
#X connect 161 0 164 0;
#X connect 165 0 40 0;
#X connect 166 0 169 0;
#X connect 166 0 175 0;
#X connect 167 0 166 0;
#X connect 167 1 166 1;
#X connect 168 0 195 0;
#X connect 169 0 174 0;
#X connect 170 0 169 1;
#X connect 171 0 172 0;
#X connect 172 0 173 0;
#X connect 173 0 166 0;
#X connect 173 1 170 0;
#X connect 174 0 164 0;
#X connect 176 0 37 0;
#X connect 177 0 36 0;
#X connect 178 0 35 0;
#X connect 179 0 34 0;
#X connect 180 0 33 0;
#X connect 181 0 32 0;
#X connect 182 0 31 0;
#X connect 183 0 30 0;
#X connect 184 0 29 0;
#X connect 185 0 28 0;
#X connect 186 0 27 0;
#X connect 187 0 26 0;
#X connect 188 0 25 0;
#X connect 189 0 24 0;
#X connect 190 0 23 0;
#X connect 193 0 167 0;
#X connect 194 0 171 0;
#X connect 195 0 194 0;
#X connect 196 0 114 0;
#X connect 197 0 109 0;
#X connect 198 0 104 0;
#X connect 199 0 99 0;
#X connect 200 0 94 0;
#X connect 201 0 89 0;
#X connect 202 0 84 0;
#X connect 203 0 79 0;
#X connect 204 0 74 0;
#X connect 205 0 69 0;
#X connect 206 0 64 0;
#X connect 207 0 59 0;
#X connect 208 0 54 0;
#X connect 209 0 49 0;
#X connect 210 0 44 0;
#X restore 950 511 pd \$1-processmutetriggers \$1;
#X obj 123 71 route play stoppat volume get_volume tabload get_fdir
getvelocities getsequence getmutetrigger getmastermixer getmidisettings
getprojectconfig setVelocities setSequence setMastermixer setMidisettings
setProjectconfig all savepattern, f 210;
#X obj 968 461 r \$1-trknum;
#X obj 950 485 f;
#X obj 1142 461 r currentstep;
#X floatatom 1142 487 5 0 0 0 - - - 0;
#X obj 732 120 bng 15 250 50 0 empty empty empty 17 7 0 10 #fcfcfc
#000000 #000000;
#X obj 983 688 s \$1-mutesample;
#X obj 243 235 r \$1-mutesample;
#X obj 983 541 == 1;
#X obj 983 592 == 0;
#X obj 983 567 change;
#X obj 983 616 tgl 15 0 empty empty empty 17 7 0 10 #fcfcfc #000000
#000000 0 1;
#X obj 983 662 spigot;
#X obj 983 637 t b f;
#X obj 78 329 iemlib/unsig~;
#X obj 1186 351 list-abs/list-l2s;
#X floatatom 929 545 5 0 0 0 - - - 0;
#X obj 850 633 sel 0;
#X obj 886 692 f;
#X obj 886 665 bng 15 250 50 0 empty empty empty 17 7 0 10 #fcfcfc
#000000 #000000;
#X obj 886 717 s \$1-mutechange;
#X connect 1 0 104 0;
#X connect 2 0 20 0;
#X connect 3 0 25 0;
#X connect 4 0 39 0;
#X connect 6 0 30 0;
#X connect 7 0 59 0;
#X connect 8 0 65 0;
#X connect 9 0 42 0;
#X connect 10 0 9 0;
#X connect 11 0 10 0;
#X connect 16 0 94 0;
#X connect 20 0 49 0;
#X connect 20 0 118 0;
#X connect 22 0 21 0;
#X connect 23 0 22 1;
#X connect 24 0 23 0;
#X connect 25 0 20 0;
#X connect 26 0 25 0;
#X connect 28 0 31 0;
#X connect 28 1 29 0;
#X connect 29 0 34 0;
#X connect 31 0 32 0;
#X connect 32 0 30 0;
#X connect 34 0 33 0;
#X connect 35 0 36 0;
#X connect 40 0 22 0;
#X connect 41 1 35 0;
#X connect 41 2 35 1;
#X connect 43 0 49 1;
#X connect 44 0 43 0;
#X connect 45 0 46 0;
#X connect 46 0 49 1;
#X connect 47 0 48 0;
#X connect 48 0 49 1;
#X connect 49 0 40 0;
#X connect 50 0 45 0;
#X connect 51 0 44 0;
#X connect 52 0 47 0;
#X connect 53 0 20 0;
#X connect 54 0 57 0;
#X connect 55 0 53 1;
#X connect 56 0 54 0;
#X connect 57 0 55 0;
#X connect 58 0 59 1;
#X connect 59 0 60 0;
#X connect 60 0 68 0;
#X connect 61 0 60 1;
#X connect 61 0 62 0;
#X connect 63 0 73 0;
#X connect 64 0 65 1;
#X connect 65 0 63 0;
#X connect 66 0 67 0;
#X connect 67 0 63 1;
#X connect 68 0 70 1;
#X connect 68 0 69 0;
#X connect 69 1 71 0;
#X connect 70 0 72 0;
#X connect 71 0 70 0;
#X connect 72 0 79 0;
#X connect 73 0 75 1;
#X connect 73 0 74 0;
#X connect 74 1 76 0;
#X connect 75 0 77 0;
#X connect 76 0 75 0;
#X connect 78 0 44 0;
#X connect 80 0 40 1;
#X connect 81 0 16 0;
#X connect 81 1 88 0;
#X connect 82 0 84 1;
#X connect 82 0 83 0;
#X connect 83 1 85 0;
#X connect 84 0 86 0;
#X connect 85 0 84 0;
#X connect 88 0 82 0;
#X connect 89 0 95 0;
#X connect 90 0 2 0;
#X connect 92 0 91 1;
#X connect 93 0 119 0;
#X connect 93 1 92 0;
#X connect 94 0 96 0;
#X connect 95 0 94 0;
#X connect 95 1 94 1;
#X connect 95 2 87 0;
#X connect 96 0 93 0;
#X connect 97 0 100 0;
#X connect 98 0 99 0;
#X connect 100 0 101 0;
#X connect 101 0 98 0;
#X connect 102 0 91 0;
#X connect 103 0 112 0;
#X connect 103 0 120 0;
#X connect 104 0 2 0;
#X connect 104 1 3 0;
#X connect 104 2 41 0;
#X connect 104 3 4 0;
#X connect 104 4 5 0;
#X connect 104 4 28 0;
#X connect 104 5 6 0;
#X connect 104 6 7 0;
#X connect 104 7 8 0;
#X connect 104 8 109 0;
#X connect 104 10 81 0;
#X connect 104 11 12 0;
#X connect 104 12 13 0;
#X connect 104 13 14 0;
#X connect 104 14 15 0;
#X connect 104 15 89 0;
#X connect 104 16 17 0;
#X connect 104 17 18 0;
#X connect 104 18 27 0;
#X connect 105 0 106 1;
#X connect 106 0 103 0;
#X connect 107 0 108 0;
#X connect 108 0 103 1;
#X connect 109 0 106 0;
#X connect 111 0 25 0;
#X connect 112 0 114 0;
#X connect 113 0 115 0;
#X connect 114 0 113 0;
#X connect 115 0 117 0;
#X connect 116 0 110 0;
#X connect 117 0 116 0;
#X connect 117 1 116 1;
#X connect 118 0 56 0;
#X connect 119 0 102 0;
#X connect 120 0 121 0;
#X connect 121 1 123 0;
#X connect 122 0 124 0;
#X connect 123 0 122 0;
