#N struct 2390-bang float c float bc symbol text float x float y float
q;
#N canvas 234 16 1920 997 10;
#X obj 37 375 outlet;
#N canvas 0 85 552 402 \$0-display 0;
#X scalar 2390-bang 777 777 [1] 0 0 0 \;;
#X coords 0 0 1 1 90 35 2 0 0;
#X restore 30 30 pd \$0-display;
#N canvas 124 172 1513 997 \$0-bang 0;
#X obj 43 147 unpack s p f;
#X obj 43 262 outlet;
#X obj 43 170 sel click;
#X obj 91 262 set \$0-bang c;
#X obj 43 193 t b b b;
#X obj 91 216 del 250;
#X msg 91 239 777;
#X msg 121 239 555;
#X obj 44 116 struct \$0-bang float c float bc symbol text float x
float y float q, f 68;
#X obj 44 93 filledpolygon c bc 0 0 0 0 0.5 1 0.5 1 0;
#X obj 44 40 drawtext text 0.4 0.1;
#X connect 0 0 2 0;
#X connect 0 1 3 1;
#X connect 2 0 4 0;
#X connect 4 0 1 0;
#X connect 4 1 5 0;
#X connect 4 2 7 0;
#X connect 5 0 6 0;
#X connect 6 0 3 0;
#X connect 7 0 3 0;
#X connect 8 0 0 0;
#X restore 36 323 pd \$0-bang;
#X obj 393 457 bng 15 250 50 1 empty empty empty 17 7 0 10 #fcfcfc
#000000 #000000;
#X obj 49 195 loadbang;
#X obj 233 419 s pd-\$0-display;
#X obj 241 464 symbol pd-\$0-display;
#X msg 241 487 traverse \$1 \, bang;
#X obj 241 510 pointer;
#X msg 232 391 clear;
#X obj 132 539 append \$0-bang c bc;
#X obj 132 559 t b p;
#X msg 132 513 777 777;
#X obj 137 697 set -symbol \$0-bang text;
#X obj 25 727 s \$0-this;
#X obj 124 726 s pd-\$0-display;
#N canvas 1200 165 395 618 resizeSongitem 0;
#X floatatom 108 221 5 0 0 0 - - - 0;
#X obj 108 266 pack;
#X floatatom 148 221 5 0 0 0 - - - 0;
#X obj 148 243 t b f;
#X obj 108 289 t l l;
#X msg 174 313 coords 0 0 1 1 \$1 \$2 2 0 0;
#X obj 71 88 inlet;
#X obj 149 86 inlet;
#X obj 99 442 outlet;
#X obj 177 446 outlet;
#X msg 109 358 coords 0 \$2 \$1 0 \$1 \$2 2 90 90;
#X msg 108 197 90;
#X msg 148 196 35;
#X connect 0 0 1 0;
#X connect 1 0 4 0;
#X connect 2 0 3 0;
#X connect 3 0 1 0;
#X connect 3 1 1 1;
#X connect 4 0 10 0;
#X connect 4 1 5 0;
#X connect 5 0 9 0;
#X connect 6 0 11 0;
#X connect 7 0 12 0;
#X connect 10 0 8 0;
#X connect 11 0 0 0;
#X connect 12 0 2 0;
#X restore 25 699 pd resizeSongitem;
#X obj 455 472 f \$2;
#X floatatom 456 520 5 0 0 0 - - - 0;
#X floatatom 548 389 5 0 0 0 R - - 0;
#X obj 547 363 f \$3;
#X floatatom 594 389 5 0 0 0 G - - 0;
#X obj 592 364 f \$4;
#X floatatom 642 390 5 0 0 0 B - - 0;
#X obj 630 365 f \$5;
#X obj 459 549 s newbuttontext;
#X obj 135 606 f;
#X obj 149 583 r newbuttontext;
#X obj 440 598 f;
#X obj 510 765 s \$1-PlayLoopPoolNumber;
#X floatatom 441 619 5 0 0 0 - - - 0;
#X obj 36 300 namecanvas \$0-thisitem;
#X obj 86 358 t b b b b b b b b b b b b b;
#X obj 436 573 t b f f;
#X obj 668 365 \$0;
#X msg 137 674 symbol [\$1];
#X listbox 137 653 20 0 0 0 - - - 0;
#X obj 261 236 bng 15 250 50 0 empty empty empty 17 7 0 10 #fcfcfc
#000000 #000000;
#X obj 676 518 \$1;
#X obj 441 642 sel 0;
#X floatatom 441 681 5 0 0 0 - - - 0;
#X floatatom 471 664 5 0 0 0 - - - 0;
#X msg 473 605 set \$1-loopPoolArray;
#X obj 439 76 nbx 5 14 0.01 1 1 0 empty empty Adjust_position_while_playing_wave._position_will_be_from_0to1
0 -8 0 10 #fcfcfc #000000 #000000 0 256;
#X obj 427 44 r \$1-ipPos;
#X msg 510 742 play;
#X obj 674 640 f;
#X obj 672 616 r loadmixerfile;
#X obj 674 710 f;
#X obj 705 802 s \$1-PlayLoopPoolNumber;
#X floatatom 675 731 5 0 0 0 - - - 0;
#X obj 675 754 sel 0;
#X floatatom 665 792 5 0 0 0 - - - 0;
#X floatatom 705 776 5 0 0 0 - - - 0;
#X msg 429 497 1;
#X obj 674 688 t b f;
#X obj 687 664 s \$1-poolarrayindex;
#X obj 439 97 == 0.01;
#X obj 486 209 tgl 15 0 empty empty empty 17 7 0 10 #fcfcfc #000000
#000000 0 1;
#X obj 441 230 spigot 0;
#X obj 441 192 t b f;
#X obj 439 119 == 1;
#X msg 719 752 1;
#X obj 441 278 t b;
#X obj 439 141 change;
#X obj 439 163 == 0;
#X obj 393 433 spigot 0;
#X obj 436 413 tgl 15 0 empty empty empty 17 7 0 10 #fcfcfc #000000
#000000 0 1;
#X obj 435 389 r LivePatternQ;
#X obj 441 253 del 20;
#X obj 33 49 hsl 85 15 0 1 0 0 \$1-posholdr-send \$1-posholdr-recv
empty -2 -8 0 10 #ffc8ff #404040 #404040 0 1;
#N canvas 403 141 1920 997 \$1-calcRGBColor 0;
#X obj 214 62 inlet;
#X obj 458 510 s;
#X obj 473 487 symbol;
#X obj 473 464 t b s;
#X obj 418 147 == 1;
#X obj 368 147 == 1;
#X obj 323 145 == 1;
#X obj 418 176 change;
#X obj 368 172 change;
#X obj 321 171 change;
#X obj 323 197 == 0;
#X obj 368 199 == 0;
#X obj 418 199 == 0;
#X obj 324 226 t b;
#X obj 367 225 t b;
#X obj 418 224 t b;
#X obj 467 148 == 1;
#X obj 467 177 change;
#X obj 467 200 == 0;
#X obj 467 225 t b;
#X obj 321 115 < 7;
#X obj 370 116 < 14;
#X obj 419 117 < 21;
#X obj 467 118 < 28;
#X obj 518 148 == 1;
#X obj 518 177 change;
#X obj 518 200 == 0;
#X obj 518 225 t b;
#X obj 569 148 == 1;
#X obj 569 177 change;
#X obj 569 200 == 0;
#X obj 569 225 t b;
#X obj 613 152 == 1;
#X obj 613 181 change;
#X obj 613 204 == 0;
#X obj 613 229 t b;
#X obj 667 151 == 1;
#X obj 667 180 change;
#X obj 667 203 == 0;
#X obj 667 228 t b;
#X obj 718 151 == 1;
#X obj 718 180 change;
#X obj 718 203 == 0;
#X obj 718 228 t b;
#X obj 518 118 < 35;
#X obj 569 118 < 42;
#X obj 613 122 < 49;
#X obj 667 121 < 56;
#X obj 718 121 < 64;
#X msg 718 268 11;
#X msg 667 268 10;
#X msg 613 269 9;
#X msg 569 265 8;
#X msg 518 265 7;
#X msg 467 265 6;
#X msg 418 264 5;
#X msg 373 262 4;
#X msg 326 261 3;
#X obj 435 41 t f f f f f f f f f f f;
#X obj 322 528 s \$1-programitemcolor;
#X msg 473 440 symbol \$1-posholdr-recv;
#X obj 554 507 outlet;
#X obj 334 324 changepoolrgbcolor \$1;
#X obj 473 416 else/count 1 64;
#X obj 331 302 else/count 3 18;
#X msg 700 331 1;
#X msg 768 329 11;
#X msg 211 174 1;
#X obj 214 106 f;
#X obj 214 84 t b f;
#X obj 116 103 r \$1-endpos;
#X obj 116 123 t b;
#X connect 0 0 69 0;
#X connect 2 0 1 1;
#X connect 3 0 2 0;
#X connect 3 1 2 1;
#X connect 4 0 7 0;
#X connect 5 0 8 0;
#X connect 6 0 9 0;
#X connect 7 0 12 0;
#X connect 8 0 11 0;
#X connect 9 0 10 0;
#X connect 10 0 13 0;
#X connect 11 0 14 0;
#X connect 12 0 15 0;
#X connect 13 0 57 0;
#X connect 14 0 56 0;
#X connect 15 0 55 0;
#X connect 16 0 17 0;
#X connect 17 0 18 0;
#X connect 18 0 19 0;
#X connect 19 0 54 0;
#X connect 20 0 6 0;
#X connect 21 0 5 0;
#X connect 22 0 4 0;
#X connect 23 0 16 0;
#X connect 24 0 25 0;
#X connect 25 0 26 0;
#X connect 26 0 27 0;
#X connect 27 0 53 0;
#X connect 28 0 29 0;
#X connect 29 0 30 0;
#X connect 30 0 31 0;
#X connect 31 0 52 0;
#X connect 32 0 33 0;
#X connect 33 0 34 0;
#X connect 34 0 35 0;
#X connect 35 0 51 0;
#X connect 36 0 37 0;
#X connect 37 0 38 0;
#X connect 38 0 39 0;
#X connect 39 0 50 0;
#X connect 40 0 41 0;
#X connect 41 0 42 0;
#X connect 42 0 43 0;
#X connect 43 0 49 0;
#X connect 44 0 24 0;
#X connect 45 0 28 0;
#X connect 46 0 32 0;
#X connect 47 0 36 0;
#X connect 48 0 40 0;
#X connect 49 0 62 1;
#X connect 50 0 62 1;
#X connect 51 0 62 1;
#X connect 52 0 62 1;
#X connect 53 0 62 1;
#X connect 54 0 62 1;
#X connect 55 0 62 1;
#X connect 56 0 62 1;
#X connect 57 0 62 1;
#X connect 58 0 64 0;
#X connect 58 1 63 0;
#X connect 58 2 20 0;
#X connect 58 3 21 0;
#X connect 58 4 22 0;
#X connect 58 5 23 0;
#X connect 58 6 44 0;
#X connect 58 7 45 0;
#X connect 58 8 46 0;
#X connect 58 9 47 0;
#X connect 58 10 48 0;
#X connect 60 0 3 0;
#X connect 62 0 59 0;
#X connect 62 0 61 0;
#X connect 62 2 1 0;
#X connect 63 0 60 0;
#X connect 64 0 62 0;
#X connect 65 0 62 0;
#X connect 66 0 62 1;
#X connect 67 0 64 0;
#X connect 68 0 58 0;
#X connect 69 0 68 0;
#X connect 69 1 68 1;
#X connect 70 0 71 0;
#X connect 71 0 68 0;
#X restore 782 694 pd \$1-calcRGBColor;
#X obj 464 356 \$1;
#N canvas 403 141 1920 997 \$1-calcRGBColorfailed 0;
#X obj 258 8 inlet;
#X obj 458 510 s;
#X obj 473 487 symbol;
#X obj 473 464 t b s;
#X obj 418 147 == 1;
#X obj 368 147 == 1;
#X obj 323 145 == 1;
#X obj 418 176 change;
#X obj 368 172 change;
#X obj 321 171 change;
#X obj 323 197 == 0;
#X obj 368 199 == 0;
#X obj 418 199 == 0;
#X obj 324 226 t b;
#X obj 367 225 t b;
#X obj 418 224 t b;
#X obj 467 148 == 1;
#X obj 467 177 change;
#X obj 467 200 == 0;
#X obj 467 225 t b;
#X obj 321 115 < 7;
#X obj 370 116 < 14;
#X obj 419 117 < 21;
#X obj 467 118 < 28;
#X obj 518 148 == 1;
#X obj 518 177 change;
#X obj 518 200 == 0;
#X obj 518 225 t b;
#X obj 569 148 == 1;
#X obj 569 177 change;
#X obj 569 200 == 0;
#X obj 569 225 t b;
#X obj 613 152 == 1;
#X obj 613 181 change;
#X obj 613 204 == 0;
#X obj 613 229 t b;
#X obj 667 151 == 1;
#X obj 667 180 change;
#X obj 667 203 == 0;
#X obj 667 228 t b;
#X obj 718 151 == 1;
#X obj 718 180 change;
#X obj 718 203 == 0;
#X obj 718 228 t b;
#X obj 518 118 < 35;
#X obj 569 118 < 42;
#X obj 613 122 < 49;
#X obj 667 121 < 56;
#X msg 718 268 11;
#X msg 667 268 10;
#X msg 613 269 9;
#X msg 569 265 8;
#X msg 518 265 7;
#X msg 467 265 6;
#X msg 418 264 5;
#X msg 373 262 4;
#X msg 326 261 3;
#X obj 435 41 t f f f f f f f f f f f;
#X obj 322 528 s \$1-programitemcolor;
#X msg 473 440 symbol \$1-posholdr-recv;
#X obj 554 507 outlet;
#X obj 334 324 changepoolrgbcolor \$1;
#X obj 473 416 else/count 1 64;
#X obj 339 296 else/count 3 18;
#X msg 700 331 1;
#X msg 768 329 11;
#X obj 254 131 f;
#X obj 132 6 r \$1-filefailed;
#X obj 256 39 t b b b;
#X obj 133 28 t b b b;
#X obj 189 107 bng 15 250 50 0 empty empty empty 17 7 0 10 #fcfcfc
#000000 #000000;
#X msg 269 107 1;
#X msg 292 80 11;
#X obj 189 83 del;
#X obj 718 121 < 65;
#X connect 0 0 57 0;
#X connect 2 0 1 1;
#X connect 3 0 2 0;
#X connect 3 1 2 1;
#X connect 4 0 7 0;
#X connect 5 0 8 0;
#X connect 6 0 9 0;
#X connect 7 0 12 0;
#X connect 8 0 11 0;
#X connect 9 0 10 0;
#X connect 10 0 13 0;
#X connect 11 0 14 0;
#X connect 12 0 15 0;
#X connect 13 0 56 0;
#X connect 14 0 55 0;
#X connect 15 0 54 0;
#X connect 16 0 17 0;
#X connect 17 0 18 0;
#X connect 18 0 19 0;
#X connect 19 0 53 0;
#X connect 20 0 6 0;
#X connect 21 0 5 0;
#X connect 22 0 4 0;
#X connect 23 0 16 0;
#X connect 24 0 25 0;
#X connect 25 0 26 0;
#X connect 26 0 27 0;
#X connect 27 0 52 0;
#X connect 28 0 29 0;
#X connect 29 0 30 0;
#X connect 30 0 31 0;
#X connect 31 0 51 0;
#X connect 32 0 33 0;
#X connect 33 0 34 0;
#X connect 34 0 35 0;
#X connect 35 0 50 0;
#X connect 36 0 37 0;
#X connect 37 0 38 0;
#X connect 38 0 39 0;
#X connect 39 0 49 0;
#X connect 40 0 41 0;
#X connect 41 0 42 0;
#X connect 42 0 43 0;
#X connect 43 0 48 0;
#X connect 44 0 24 0;
#X connect 45 0 28 0;
#X connect 46 0 32 0;
#X connect 47 0 36 0;
#X connect 48 0 61 1;
#X connect 49 0 61 1;
#X connect 50 0 61 1;
#X connect 51 0 61 1;
#X connect 52 0 61 1;
#X connect 53 0 61 1;
#X connect 54 0 61 1;
#X connect 55 0 61 1;
#X connect 56 0 61 1;
#X connect 57 0 63 0;
#X connect 57 1 62 0;
#X connect 57 2 20 0;
#X connect 57 3 21 0;
#X connect 57 4 22 0;
#X connect 57 5 23 0;
#X connect 57 6 44 0;
#X connect 57 7 45 0;
#X connect 57 8 46 0;
#X connect 57 9 47 0;
#X connect 57 10 74 0;
#X connect 59 0 3 0;
#X connect 61 0 58 0;
#X connect 61 0 60 0;
#X connect 61 2 1 0;
#X connect 62 0 59 0;
#X connect 63 0 61 0;
#X connect 64 0 61 0;
#X connect 65 0 61 1;
#X connect 66 0 61 0;
#X connect 67 0 69 0;
#X connect 68 0 66 0;
#X connect 68 1 71 0;
#X connect 68 2 72 0;
#X connect 69 0 73 0;
#X connect 69 1 71 0;
#X connect 69 2 72 0;
#X connect 70 0 66 0;
#X connect 71 0 66 1;
#X connect 72 0 61 1;
#X connect 73 0 70 0;
#X connect 74 0 40 0;
#X restore 775 718 pd \$1-calcRGBColorfailed;
#X obj 674 544 t b f f f f f;
#X obj 556 670 r livepatternnow;
#X obj 555 696 tgl 15 0 empty empty empty 17 7 0 10 #fcfcfc #000000
#000000 0 1;
#X obj 510 717 spigot 0;
#X obj 555 808 == 1;
#X obj 555 831 change;
#X obj 555 853 == 0;
#X obj 555 875 tgl 15 0 empty empty empty 17 7 0 10 #fcfcfc #000000
#000000 0 1;
#X obj 510 896 spigot 0;
#X obj 513 977 s \$1-PlayWaitPoolNumber;
#X msg 510 919 play;
#X obj 511 950 spigot 0;
#X obj 601 930 tgl 15 0 empty empty empty 17 7 0 10 #fcfcfc #000000
#000000 0 1;
#X obj 600 860 == 1;
#X obj 600 883 change;
#X obj 600 905 == 0;
#X obj 599 834 r tabplaying;
#X obj 135 629 list-abs/list-l2s;
#X obj 386 774 f;
#X obj 421 882 tgl 15 0 empty empty empty 17 7 0 10 #fcfcfc #000000
#000000 0 1;
#X obj 420 812 == 1;
#X obj 420 835 change;
#X obj 420 857 == 0;
#X obj 386 902 spigot;
#X obj 367 932 s \$1-nextwaitedloop;
#X connect 2 0 0 0;
#X connect 2 0 66 0;
#X connect 3 0 28 0;
#X connect 3 0 92 0;
#X connect 4 0 24 0;
#X connect 4 0 22 0;
#X connect 4 0 20 0;
#X connect 4 0 17 0;
#X connect 4 0 32 0;
#X connect 4 0 34 0;
#X connect 4 0 38 0;
#X connect 4 0 72 0;
#X connect 6 0 7 0;
#X connect 7 0 8 0;
#X connect 8 0 10 2;
#X connect 9 0 5 0;
#X connect 10 0 11 0;
#X connect 11 0 26 0;
#X connect 11 1 13 1;
#X connect 12 0 10 0;
#X connect 16 0 14 0;
#X connect 16 1 15 0;
#X connect 17 0 18 0;
#X connect 18 0 25 0;
#X connect 18 0 33 0;
#X connect 20 0 19 0;
#X connect 22 0 21 0;
#X connect 24 0 23 0;
#X connect 26 0 91 0;
#X connect 27 0 26 1;
#X connect 28 0 30 0;
#X connect 30 0 39 0;
#X connect 32 0 16 0;
#X connect 32 1 16 1;
#X connect 32 2 12 0;
#X connect 32 3 6 0;
#X connect 32 11 9 0;
#X connect 33 1 28 1;
#X connect 33 2 42 0;
#X connect 35 0 13 0;
#X connect 36 0 35 0;
#X connect 37 0 32 0;
#X connect 38 0 74 0;
#X connect 39 0 40 0;
#X connect 39 1 41 0;
#X connect 41 0 77 0;
#X connect 41 0 82 0;
#X connect 41 0 92 1;
#X connect 43 0 70 0;
#X connect 43 0 57 0;
#X connect 44 0 43 0;
#X connect 45 0 29 0;
#X connect 46 0 55 0;
#X connect 46 0 56 0;
#X connect 47 0 46 0;
#X connect 48 0 50 0;
#X connect 50 0 51 0;
#X connect 51 0 52 0;
#X connect 51 1 53 0;
#X connect 53 0 49 0;
#X connect 54 0 18 0;
#X connect 55 0 48 0;
#X connect 55 1 48 1;
#X connect 57 0 61 0;
#X connect 58 0 59 1;
#X connect 59 0 69 0;
#X connect 60 0 59 0;
#X connect 60 1 58 0;
#X connect 61 0 64 0;
#X connect 62 0 53 0;
#X connect 64 0 65 0;
#X connect 65 0 60 0;
#X connect 66 0 3 0;
#X connect 67 0 66 1;
#X connect 68 0 67 0;
#X connect 69 0 63 0;
#X connect 74 1 46 1;
#X connect 74 2 73 0;
#X connect 74 4 71 0;
#X connect 75 0 76 0;
#X connect 76 0 77 1;
#X connect 76 0 78 0;
#X connect 77 0 45 0;
#X connect 78 0 79 0;
#X connect 79 0 80 0;
#X connect 80 0 81 0;
#X connect 81 0 82 1;
#X connect 82 0 84 0;
#X connect 84 0 85 0;
#X connect 85 0 83 0;
#X connect 86 0 85 1;
#X connect 86 0 94 0;
#X connect 87 0 88 0;
#X connect 88 0 89 0;
#X connect 89 0 86 0;
#X connect 90 0 87 0;
#X connect 91 0 36 0;
#X connect 92 0 97 0;
#X connect 93 0 97 1;
#X connect 94 0 95 0;
#X connect 95 0 96 0;
#X connect 96 0 93 0;
#X connect 97 0 98 0;
#X coords 0 -1 1 1 90 35 2 30 30;
