#N canvas 817 157 604 570 12;
#X obj 100 100 cnv 15 30 20 \$1-togglebg-send \$1-togglebg-recv empty
20 12 0 14 #7c7c7c #404040 0;
#N canvas 235 76 934 843 \$0-mutetoggle 0;
#X obj 101 100 tgl 10 0 empty empty empty 17 7 0 10 #606060 #000000
#dcdcdc 0 1;
#X obj 169 598 s;
#X obj 171 442 f;
#X obj 171 420 t b f;
#X obj 100 206 spigot 0;
#X obj 145 162 tgl 15 0 empty empty empty 17 7 0 10 #fcfcfc #000000
#000000 0 1;
#X obj 145 139 change;
#X obj 145 116 == 0;
#X obj 216 372 tgl 15 0 empty empty empty 17 7 0 10 #fcfcfc #000000
#000000 0 1;
#X obj 171 345 change;
#X obj 171 395 spigot 0;
#X obj 171 322 == 0;
#X obj 171 366 t b f;
#X obj 171 462 t b b;
#X obj 240 357 s;
#X obj 100 251 f;
#X obj 100 229 t b f;
#X obj 100 271 t b b;
#X msg 169 551 color 16;
#X obj 145 184 t f f;
#X obj 56 129 tgl 15 0 empty empty empty 17 7 0 10 #fcfcfc #000000
#000000 0 1;
#X obj 55 150 t f b f;
#X obj 192 17 inlet;
#X obj 306 38 loadbang;
#X msg 144 94 0;
#X msg 19 274 color \$1;
#X floatatom 17 248 5 0 0 0 - - - 0;
#X obj 430 115 \$1;
#X msg 431 140 \$1;
#X floatatom 415 163 5 0 0 0 - - - 0;
#X obj 408 303 symbol;
#X obj 413 255 t b s;
#X msg 409 278 bang;
#X obj 414 201 t f f;
#X obj 146 712 symbol;
#X obj 145 671 t b s;
#X msg 141 694 bang;
#X obj 129 733 s;
#X msg 239 270 bang;
#X msg 279 243 \$1;
#X obj 240 297 f;
#X msg 240 327 color \$1;
#X obj 388 397 == 16;
#X obj 390 427 change;
#X obj 392 448 == 0;
#X obj 393 473 t b;
#X obj 397 500 bng 15 250 50 0 empty empty empty 17 7 0 10 #fcfcfc
#000000 #000000;
#X obj 396 534 tgl 15 0 empty empty empty 17 7 0 10 #fcfcfc #000000
#000000 0 1;
#X obj 349 555 spigot 0;
#X obj 488 466 change;
#X obj 491 512 t b;
#X obj 495 539 bng 15 250 50 0 empty empty empty 17 7 0 10 #fcfcfc
#000000 #000000;
#X obj 494 573 tgl 15 0 empty empty empty 17 7 0 10 #fcfcfc #000000
#000000 0 1;
#X obj 447 594 spigot 0;
#X obj 490 487 == 1;
#X obj 486 436 != 16;
#X msg 298 589 color 13;
#X obj 141 75 t b b;
#X text 184 764 comment;
#X symbolatom 168 742 10 0 0 0 - - - 0;
#X obj 218 222 t b b f;
#X obj 217 193 r \$0-NewUiColorColorNum;
#X obj 392 364 r \$0-NewUiColorColorNum;
#X obj 490 403 r \$0-NewUiColorColorNum;
#X obj 347 68 \$0;
#X msg 347 96 \$1;
#X floatatom 370 122 5 0 0 0 - - - 0;
#X msg 411 229 symbol \$1-mutetoggle-recv;
#X msg 144 648 symbol \$1-mutetoggle;
#X msg 306 113 2325;
#X obj 111 100 tgl 10 0 empty empty empty 17 7 0 10 #606060 #000000
#dcdcdc 0 1;
#X obj 100 100 cnv 10 22 10 \$1-mutetoggle-send \$1-mutetoggle-recv
empty 20 12 0 14 #14e814 #404040 0;
#X obj 486 319 r NewUiColorColorNum;
#X obj 584 358 r NewUiColorColorNum;
#X obj 192 170 r NewUiColorColorNum;
#X obj 494 177 f;
#X obj 486 143 bng 15 250 50 0 empty empty empty 17 7 0 10 #fcfcfc
#000000 #000000;
#X connect 0 0 20 0;
#X connect 2 0 13 0;
#X connect 3 0 2 0;
#X connect 3 1 2 1;
#X connect 4 0 16 0;
#X connect 5 0 19 0;
#X connect 6 0 5 0;
#X connect 7 0 6 0;
#X connect 8 0 10 1;
#X connect 9 0 12 0;
#X connect 10 0 3 0;
#X connect 11 0 9 0;
#X connect 12 0 10 0;
#X connect 12 1 8 0;
#X connect 13 0 18 0;
#X connect 13 0 48 0;
#X connect 13 1 32 0;
#X connect 15 0 17 0;
#X connect 16 0 15 0;
#X connect 16 1 15 1;
#X connect 17 0 38 0;
#X connect 17 1 32 0;
#X connect 18 0 53 0;
#X connect 19 0 4 1;
#X connect 19 1 11 0;
#X connect 20 0 21 0;
#X connect 21 0 37 0;
#X connect 21 1 4 0;
#X connect 21 2 7 0;
#X connect 22 0 20 0;
#X connect 23 0 27 0;
#X connect 23 0 57 0;
#X connect 23 0 64 0;
#X connect 24 0 7 0;
#X connect 24 0 20 0;
#X connect 25 0 14 0;
#X connect 26 0 25 0;
#X connect 27 0 28 0;
#X connect 28 0 29 0;
#X connect 29 0 75 1;
#X connect 29 0 33 0;
#X connect 30 0 14 1;
#X connect 30 0 1 1;
#X connect 31 0 32 0;
#X connect 31 1 30 1;
#X connect 32 0 30 0;
#X connect 33 0 67 0;
#X connect 33 1 68 0;
#X connect 34 0 37 1;
#X connect 34 0 59 0;
#X connect 35 0 36 0;
#X connect 35 1 34 1;
#X connect 36 0 34 0;
#X connect 38 0 40 0;
#X connect 39 0 40 1;
#X connect 40 0 41 0;
#X connect 41 0 14 0;
#X connect 42 0 43 0;
#X connect 43 0 44 0;
#X connect 44 0 45 0;
#X connect 45 0 46 0;
#X connect 46 0 47 0;
#X connect 47 0 48 1;
#X connect 48 0 56 0;
#X connect 49 0 54 0;
#X connect 50 0 51 0;
#X connect 51 0 52 0;
#X connect 52 0 53 1;
#X connect 53 0 1 0;
#X connect 54 0 50 0;
#X connect 55 0 49 0;
#X connect 56 0 1 0;
#X connect 57 0 24 0;
#X connect 57 1 24 0;
#X connect 60 0 10 0;
#X connect 60 1 38 0;
#X connect 60 2 39 0;
#X connect 61 0 60 0;
#X connect 62 0 42 0;
#X connect 63 0 55 0;
#X connect 64 0 65 0;
#X connect 65 0 66 0;
#X connect 67 0 31 0;
#X connect 68 0 35 0;
#X connect 69 0 66 0;
#X connect 70 0 20 0;
#X connect 72 0 42 0;
#X connect 73 0 55 0;
#X connect 74 0 60 0;
#X connect 75 0 33 0;
#X connect 76 0 75 0;
#X coords 0 -1 1 1 22 10 2 100 100;
#X restore 104 106 pd \$0-mutetoggle;
#X obj 275 79 loadbang;
#X obj 275 106 \$1;
#X msg 275 131 \$1;
#X floatatom 294 187 5 0 0 0 - - - 0;
#X obj 294 163 r currentstep;
#X obj 294 236 ==;
#X floatatom 294 259 5 0 0 0 - - - 0;
#N canvas -4 -4 1920 1014 changeactivestepcolor 0;
#X obj 60 62 t f b;
#X obj 24 122 change;
#X obj 24 169 sel 1;
#X obj 24 147 == 0;
#X obj 229 120 change;
#X obj 227 184 sel 1;
#X obj 229 145 == 0;
#X obj 229 97 > 0;
#X obj 24 99 <= 0;
#X obj 60 26 inlet;
#X obj 211 13 loadbang;
#X obj 24 198 \$1;
#X obj 227 212 \$1;
#X floatatom 61 241 5 0 0 0 - - - 0;
#X floatatom 235 239 5 0 0 0 - - - 0;
#X msg 240 68 \$1;
#X obj 228 40 \$1;
#X msg 22 265 \; \$1-togglebg-recv color 46;
#X msg 377 303 \$1;
#X obj 360 164 pack \$1 \$2 \$3 \$4 \$5;
#X floatatom 315 108 5 0 0 0 - - - 0;
#X floatatom 379 326 5 0 0 0 - - - 0;
#X floatatom 1115 72 5 0 0 0 - - - 0;
#X floatatom 1193 71 5 0 0 0 - - - 0;
#X floatatom 1272 71 5 0 0 0 - - - 0;
#X floatatom 1353 71 5 0 0 0 - - - 0;
#X msg 1116 48 \$2;
#X msg 1194 47 \$3;
#X msg 1273 47 \$4;
#X msg 1354 47 \$5;
#X obj 378 423 t b f f;
#X obj 570 419 t b f f;
#X obj 397 454 pack \$1 \$2;
#X msg 440 487 \$2;
#X obj 379 372 change;
#X msg 397 487 \$1;
#X obj 378 394 == 1;
#X msg 159 661 \$2;
#X msg 214 703 \$1;
#X floatatom 424 348 5 0 0 0 - - - 0;
#X msg 570 300 \$1;
#X floatatom 572 323 5 0 0 0 - - - 0;
#X obj 571 346 == 1;
#X obj 571 369 change;
#X obj 570 391 == 1;
#X floatatom 705 472 5 0 0 0 - - - 0;
#X obj 378 349 == 0;
#X obj 589 449 pack \$1 \$2;
#X msg 629 482 \$2;
#X msg 586 482 \$1;
#X obj 307 703 pack \$1 \$2;
#X obj 290 269 t f f;
#X obj 629 508 spigot 0;
#X obj 684 488 tgl 15 0 empty empty empty 17 7 0 10 #fcfcfc #000000
#000000 0 1;
#X floatatom 516 477 5 0 0 0 - - - 0;
#X obj 440 513 spigot 0;
#X obj 495 493 tgl 15 0 empty empty empty 17 7 0 10 #fcfcfc #000000
#000000 0 1;
#X obj 761 419 t b f f;
#X msg 759 303 \$1;
#X floatatom 761 326 5 0 0 0 - - - 0;
#X obj 760 372 change;
#X obj 759 394 == 1;
#X floatatom 896 472 5 0 0 0 - - - 0;
#X obj 780 449 pack \$1 \$2;
#X msg 820 482 \$2;
#X msg 777 482 \$1;
#X obj 820 508 spigot 0;
#X obj 875 488 tgl 15 0 empty empty empty 17 7 0 10 #fcfcfc #000000
#000000 0 1;
#X obj 760 349 == 2;
#X obj 961 414 t b f f;
#X msg 959 298 \$1;
#X floatatom 961 321 5 0 0 0 - - - 0;
#X obj 960 367 change;
#X obj 959 389 == 1;
#X floatatom 1096 467 5 0 0 0 - - - 0;
#X obj 980 444 pack \$1 \$2;
#X msg 1020 477 \$2;
#X msg 977 477 \$1;
#X obj 1020 503 spigot 0;
#X obj 1075 483 tgl 15 0 empty empty empty 17 7 0 10 #fcfcfc #000000
#000000 0 1;
#X obj 960 344 == 3;
#X msg 1176 291 \$1;
#X floatatom 1178 314 5 0 0 0 - - - 0;
#X obj 1177 411 t b f f;
#X obj 1369 407 t b f f;
#X obj 1196 442 pack \$1 \$2;
#X msg 1239 475 \$2;
#X obj 1178 360 change;
#X msg 1196 475 \$1;
#X obj 1177 382 == 1;
#X floatatom 1223 336 5 0 0 0 - - - 0;
#X msg 1369 288 \$1;
#X floatatom 1371 311 5 0 0 0 - - - 0;
#X obj 1370 357 change;
#X obj 1369 379 == 1;
#X floatatom 1504 460 5 0 0 0 - - - 0;
#X obj 1388 437 pack \$1 \$2;
#X msg 1428 470 \$2;
#X msg 1385 470 \$1;
#X obj 1428 496 spigot 0;
#X obj 1483 476 tgl 15 0 empty empty empty 17 7 0 10 #fcfcfc #000000
#000000 0 1;
#X floatatom 1315 465 5 0 0 0 - - - 0;
#X obj 1239 501 spigot 0;
#X obj 1294 481 tgl 15 0 empty empty empty 17 7 0 10 #fcfcfc #000000
#000000 0 1;
#X obj 1560 407 t b f f;
#X msg 1558 291 \$1;
#X floatatom 1560 314 5 0 0 0 - - - 0;
#X obj 1559 360 change;
#X obj 1558 382 == 1;
#X floatatom 1695 460 5 0 0 0 - - - 0;
#X obj 1579 437 pack \$1 \$2;
#X msg 1619 470 \$2;
#X msg 1576 470 \$1;
#X obj 1619 496 spigot 0;
#X obj 1674 476 tgl 15 0 empty empty empty 17 7 0 10 #fcfcfc #000000
#000000 0 1;
#X obj 1760 402 t b f f;
#X msg 1758 286 \$1;
#X floatatom 1760 309 5 0 0 0 - - - 0;
#X obj 1759 355 change;
#X obj 1758 377 == 1;
#X floatatom 1895 455 5 0 0 0 - - - 0;
#X obj 1779 432 pack \$1 \$2;
#X msg 1819 465 \$2;
#X msg 1776 465 \$1;
#X obj 1819 491 spigot 0;
#X obj 1874 471 tgl 15 0 empty empty empty 17 7 0 10 #fcfcfc #000000
#000000 0 1;
#X obj 1177 337 == 4;
#X obj 1370 334 == 5;
#X obj 1559 337 == 6;
#X obj 1759 332 == 7;
#X msg 2012 277 \$1;
#X floatatom 2014 300 5 0 0 0 - - - 0;
#X obj 2013 397 t b f f;
#X obj 2205 393 t b f f;
#X obj 2032 428 pack \$1 \$2;
#X msg 2075 461 \$2;
#X obj 2014 346 change;
#X msg 2032 461 \$1;
#X obj 2013 368 == 1;
#X floatatom 2059 322 5 0 0 0 - - - 0;
#X msg 2205 274 \$1;
#X floatatom 2207 297 5 0 0 0 - - - 0;
#X obj 2206 343 change;
#X obj 2205 365 == 1;
#X floatatom 2340 446 5 0 0 0 - - - 0;
#X obj 2224 423 pack \$1 \$2;
#X msg 2264 456 \$2;
#X msg 2221 456 \$1;
#X obj 2264 482 spigot 0;
#X obj 2319 462 tgl 15 0 empty empty empty 17 7 0 10 #fcfcfc #000000
#000000 0 1;
#X floatatom 2151 451 5 0 0 0 - - - 0;
#X obj 2075 487 spigot 0;
#X obj 2130 467 tgl 15 0 empty empty empty 17 7 0 10 #fcfcfc #000000
#000000 0 1;
#X obj 2396 393 t b f f;
#X msg 2394 277 \$1;
#X floatatom 2396 300 5 0 0 0 - - - 0;
#X obj 2395 346 change;
#X obj 2394 368 == 1;
#X floatatom 2531 446 5 0 0 0 - - - 0;
#X obj 2415 423 pack \$1 \$2;
#X msg 2455 456 \$2;
#X msg 2412 456 \$1;
#X obj 2455 482 spigot 0;
#X obj 2510 462 tgl 15 0 empty empty empty 17 7 0 10 #fcfcfc #000000
#000000 0 1;
#X obj 2596 388 t b f f;
#X msg 2594 272 \$1;
#X floatatom 2596 295 5 0 0 0 - - - 0;
#X obj 2595 341 change;
#X obj 2594 363 == 1;
#X floatatom 2731 441 5 0 0 0 - - - 0;
#X obj 2615 418 pack \$1 \$2;
#X msg 2655 451 \$2;
#X msg 2612 451 \$1;
#X obj 2655 477 spigot 0;
#X obj 2710 457 tgl 15 0 empty empty empty 17 7 0 10 #fcfcfc #000000
#000000 0 1;
#X msg 2811 265 \$1;
#X floatatom 2813 288 5 0 0 0 - - - 0;
#X obj 2812 385 t b f f;
#X obj 3004 381 t b f f;
#X obj 2831 416 pack \$1 \$2;
#X msg 2874 449 \$2;
#X obj 2813 334 change;
#X msg 2831 449 \$1;
#X obj 2812 356 == 1;
#X floatatom 2858 310 5 0 0 0 - - - 0;
#X msg 3004 262 \$1;
#X floatatom 3006 285 5 0 0 0 - - - 0;
#X obj 3005 331 change;
#X obj 3004 353 == 1;
#X floatatom 3139 434 5 0 0 0 - - - 0;
#X obj 3023 411 pack \$1 \$2;
#X msg 3063 444 \$2;
#X msg 3020 444 \$1;
#X obj 3063 470 spigot 0;
#X obj 3118 450 tgl 15 0 empty empty empty 17 7 0 10 #fcfcfc #000000
#000000 0 1;
#X floatatom 2950 439 5 0 0 0 - - - 0;
#X obj 2874 475 spigot 0;
#X obj 2929 455 tgl 15 0 empty empty empty 17 7 0 10 #fcfcfc #000000
#000000 0 1;
#X obj 3195 381 t b f f;
#X msg 3193 265 \$1;
#X floatatom 3195 288 5 0 0 0 - - - 0;
#X obj 3194 334 change;
#X obj 3193 356 == 1;
#X floatatom 3330 434 5 0 0 0 - - - 0;
#X obj 3214 411 pack \$1 \$2;
#X msg 3254 444 \$2;
#X msg 3211 444 \$1;
#X obj 3254 470 spigot 0;
#X obj 3309 450 tgl 15 0 empty empty empty 17 7 0 10 #fcfcfc #000000
#000000 0 1;
#X obj 3400 375 t b f f;
#X msg 3401 259 \$1;
#X floatatom 3400 282 5 0 0 0 - - - 0;
#X obj 3399 328 change;
#X obj 3398 350 == 1;
#X obj 3419 405 pack \$1 \$2;
#X msg 3459 438 \$2;
#X msg 3416 438 \$1;
#X obj 3459 464 spigot 0;
#X obj 3514 444 tgl 15 0 empty empty empty 17 7 0 10 #fcfcfc #000000
#000000 0 1;
#X obj 2013 323 == 8;
#X obj 2206 320 == 9;
#X obj 2395 323 == 10;
#X obj 2595 318 == 11;
#X obj 2812 311 == 12;
#X obj 3005 308 == 13;
#X obj 3194 311 == 14;
#X obj 3399 305 == 15;
#X floatatom 3527 424 5 0 0 0 - - - 0;
#X obj 430 53 hsl 128 15 0 127 0 0 empty empty empty -2 -8 0 10 #fcfcfc
#000000 #000000 0 1;
#X floatatom 465 83 5 0 0 0 - - - 0;
#X msg 363 108 20;
#X msg 424 109 101;
#X msg 453 109 21;
#X msg 485 109 62;
#X obj 159 635 pack \$1 \$2 \$3;
#X obj 154 536 t f;
#X obj 154 517 t f b;
#X msg 150 602 0;
#X floatatom 207 738 5 0 0 0 - - - 0;
#X floatatom 146 694 5 0 0 0 - - - 0;
#X msg 519 818 \; \$1-octlbl-recv color \$2;
#X msg 297 818 \; \$1-togglebg-recv color \$2;
#X obj 196 606 t f;
#X obj 372 658 t f;
#X msg 694 678 \$1;
#X floatatom 696 701 5 0 0 0 - - - 0;
#X obj 695 798 t b f f;
#X obj 887 794 t b f f;
#X obj 714 829 pack \$1 \$2;
#X msg 757 862 \$2;
#X obj 696 747 change;
#X msg 714 862 \$1;
#X obj 695 769 == 1;
#X floatatom 741 723 5 0 0 0 - - - 0;
#X msg 887 675 \$1;
#X floatatom 889 698 5 0 0 0 - - - 0;
#X obj 888 744 change;
#X obj 887 766 == 1;
#X floatatom 1022 847 5 0 0 0 - - - 0;
#X obj 906 824 pack \$1 \$2;
#X msg 946 857 \$2;
#X msg 903 857 \$1;
#X obj 946 883 spigot 0;
#X obj 1001 863 tgl 15 0 empty empty empty 17 7 0 10 #fcfcfc #000000
#000000 0 1;
#X floatatom 833 852 5 0 0 0 - - - 0;
#X obj 757 888 spigot 0;
#X obj 812 868 tgl 15 0 empty empty empty 17 7 0 10 #fcfcfc #000000
#000000 0 1;
#X obj 1078 794 t b f f;
#X msg 1076 678 \$1;
#X floatatom 1078 701 5 0 0 0 - - - 0;
#X obj 1077 747 change;
#X obj 1076 769 == 1;
#X floatatom 1213 847 5 0 0 0 - - - 0;
#X obj 1097 824 pack \$1 \$2;
#X msg 1137 857 \$2;
#X msg 1094 857 \$1;
#X obj 1137 883 spigot 0;
#X obj 1192 863 tgl 15 0 empty empty empty 17 7 0 10 #fcfcfc #000000
#000000 0 1;
#X obj 1278 789 t b f f;
#X msg 1276 673 \$1;
#X floatatom 1278 696 5 0 0 0 - - - 0;
#X obj 1277 742 change;
#X obj 1276 764 == 1;
#X floatatom 1413 842 5 0 0 0 - - - 0;
#X obj 1297 819 pack \$1 \$2;
#X msg 1337 852 \$2;
#X msg 1294 852 \$1;
#X obj 1337 878 spigot 0;
#X obj 1392 858 tgl 15 0 empty empty empty 17 7 0 10 #fcfcfc #000000
#000000 0 1;
#X msg 1493 666 \$1;
#X floatatom 1495 689 5 0 0 0 - - - 0;
#X obj 1494 786 t b f f;
#X obj 1686 782 t b f f;
#X obj 1513 817 pack \$1 \$2;
#X msg 1556 850 \$2;
#X obj 1495 735 change;
#X msg 1513 850 \$1;
#X obj 1494 757 == 1;
#X floatatom 1540 711 5 0 0 0 - - - 0;
#X msg 1686 663 \$1;
#X floatatom 1688 686 5 0 0 0 - - - 0;
#X obj 1687 732 change;
#X obj 1686 754 == 1;
#X floatatom 1821 835 5 0 0 0 - - - 0;
#X obj 1705 812 pack \$1 \$2;
#X msg 1745 845 \$2;
#X msg 1702 845 \$1;
#X obj 1745 871 spigot 0;
#X obj 1800 851 tgl 15 0 empty empty empty 17 7 0 10 #fcfcfc #000000
#000000 0 1;
#X floatatom 1632 840 5 0 0 0 - - - 0;
#X obj 1556 876 spigot 0;
#X obj 1611 856 tgl 15 0 empty empty empty 17 7 0 10 #fcfcfc #000000
#000000 0 1;
#X obj 1877 782 t b f f;
#X msg 1875 666 \$1;
#X floatatom 1877 689 5 0 0 0 - - - 0;
#X obj 1876 735 change;
#X obj 1875 757 == 1;
#X floatatom 2012 835 5 0 0 0 - - - 0;
#X obj 1896 812 pack \$1 \$2;
#X msg 1936 845 \$2;
#X msg 1893 845 \$1;
#X obj 1936 871 spigot 0;
#X obj 1991 851 tgl 15 0 empty empty empty 17 7 0 10 #fcfcfc #000000
#000000 0 1;
#X obj 2077 777 t b f f;
#X msg 2075 661 \$1;
#X floatatom 2077 684 5 0 0 0 - - - 0;
#X obj 2076 730 change;
#X obj 2075 752 == 1;
#X floatatom 2212 830 5 0 0 0 - - - 0;
#X obj 2096 807 pack \$1 \$2;
#X msg 2136 840 \$2;
#X msg 2093 840 \$1;
#X obj 2136 866 spigot 0;
#X obj 2191 846 tgl 15 0 empty empty empty 17 7 0 10 #fcfcfc #000000
#000000 0 1;
#X msg 2329 652 \$1;
#X floatatom 2331 675 5 0 0 0 - - - 0;
#X obj 2330 772 t b f f;
#X obj 2522 768 t b f f;
#X obj 2349 803 pack \$1 \$2;
#X msg 2392 836 \$2;
#X obj 2331 721 change;
#X msg 2349 836 \$1;
#X obj 2330 743 == 1;
#X floatatom 2376 697 5 0 0 0 - - - 0;
#X msg 2522 649 \$1;
#X floatatom 2524 672 5 0 0 0 - - - 0;
#X obj 2523 718 change;
#X obj 2522 740 == 1;
#X floatatom 2657 821 5 0 0 0 - - - 0;
#X obj 2541 798 pack \$1 \$2;
#X msg 2581 831 \$2;
#X msg 2538 831 \$1;
#X obj 2581 857 spigot 0;
#X obj 2636 837 tgl 15 0 empty empty empty 17 7 0 10 #fcfcfc #000000
#000000 0 1;
#X floatatom 2468 826 5 0 0 0 - - - 0;
#X obj 2392 862 spigot 0;
#X obj 2447 842 tgl 15 0 empty empty empty 17 7 0 10 #fcfcfc #000000
#000000 0 1;
#X obj 2713 768 t b f f;
#X msg 2711 652 \$1;
#X floatatom 2713 675 5 0 0 0 - - - 0;
#X obj 2712 721 change;
#X obj 2711 743 == 1;
#X floatatom 2848 821 5 0 0 0 - - - 0;
#X obj 2732 798 pack \$1 \$2;
#X msg 2772 831 \$2;
#X msg 2729 831 \$1;
#X obj 2772 857 spigot 0;
#X obj 2827 837 tgl 15 0 empty empty empty 17 7 0 10 #fcfcfc #000000
#000000 0 1;
#X obj 2913 763 t b f f;
#X msg 2911 647 \$1;
#X floatatom 2913 670 5 0 0 0 - - - 0;
#X obj 2912 716 change;
#X obj 2911 738 == 1;
#X floatatom 3048 816 5 0 0 0 - - - 0;
#X obj 2932 793 pack \$1 \$2;
#X msg 2972 826 \$2;
#X msg 2929 826 \$1;
#X obj 2972 852 spigot 0;
#X obj 3027 832 tgl 15 0 empty empty empty 17 7 0 10 #fcfcfc #000000
#000000 0 1;
#X msg 3128 640 \$1;
#X floatatom 3130 663 5 0 0 0 - - - 0;
#X obj 3129 760 t b f f;
#X obj 3321 756 t b f f;
#X obj 3148 791 pack \$1 \$2;
#X msg 3191 824 \$2;
#X obj 3130 709 change;
#X msg 3148 824 \$1;
#X obj 3129 731 == 1;
#X floatatom 3175 685 5 0 0 0 - - - 0;
#X msg 3321 637 \$1;
#X floatatom 3323 660 5 0 0 0 - - - 0;
#X obj 3322 706 change;
#X obj 3321 728 == 1;
#X floatatom 3456 809 5 0 0 0 - - - 0;
#X obj 3340 786 pack \$1 \$2;
#X msg 3380 819 \$2;
#X msg 3337 819 \$1;
#X obj 3380 845 spigot 0;
#X obj 3435 825 tgl 15 0 empty empty empty 17 7 0 10 #fcfcfc #000000
#000000 0 1;
#X floatatom 3267 814 5 0 0 0 - - - 0;
#X obj 3191 850 spigot 0;
#X obj 3246 830 tgl 15 0 empty empty empty 17 7 0 10 #fcfcfc #000000
#000000 0 1;
#X obj 3512 756 t b f f;
#X msg 3510 640 \$1;
#X floatatom 3512 663 5 0 0 0 - - - 0;
#X obj 3511 709 change;
#X obj 3510 731 == 1;
#X floatatom 3647 809 5 0 0 0 - - - 0;
#X obj 3531 786 pack \$1 \$2;
#X msg 3571 819 \$2;
#X msg 3528 819 \$1;
#X obj 3571 845 spigot 0;
#X obj 3626 825 tgl 15 0 empty empty empty 17 7 0 10 #fcfcfc #000000
#000000 0 1;
#X obj 3717 750 t b f f;
#X msg 3718 634 \$1;
#X floatatom 3717 657 5 0 0 0 - - - 0;
#X obj 3716 703 change;
#X obj 3715 725 == 1;
#X obj 3736 780 pack \$1 \$2;
#X msg 3776 813 \$2;
#X msg 3733 813 \$1;
#X obj 3776 839 spigot 0;
#X obj 3831 819 tgl 15 0 empty empty empty 17 7 0 10 #fcfcfc #000000
#000000 0 1;
#X floatatom 3844 799 5 0 0 0 - - - 0;
#X obj 695 724 == 16;
#X obj 888 721 == 17;
#X obj 1077 724 == 18;
#X obj 1277 719 == 19;
#X obj 1495 712 == 20;
#X obj 1687 709 == 21;
#X obj 1876 712 == 22;
#X obj 2076 707 == 23;
#X obj 2330 698 == 24;
#X obj 2523 695 == 25;
#X obj 2712 698 == 26;
#X obj 2914 695 == 27;
#X obj 3129 686 == 28;
#X obj 3322 683 == 29;
#X obj 3511 686 == 30;
#X obj 3716 680 == 31;
#X connect 0 0 7 0;
#X connect 0 0 8 0;
#X connect 0 1 228 0;
#X connect 1 0 3 0;
#X connect 2 0 11 0;
#X connect 3 0 2 0;
#X connect 4 0 6 0;
#X connect 5 0 12 0;
#X connect 6 0 5 0;
#X connect 7 0 4 0;
#X connect 8 0 1 0;
#X connect 9 0 0 0;
#X connect 10 0 16 0;
#X connect 11 0 13 0;
#X connect 11 0 17 0;
#X connect 12 0 14 0;
#X connect 14 0 51 0;
#X connect 15 0 0 0;
#X connect 16 0 15 0;
#X connect 16 0 230 0;
#X connect 16 0 233 0;
#X connect 16 0 232 0;
#X connect 16 0 231 0;
#X connect 16 0 20 0;
#X connect 18 0 21 0;
#X connect 18 0 242 0;
#X connect 19 0 26 0;
#X connect 19 0 29 0;
#X connect 19 0 28 0;
#X connect 19 0 27 0;
#X connect 19 0 18 0;
#X connect 19 0 81 0;
#X connect 19 0 70 0;
#X connect 19 0 58 0;
#X connect 19 0 40 0;
#X connect 19 0 210 0;
#X connect 19 0 199 0;
#X connect 19 0 185 0;
#X connect 19 0 175 0;
#X connect 19 0 165 0;
#X connect 19 0 154 0;
#X connect 19 0 140 0;
#X connect 19 0 130 0;
#X connect 19 0 116 0;
#X connect 19 0 105 0;
#X connect 19 0 91 0;
#X connect 19 0 244 0;
#X connect 19 0 414 0;
#X connect 19 0 403 0;
#X connect 19 0 389 0;
#X connect 19 0 379 0;
#X connect 19 0 369 0;
#X connect 19 0 358 0;
#X connect 19 0 344 0;
#X connect 19 0 334 0;
#X connect 19 0 324 0;
#X connect 19 0 313 0;
#X connect 19 0 299 0;
#X connect 19 0 289 0;
#X connect 19 0 279 0;
#X connect 19 0 268 0;
#X connect 19 0 254 0;
#X connect 20 0 19 0;
#X connect 21 0 46 0;
#X connect 22 0 30 0;
#X connect 22 0 83 0;
#X connect 22 0 132 0;
#X connect 22 0 177 0;
#X connect 22 0 246 0;
#X connect 22 0 291 0;
#X connect 22 0 336 0;
#X connect 22 0 381 0;
#X connect 23 0 31 0;
#X connect 23 0 84 0;
#X connect 23 0 133 0;
#X connect 23 0 178 0;
#X connect 23 0 247 0;
#X connect 23 0 292 0;
#X connect 23 0 337 0;
#X connect 23 0 382 0;
#X connect 24 0 57 0;
#X connect 24 0 110 0;
#X connect 24 0 153 0;
#X connect 24 0 198 0;
#X connect 24 0 267 0;
#X connect 24 0 312 0;
#X connect 24 0 357 0;
#X connect 24 0 402 0;
#X connect 25 0 69 0;
#X connect 25 0 115 0;
#X connect 25 0 164 0;
#X connect 25 0 209 0;
#X connect 25 0 278 0;
#X connect 25 0 323 0;
#X connect 25 0 368 0;
#X connect 25 0 413 0;
#X connect 26 0 22 0;
#X connect 27 0 23 0;
#X connect 28 0 24 0;
#X connect 29 0 25 0;
#X connect 30 1 32 0;
#X connect 30 2 32 1;
#X connect 31 1 47 0;
#X connect 31 2 47 1;
#X connect 32 0 33 0;
#X connect 32 0 35 0;
#X connect 33 0 55 0;
#X connect 34 0 36 0;
#X connect 36 0 30 0;
#X connect 37 0 50 0;
#X connect 37 0 239 0;
#X connect 38 0 238 0;
#X connect 40 0 41 0;
#X connect 41 0 42 0;
#X connect 42 0 43 0;
#X connect 42 0 45 0;
#X connect 43 0 44 0;
#X connect 44 0 31 0;
#X connect 45 0 53 0;
#X connect 46 0 34 0;
#X connect 46 0 39 0;
#X connect 46 0 54 0;
#X connect 47 0 48 0;
#X connect 47 0 49 0;
#X connect 48 0 52 0;
#X connect 50 0 241 0;
#X connect 51 0 19 0;
#X connect 51 1 50 0;
#X connect 52 0 243 0;
#X connect 52 0 236 0;
#X connect 53 0 52 1;
#X connect 54 0 56 0;
#X connect 55 0 243 0;
#X connect 55 0 236 0;
#X connect 56 0 55 1;
#X connect 57 1 63 0;
#X connect 57 2 63 1;
#X connect 58 0 59 0;
#X connect 59 0 68 0;
#X connect 60 0 61 0;
#X connect 61 0 57 0;
#X connect 62 0 67 0;
#X connect 63 0 64 0;
#X connect 63 0 65 0;
#X connect 64 0 66 0;
#X connect 66 0 243 0;
#X connect 66 0 236 0;
#X connect 67 0 66 1;
#X connect 68 0 60 0;
#X connect 68 0 62 0;
#X connect 69 1 75 0;
#X connect 69 2 75 1;
#X connect 70 0 71 0;
#X connect 71 0 80 0;
#X connect 72 0 73 0;
#X connect 73 0 69 0;
#X connect 74 0 79 0;
#X connect 75 0 76 0;
#X connect 75 0 77 0;
#X connect 76 0 78 0;
#X connect 78 0 243 0;
#X connect 78 0 236 0;
#X connect 79 0 78 1;
#X connect 80 0 72 0;
#X connect 80 0 74 0;
#X connect 81 0 82 0;
#X connect 82 0 126 0;
#X connect 83 1 85 0;
#X connect 83 2 85 1;
#X connect 84 1 96 0;
#X connect 84 2 96 1;
#X connect 85 0 86 0;
#X connect 85 0 88 0;
#X connect 86 0 102 0;
#X connect 87 0 89 0;
#X connect 89 0 83 0;
#X connect 91 0 92 0;
#X connect 92 0 127 0;
#X connect 93 0 94 0;
#X connect 94 0 84 0;
#X connect 95 0 100 0;
#X connect 96 0 97 0;
#X connect 96 0 98 0;
#X connect 97 0 99 0;
#X connect 99 0 243 0;
#X connect 99 0 236 0;
#X connect 100 0 99 1;
#X connect 101 0 103 0;
#X connect 102 0 243 0;
#X connect 102 0 236 0;
#X connect 103 0 102 1;
#X connect 104 1 110 0;
#X connect 104 2 110 1;
#X connect 105 0 106 0;
#X connect 106 0 128 0;
#X connect 107 0 108 0;
#X connect 108 0 104 0;
#X connect 109 0 114 0;
#X connect 110 0 111 0;
#X connect 110 0 112 0;
#X connect 111 0 113 0;
#X connect 113 0 243 0;
#X connect 113 0 236 0;
#X connect 114 0 113 1;
#X connect 115 1 121 0;
#X connect 115 2 121 1;
#X connect 116 0 117 0;
#X connect 117 0 129 0;
#X connect 118 0 119 0;
#X connect 119 0 115 0;
#X connect 120 0 125 0;
#X connect 121 0 122 0;
#X connect 121 0 123 0;
#X connect 122 0 124 0;
#X connect 124 0 243 0;
#X connect 124 0 236 0;
#X connect 125 0 124 1;
#X connect 126 0 87 0;
#X connect 126 0 90 0;
#X connect 126 0 101 0;
#X connect 127 0 93 0;
#X connect 127 0 95 0;
#X connect 128 0 107 0;
#X connect 128 0 109 0;
#X connect 129 0 118 0;
#X connect 129 0 120 0;
#X connect 130 0 131 0;
#X connect 131 0 219 0;
#X connect 132 1 134 0;
#X connect 132 2 134 1;
#X connect 133 1 145 0;
#X connect 133 2 145 1;
#X connect 134 0 135 0;
#X connect 134 0 137 0;
#X connect 135 0 151 0;
#X connect 136 0 138 0;
#X connect 138 0 132 0;
#X connect 140 0 141 0;
#X connect 141 0 220 0;
#X connect 142 0 143 0;
#X connect 143 0 133 0;
#X connect 144 0 149 0;
#X connect 145 0 146 0;
#X connect 145 0 147 0;
#X connect 146 0 148 0;
#X connect 148 0 243 0;
#X connect 148 0 236 0;
#X connect 149 0 148 1;
#X connect 150 0 152 0;
#X connect 151 0 243 0;
#X connect 151 0 236 0;
#X connect 152 0 151 1;
#X connect 153 1 159 0;
#X connect 153 2 159 1;
#X connect 154 0 155 0;
#X connect 155 0 221 0;
#X connect 156 0 157 0;
#X connect 157 0 153 0;
#X connect 158 0 163 0;
#X connect 159 0 160 0;
#X connect 159 0 161 0;
#X connect 160 0 162 0;
#X connect 162 0 243 0;
#X connect 162 0 236 0;
#X connect 163 0 162 1;
#X connect 164 1 170 0;
#X connect 164 2 170 1;
#X connect 165 0 166 0;
#X connect 166 0 222 0;
#X connect 167 0 168 0;
#X connect 168 0 164 0;
#X connect 169 0 174 0;
#X connect 170 0 171 0;
#X connect 170 0 172 0;
#X connect 171 0 173 0;
#X connect 173 0 243 0;
#X connect 173 0 236 0;
#X connect 174 0 173 1;
#X connect 175 0 176 0;
#X connect 176 0 223 0;
#X connect 177 1 179 0;
#X connect 177 2 179 1;
#X connect 178 1 190 0;
#X connect 178 2 190 1;
#X connect 179 0 180 0;
#X connect 179 0 182 0;
#X connect 180 0 196 0;
#X connect 181 0 183 0;
#X connect 183 0 177 0;
#X connect 185 0 186 0;
#X connect 186 0 224 0;
#X connect 187 0 188 0;
#X connect 188 0 178 0;
#X connect 189 0 194 0;
#X connect 190 0 191 0;
#X connect 190 0 192 0;
#X connect 191 0 193 0;
#X connect 193 0 243 0;
#X connect 193 0 236 0;
#X connect 194 0 193 1;
#X connect 195 0 197 0;
#X connect 196 0 243 0;
#X connect 196 0 236 0;
#X connect 197 0 196 1;
#X connect 198 1 204 0;
#X connect 198 2 204 1;
#X connect 199 0 200 0;
#X connect 200 0 225 0;
#X connect 201 0 202 0;
#X connect 202 0 198 0;
#X connect 203 0 208 0;
#X connect 204 0 205 0;
#X connect 204 0 206 0;
#X connect 205 0 207 0;
#X connect 207 0 243 0;
#X connect 207 0 236 0;
#X connect 208 0 207 1;
#X connect 209 1 214 0;
#X connect 209 2 214 1;
#X connect 210 0 211 0;
#X connect 211 0 226 0;
#X connect 212 0 213 0;
#X connect 213 0 209 0;
#X connect 214 0 215 0;
#X connect 214 0 216 0;
#X connect 215 0 217 0;
#X connect 217 0 243 0;
#X connect 217 0 236 0;
#X connect 218 0 217 1;
#X connect 219 0 136 0;
#X connect 219 0 139 0;
#X connect 219 0 150 0;
#X connect 220 0 142 0;
#X connect 220 0 144 0;
#X connect 221 0 156 0;
#X connect 221 0 158 0;
#X connect 222 0 167 0;
#X connect 222 0 169 0;
#X connect 223 0 181 0;
#X connect 223 0 184 0;
#X connect 223 0 195 0;
#X connect 224 0 187 0;
#X connect 224 0 189 0;
#X connect 225 0 201 0;
#X connect 225 0 203 0;
#X connect 226 0 212 0;
#X connect 226 0 227 0;
#X connect 227 0 218 0;
#X connect 228 0 229 0;
#X connect 230 0 19 1;
#X connect 231 0 19 2;
#X connect 232 0 19 3;
#X connect 233 0 19 4;
#X connect 234 0 37 0;
#X connect 234 0 38 0;
#X connect 235 0 234 2;
#X connect 236 0 235 0;
#X connect 236 1 237 0;
#X connect 237 0 234 0;
#X connect 242 0 234 1;
#X connect 243 0 50 1;
#X connect 244 0 245 0;
#X connect 245 0 424 0;
#X connect 246 1 248 0;
#X connect 246 2 248 1;
#X connect 247 1 259 0;
#X connect 247 2 259 1;
#X connect 248 0 249 0;
#X connect 248 0 251 0;
#X connect 249 0 265 0;
#X connect 250 0 252 0;
#X connect 252 0 246 0;
#X connect 254 0 255 0;
#X connect 255 0 425 0;
#X connect 256 0 257 0;
#X connect 257 0 247 0;
#X connect 258 0 263 0;
#X connect 259 0 260 0;
#X connect 259 0 261 0;
#X connect 260 0 262 0;
#X connect 262 0 243 0;
#X connect 263 0 262 1;
#X connect 264 0 266 0;
#X connect 265 0 243 0;
#X connect 266 0 265 1;
#X connect 267 1 273 0;
#X connect 267 2 273 1;
#X connect 268 0 269 0;
#X connect 269 0 426 0;
#X connect 270 0 271 0;
#X connect 271 0 267 0;
#X connect 272 0 277 0;
#X connect 273 0 274 0;
#X connect 273 0 275 0;
#X connect 274 0 276 0;
#X connect 276 0 243 0;
#X connect 277 0 276 1;
#X connect 278 1 284 0;
#X connect 278 2 284 1;
#X connect 279 0 280 0;
#X connect 280 0 427 0;
#X connect 281 0 282 0;
#X connect 282 0 278 0;
#X connect 283 0 288 0;
#X connect 284 0 285 0;
#X connect 284 0 286 0;
#X connect 285 0 287 0;
#X connect 287 0 243 0;
#X connect 288 0 287 1;
#X connect 289 0 290 0;
#X connect 290 0 428 0;
#X connect 291 1 293 0;
#X connect 291 2 293 1;
#X connect 292 1 304 0;
#X connect 292 2 304 1;
#X connect 293 0 294 0;
#X connect 293 0 296 0;
#X connect 294 0 310 0;
#X connect 295 0 297 0;
#X connect 297 0 291 0;
#X connect 299 0 300 0;
#X connect 300 0 429 0;
#X connect 301 0 302 0;
#X connect 302 0 292 0;
#X connect 303 0 308 0;
#X connect 304 0 305 0;
#X connect 304 0 306 0;
#X connect 305 0 307 0;
#X connect 307 0 243 0;
#X connect 308 0 307 1;
#X connect 309 0 311 0;
#X connect 310 0 243 0;
#X connect 311 0 310 1;
#X connect 312 1 318 0;
#X connect 312 2 318 1;
#X connect 313 0 314 0;
#X connect 314 0 430 0;
#X connect 315 0 316 0;
#X connect 316 0 312 0;
#X connect 317 0 322 0;
#X connect 318 0 319 0;
#X connect 318 0 320 0;
#X connect 319 0 321 0;
#X connect 321 0 243 0;
#X connect 322 0 321 1;
#X connect 323 1 329 0;
#X connect 323 2 329 1;
#X connect 324 0 325 0;
#X connect 325 0 431 0;
#X connect 326 0 327 0;
#X connect 327 0 323 0;
#X connect 328 0 333 0;
#X connect 329 0 330 0;
#X connect 329 0 331 0;
#X connect 330 0 332 0;
#X connect 332 0 243 0;
#X connect 333 0 332 1;
#X connect 334 0 335 0;
#X connect 335 0 432 0;
#X connect 336 1 338 0;
#X connect 336 2 338 1;
#X connect 337 1 349 0;
#X connect 337 2 349 1;
#X connect 338 0 339 0;
#X connect 338 0 341 0;
#X connect 339 0 355 0;
#X connect 340 0 342 0;
#X connect 342 0 336 0;
#X connect 344 0 345 0;
#X connect 345 0 433 0;
#X connect 346 0 347 0;
#X connect 347 0 337 0;
#X connect 348 0 353 0;
#X connect 349 0 350 0;
#X connect 349 0 351 0;
#X connect 350 0 352 0;
#X connect 352 0 243 0;
#X connect 353 0 352 1;
#X connect 354 0 356 0;
#X connect 355 0 243 0;
#X connect 356 0 355 1;
#X connect 357 1 363 0;
#X connect 357 2 363 1;
#X connect 358 0 359 0;
#X connect 359 0 434 0;
#X connect 360 0 361 0;
#X connect 361 0 357 0;
#X connect 362 0 367 0;
#X connect 363 0 364 0;
#X connect 363 0 365 0;
#X connect 364 0 366 0;
#X connect 366 0 243 0;
#X connect 367 0 366 1;
#X connect 368 1 374 0;
#X connect 368 2 374 1;
#X connect 369 0 370 0;
#X connect 370 0 435 0;
#X connect 371 0 372 0;
#X connect 372 0 368 0;
#X connect 373 0 378 0;
#X connect 374 0 375 0;
#X connect 374 0 376 0;
#X connect 375 0 377 0;
#X connect 377 0 243 0;
#X connect 378 0 377 1;
#X connect 379 0 380 0;
#X connect 380 0 436 0;
#X connect 381 1 383 0;
#X connect 381 2 383 1;
#X connect 382 1 394 0;
#X connect 382 2 394 1;
#X connect 383 0 384 0;
#X connect 383 0 386 0;
#X connect 384 0 400 0;
#X connect 385 0 387 0;
#X connect 387 0 381 0;
#X connect 389 0 390 0;
#X connect 390 0 437 0;
#X connect 391 0 392 0;
#X connect 392 0 382 0;
#X connect 393 0 398 0;
#X connect 394 0 395 0;
#X connect 394 0 396 0;
#X connect 395 0 397 0;
#X connect 397 0 243 0;
#X connect 398 0 397 1;
#X connect 399 0 401 0;
#X connect 400 0 243 0;
#X connect 401 0 400 1;
#X connect 402 1 408 0;
#X connect 402 2 408 1;
#X connect 403 0 404 0;
#X connect 404 0 438 0;
#X connect 405 0 406 0;
#X connect 406 0 402 0;
#X connect 407 0 412 0;
#X connect 408 0 409 0;
#X connect 408 0 410 0;
#X connect 409 0 411 0;
#X connect 411 0 243 0;
#X connect 412 0 411 1;
#X connect 413 1 418 0;
#X connect 413 2 418 1;
#X connect 414 0 415 0;
#X connect 415 0 439 0;
#X connect 416 0 417 0;
#X connect 417 0 413 0;
#X connect 418 0 419 0;
#X connect 418 0 420 0;
#X connect 419 0 421 0;
#X connect 421 0 243 0;
#X connect 422 0 421 1;
#X connect 423 0 422 0;
#X connect 424 0 250 0;
#X connect 424 0 253 0;
#X connect 424 0 264 0;
#X connect 425 0 256 0;
#X connect 425 0 258 0;
#X connect 426 0 270 0;
#X connect 426 0 272 0;
#X connect 427 0 281 0;
#X connect 427 0 283 0;
#X connect 428 0 295 0;
#X connect 428 0 298 0;
#X connect 428 0 309 0;
#X connect 429 0 301 0;
#X connect 429 0 303 0;
#X connect 430 0 315 0;
#X connect 430 0 317 0;
#X connect 431 0 326 0;
#X connect 431 0 328 0;
#X connect 432 0 340 0;
#X connect 432 0 343 0;
#X connect 432 0 354 0;
#X connect 433 0 346 0;
#X connect 433 0 348 0;
#X connect 434 0 360 0;
#X connect 434 0 362 0;
#X connect 435 0 371 0;
#X connect 435 0 373 0;
#X connect 436 0 385 0;
#X connect 436 0 388 0;
#X connect 436 0 399 0;
#X connect 437 0 391 0;
#X connect 437 0 393 0;
#X connect 438 0 405 0;
#X connect 438 0 407 0;
#X connect 439 0 416 0;
#X connect 439 0 423 0;
#X restore 294 282 pd changeactivestepcolor \$1;
#X floatatom 357 205 5 0 0 0 - - - 0;
#X obj 224 263 inlet;
#X obj 224 291 spigot;
#X obj 266 263 tgl 15 0 empty empty empty 17 7 0 10 #fcfcfc #000000
#000000 0 1;
#X obj 159 159 inlet;
#X connect 2 0 3 0;
#X connect 3 0 4 0;
#X connect 4 0 5 0;
#X connect 4 0 10 0;
#X connect 5 0 7 0;
#X connect 6 0 5 0;
#X connect 7 0 8 0;
#X connect 7 0 13 0;
#X connect 8 0 9 0;
#X connect 10 0 7 1;
#X connect 11 0 12 0;
#X connect 12 0 1 0;
#X connect 13 0 12 1;
#X connect 14 0 5 0;
#X coords 0 -1 1 1 30 20 2 100 100;
